<svg width="1402" height="671" viewBox="0 0 1402 671" fill="none" xmlns="http://www.w3.org/2000/svg">
<g opacity="0.05" filter="url(#filter0_f)">
<path fill-rule="evenodd" clip-rule="evenodd" d="M332.647 610.03C324.159 608.204 315.803 613.552 314.236 622.16C312.408 630.508 317.892 638.856 326.379 640.682C334.736 642.247 343.092 636.899 344.92 628.291C346.618 619.943 341.134 611.595 332.647 610.03Z" fill="white"/>
</g>
<g opacity="0.04" filter="url(#filter1_f)">
<path fill-rule="evenodd" clip-rule="evenodd" d="M35.7335 603.471C27.2463 601.645 18.8897 606.993 17.3229 615.602C15.4949 623.949 20.9789 632.297 29.466 634.123C37.8226 635.688 46.1792 630.341 48.0072 621.732C49.7047 613.384 44.2206 605.037 35.7335 603.471Z" fill="white"/>
</g>
<g opacity="0.03" filter="url(#filter2_f)">
<path fill-rule="evenodd" clip-rule="evenodd" d="M384.699 55.9175C387.421 41.4694 401.588 32.2431 415.734 35.1195L415.763 35.1254L415.792 35.1315C430.315 38.2154 439.317 52.3048 436.677 66.399L436.661 66.4888L436.641 66.578C433.581 80.8012 419.587 90.1737 405.318 87.1178C390.655 84.3814 381.691 70.1553 384.699 55.9175ZM398.054 58.688C396.535 65.7478 400.971 72.4639 407.879 73.7212L407.998 73.7429L408.117 73.7688C414.797 75.2316 421.72 70.8523 423.288 63.7984C424.532 56.8919 420.092 50.0038 412.988 48.4792C406.158 47.1069 399.358 51.6362 398.094 58.4903L398.075 58.5895L398.054 58.688Z" fill="white"/>
</g>
<g opacity="0.03" filter="url(#filter3_f)">
<path fill-rule="evenodd" clip-rule="evenodd" d="M1088.41 64.2225C1073.44 67.4438 1058.7 58.0101 1055.93 42.824C1052.71 28.0981 1062.38 13.3723 1077.35 10.151C1092.1 7.38988 1106.84 16.8236 1110.06 32.0097C1113.06 46.7356 1103.38 61.4614 1088.41 64.2225Z" fill="white"/>
</g>
<path opacity="0.01" fill-rule="evenodd" clip-rule="evenodd" d="M793.406 643.218C807.854 640.497 817.081 626.329 814.204 612.183L814.198 612.154L814.192 612.125C811.108 597.602 797.019 588.6 782.925 591.24L782.835 591.257L782.746 591.276C768.523 594.336 759.15 608.331 762.206 622.599C764.942 637.262 779.168 646.226 793.406 643.218ZM790.636 629.863C783.576 631.382 776.86 626.946 775.602 620.038L775.581 619.919L775.555 619.8C774.092 613.121 778.471 606.197 785.525 604.629C792.432 603.385 799.32 607.825 800.844 614.929C802.217 621.759 797.687 628.56 790.833 629.824L790.734 629.842L790.636 629.863Z" fill="white"/>
<path opacity="0.06" fill-rule="evenodd" clip-rule="evenodd" d="M806.34 419.813C808.166 428.3 802.818 436.657 794.209 438.224C785.862 440.052 777.514 434.568 775.688 426.08C774.122 417.724 779.47 409.367 788.079 407.539C796.427 405.842 804.774 411.326 806.34 419.813Z" fill="white"/>
<g opacity="0.06" filter="url(#filter4_f)">
<path fill-rule="evenodd" clip-rule="evenodd" d="M985.691 357.406C982.97 342.958 968.802 333.731 954.656 336.608L954.627 336.614L954.598 336.62C940.075 339.704 931.073 353.793 933.713 367.887L933.73 367.977L933.749 368.066C936.809 382.289 950.804 391.662 965.072 388.606C979.735 385.87 988.699 371.644 985.691 357.406ZM972.336 360.176C973.855 367.236 969.419 373.952 962.511 375.209L962.392 375.231L962.274 375.257C955.594 376.72 948.67 372.341 947.102 365.287C945.858 358.38 950.299 351.492 957.402 349.967C964.232 348.595 971.033 353.124 972.297 359.979L972.315 360.078L972.336 360.176Z" fill="white"/>
</g>
<g opacity="0.1" filter="url(#filter5_f)">
<path fill-rule="evenodd" clip-rule="evenodd" d="M1236.07 260.229C1244.55 258.403 1252.91 263.751 1254.48 272.36C1256.31 280.707 1250.82 289.055 1242.34 290.881C1233.98 292.446 1225.62 287.099 1223.79 278.49C1222.1 270.142 1227.58 261.794 1236.07 260.229Z" fill="white"/>
</g>
<path opacity="0.01" fill-rule="evenodd" clip-rule="evenodd" d="M1184.6 334.961C1193.09 333.135 1201.45 338.482 1203.02 347.091C1204.84 355.439 1199.36 363.786 1190.87 365.613C1182.52 367.178 1174.16 361.83 1172.33 353.221C1170.63 344.874 1176.12 336.526 1184.6 334.961Z" fill="white"/>
<path opacity="0.02" fill-rule="evenodd" clip-rule="evenodd" d="M1345.11 647.882C1341.89 632.91 1351.32 618.169 1366.51 615.405C1381.23 612.18 1395.96 621.854 1399.18 636.826C1401.94 651.567 1392.51 666.309 1377.32 669.533C1362.59 672.528 1347.87 662.854 1345.11 647.882Z" fill="white"/>
<g opacity="0.1" filter="url(#filter6_f)">
<path fill-rule="evenodd" clip-rule="evenodd" d="M852.383 267.951C855.104 282.399 869.272 291.626 883.418 288.749L883.447 288.743L883.476 288.737C897.999 285.653 907.001 271.564 904.361 257.47L904.344 257.38L904.325 257.291C901.265 243.067 887.27 233.695 873.002 236.751C858.339 239.487 849.375 253.713 852.383 267.951ZM865.738 265.181C864.219 258.121 868.655 251.405 875.563 250.147L875.682 250.126L875.801 250.1C882.48 248.637 889.404 253.016 890.972 260.07C892.216 266.977 887.776 273.865 880.672 275.389C873.842 276.762 867.041 272.232 865.777 265.378L865.759 265.279L865.738 265.181Z" fill="white"/>
</g>
<g opacity="0.04" filter="url(#filter7_f)">
<path fill-rule="evenodd" clip-rule="evenodd" d="M248.896 167.774C240.409 165.948 232.052 171.296 230.485 179.904C228.657 188.252 234.141 196.6 242.628 198.426C250.985 199.991 259.341 194.643 261.169 186.035C262.867 177.687 257.383 169.339 248.896 167.774Z" fill="white"/>
<path fill-rule="evenodd" clip-rule="evenodd" d="M301.729 163.466C293.242 161.639 284.885 166.987 283.319 175.596C281.491 183.944 286.975 192.291 295.462 194.117C303.818 195.683 312.175 190.335 314.003 181.726C315.7 173.378 310.216 165.031 301.729 163.466Z" fill="white"/>
<line x1="247.875" y1="183.376" x2="300.709" y2="179.067" stroke="white" stroke-width="6"/>
</g>
<g opacity="0.06" filter="url(#filter8_f)">
<path fill-rule="evenodd" clip-rule="evenodd" d="M46.7677 439.903C54.9348 442.847 63.9309 438.663 66.6338 430.341C69.5607 422.312 65.241 413.307 57.0739 410.363C49.0013 407.696 40.0052 411.879 37.0435 420.166C34.2461 428.213 38.5657 437.218 46.7677 439.903Z" fill="white"/>
<path fill-rule="evenodd" clip-rule="evenodd" d="M103.785 329.453C117.74 334.08 124.991 349.353 120.251 362.988L120.241 363.016L120.231 363.043C115.235 377.024 100.069 384.064 86.4538 379.564L86.3671 379.536L86.2813 379.505C72.5944 374.572 65.1755 359.451 70.1102 345.718C74.781 331.553 90.0771 324.569 103.785 329.453ZM99.2556 342.318C92.462 339.869 85.2135 343.368 83.0446 350.046L83.0071 350.161L82.9656 350.275C80.6236 356.7 84.0386 364.147 90.8199 366.643C97.4982 368.798 104.918 365.318 107.378 358.481C109.65 351.896 106.07 344.551 99.4462 342.383L99.3504 342.352L99.2556 342.318Z" fill="white"/>
<line x1="87.7668" y1="365.842" x2="54.2669" y2="424.761" stroke="white" stroke-width="5"/>
</g>
<g opacity="0.1" filter="url(#filter9_f)">
<path fill-rule="evenodd" clip-rule="evenodd" d="M207.933 401.224C192.995 397.85 178.158 407.133 175.239 422.29C171.864 436.982 181.387 451.806 196.325 455.18C211.037 458.092 225.874 448.809 229.254 433.657C232.399 418.962 222.876 404.138 207.933 401.224Z" fill="white"/>
<path fill-rule="evenodd" clip-rule="evenodd" d="M280.04 439.026C294.46 441.895 303.541 456.156 300.52 470.272L300.514 470.301L300.507 470.329C297.275 484.82 283.095 493.678 269.028 490.894L268.939 490.877L268.85 490.857C254.658 487.651 245.429 473.562 248.631 459.325C251.517 444.691 265.834 435.873 280.04 439.026ZM277.133 452.352C270.089 450.761 263.328 455.128 262 462.023L261.978 462.142L261.95 462.26C260.419 468.925 264.728 475.893 271.765 477.532C278.659 478.847 285.592 474.477 287.189 467.389C288.631 460.574 284.171 453.727 277.331 452.393L277.232 452.374L277.133 452.352Z" fill="white"/>
<line x1="257.019" y1="456.864" x2="204.673" y2="428.738" stroke="white" stroke-width="5"/>
</g>
<g opacity="0.02">
<path fill-rule="evenodd" clip-rule="evenodd" d="M608.68 385.896C617.167 387.722 625.523 382.374 627.09 373.765C628.918 365.418 623.434 357.07 614.947 355.244C606.59 353.679 598.234 359.026 596.406 367.635C594.708 375.983 600.192 384.331 608.68 385.896Z" fill="white"/>
<path fill-rule="evenodd" clip-rule="evenodd" d="M509.745 394.153C507.919 402.64 513.267 410.997 521.876 412.563C530.223 414.391 538.571 408.907 540.397 400.42C541.962 392.064 536.615 383.707 528.006 381.879C519.658 380.182 511.311 385.666 509.745 394.153Z" fill="white"/>
<line x1="528.207" y1="396.741" x2="614.949" y2="371.231" stroke="white" stroke-width="5"/>
</g>
<g opacity="0.1" filter="url(#filter10_f)">
<path fill-rule="evenodd" clip-rule="evenodd" d="M539.02 432.259C536.19 440.467 540.498 449.404 548.857 451.991C556.925 454.806 565.87 450.361 568.7 442.154C571.255 434.045 566.947 425.108 558.619 422.262C550.535 419.576 541.59 424.021 539.02 432.259Z" fill="white"/>
<path fill-rule="evenodd" clip-rule="evenodd" d="M570.875 487.699C575.308 473.681 590.479 466.219 604.178 470.769L604.206 470.779L604.234 470.788C618.283 475.59 625.532 490.656 621.223 504.333L621.195 504.42L621.166 504.506C616.423 518.26 601.407 525.888 587.607 521.145C573.378 516.672 566.183 501.474 570.875 487.699ZM583.802 492.05C581.448 498.877 585.047 506.076 591.755 508.152L591.87 508.188L591.985 508.228C598.441 510.48 605.84 506.962 608.241 500.147C610.304 493.439 606.721 486.068 599.851 483.704C593.234 481.523 585.94 485.205 583.864 491.858L583.834 491.954L583.802 492.05Z" fill="white"/>
<line x1="582.36" y1="480.079" x2="551.977" y2="436.951" stroke="white" stroke-width="5"/>
</g>
<g opacity="0.05" filter="url(#filter11_f)">
<path fill-rule="evenodd" clip-rule="evenodd" d="M934.201 590.733C937.423 605.705 927.989 620.447 912.803 623.211C898.077 626.435 883.351 616.761 880.13 601.789C877.369 587.048 886.802 572.307 901.988 569.082C916.714 566.087 931.44 575.762 934.201 590.733Z" fill="white"/>
<path fill-rule="evenodd" clip-rule="evenodd" d="M868.613 537.558C865.891 523.11 851.724 513.884 837.578 516.76L837.549 516.766L837.52 516.772C822.997 519.856 813.995 533.945 816.634 548.04L816.651 548.129L816.671 548.219C819.731 562.442 833.725 571.814 847.994 568.758C862.657 566.022 871.621 551.796 868.613 537.558ZM855.258 540.329C856.777 547.388 852.341 554.105 845.433 555.362L845.314 555.384L845.195 555.409C838.515 556.872 831.592 552.493 830.024 545.439C828.78 538.533 833.22 531.644 840.324 530.12C847.154 528.748 853.954 533.277 855.218 540.131L855.237 540.23L855.258 540.329Z" fill="white"/>
<line x1="858.33" y1="552.183" x2="907.213" y2="594.29" stroke="white" stroke-width="5"/>
</g>
<g opacity="0.08" filter="url(#filter12_f)">
<path fill-rule="evenodd" clip-rule="evenodd" d="M1274.01 370.069C1275.84 378.556 1270.49 386.913 1261.88 388.48C1253.53 390.308 1245.19 384.824 1243.36 376.337C1241.8 367.98 1247.14 359.624 1255.75 357.796C1264.1 356.098 1272.45 361.582 1274.01 370.069Z" fill="white"/>
<path fill-rule="evenodd" clip-rule="evenodd" d="M1225.04 405.801C1222.32 391.353 1208.15 382.126 1194 385.003L1193.97 385.009L1193.94 385.015C1179.42 388.099 1170.42 402.188 1173.06 416.282L1173.08 416.372L1173.1 416.461C1176.16 430.684 1190.15 440.057 1204.42 437.001C1219.08 434.265 1228.05 420.039 1225.04 405.801ZM1211.68 408.571C1213.2 415.631 1208.77 422.347 1201.86 423.605L1201.74 423.626L1201.62 423.652C1194.94 425.115 1188.02 420.736 1186.45 413.682C1185.2 406.775 1189.64 399.887 1196.75 398.363C1203.58 396.99 1210.38 401.519 1211.64 408.374L1211.66 408.473L1211.68 408.571Z" fill="white"/>
<line x1="1209.52" y1="399.455" x2="1255.76" y2="371.823" stroke="white" stroke-width="5"/>
</g>
<g opacity="0.1" filter="url(#filter13_f)">
<path fill-rule="evenodd" clip-rule="evenodd" d="M1281.87 458.729C1293.9 456.142 1305.74 463.717 1307.96 475.912C1310.54 487.738 1302.78 499.563 1290.75 502.15C1278.92 504.367 1267.08 496.792 1264.49 484.597C1262.08 472.771 1269.85 460.946 1281.87 458.729Z" fill="white"/>
<path fill-rule="evenodd" clip-rule="evenodd" d="M1329.49 521.19C1327.66 512.703 1333.01 504.346 1341.62 502.779C1349.97 500.951 1358.32 506.435 1360.14 514.923C1361.71 523.279 1356.36 531.636 1347.75 533.464C1339.4 535.161 1331.06 529.677 1329.49 521.19Z" fill="white"/>
<line x1="1285.99" y1="478.309" x2="1344.52" y2="517.961" stroke="white" stroke-width="5"/>
</g>
<g opacity="0.03">
<path fill-rule="evenodd" clip-rule="evenodd" d="M1049.3 637.678C1057.78 635.852 1066.14 641.2 1067.71 649.809C1069.53 658.157 1064.05 666.504 1055.56 668.33C1047.21 669.896 1038.85 664.548 1037.02 655.939C1035.32 647.591 1040.81 639.244 1049.3 637.678Z" fill="white"/>
<path fill-rule="evenodd" clip-rule="evenodd" d="M1102.8 606.399C1111.28 604.573 1119.64 609.921 1121.21 618.529C1123.03 626.877 1117.55 635.225 1109.06 637.051C1100.71 638.616 1092.35 633.268 1090.52 624.66C1088.83 616.312 1094.31 607.964 1102.8 606.399Z" fill="white"/>
<line x1="1049.47" y1="650.799" x2="1102.97" y2="619.804" stroke="white" stroke-width="5"/>
</g>
<g opacity="0.03" filter="url(#filter14_f)">
<path fill-rule="evenodd" clip-rule="evenodd" d="M1031.77 436.775C1040.26 434.949 1048.61 440.297 1050.18 448.905C1052.01 457.253 1046.52 465.601 1038.04 467.427C1029.68 468.992 1021.32 463.644 1019.5 455.036C1017.8 446.688 1023.28 438.34 1031.77 436.775Z" fill="white"/>
<path fill-rule="evenodd" clip-rule="evenodd" d="M935.411 445.279C938.132 459.727 952.3 468.953 966.446 466.077L966.475 466.071L966.504 466.065C981.027 462.981 990.029 448.891 987.389 434.797L987.372 434.708L987.353 434.618C984.293 420.395 970.298 411.023 956.03 414.078C941.367 416.815 932.403 431.041 935.411 445.279ZM948.766 442.508C947.247 435.449 951.683 428.732 958.591 427.475L958.71 427.453L958.828 427.427C965.508 425.965 972.432 430.344 974 437.398C975.244 444.304 970.803 451.192 963.7 452.717C956.87 454.089 950.069 449.56 948.805 442.706L948.787 442.607L948.766 442.508Z" fill="white"/>
<line x1="982.17" y1="442.259" x2="1036.18" y2="449.58" stroke="white" stroke-width="5"/>
</g>
<g opacity="0.02" filter="url(#filter15_f)">
<path fill-rule="evenodd" clip-rule="evenodd" d="M1252.51 336.438C1261 334.612 1269.35 339.96 1270.92 348.569C1272.75 356.916 1267.26 365.264 1258.78 367.09C1250.42 368.655 1242.06 363.308 1240.24 354.699C1238.54 346.351 1244.02 338.003 1252.51 336.438Z" fill="white"/>
<path fill-rule="evenodd" clip-rule="evenodd" d="M1272.57 302.091C1269.99 290.068 1277.56 278.23 1289.76 276.011C1301.58 273.421 1313.41 281.19 1316 293.213C1318.21 305.051 1310.64 316.889 1298.44 319.478C1286.62 321.883 1274.79 314.114 1272.57 302.091Z" fill="white"/>
<path d="M1250.05 359.935L1290.58 299.091" stroke="white" stroke-width="5"/>
</g>
<g opacity="0.04" filter="url(#filter16_f)">
<path fill-rule="evenodd" clip-rule="evenodd" d="M1386 147.535C1386.39 162.232 1374.49 174.241 1360.06 174.416L1360.03 174.416L1360 174.416C1345.15 174.468 1333.38 162.596 1332.98 148.262L1332.98 148.171L1332.98 148.08C1332.97 133.531 1344.67 121.415 1359.26 121.39C1374.17 120.97 1385.94 132.983 1386 147.535ZM1372.36 147.646C1372.36 140.425 1366.6 134.797 1359.58 135.026L1359.46 135.03L1359.34 135.029C1352.5 135.01 1346.66 140.752 1346.62 147.978C1346.86 154.991 1352.65 160.787 1359.92 160.777C1366.89 160.677 1372.58 154.814 1372.37 147.848L1372.36 147.747L1372.36 147.646Z" fill="white"/>
<path fill-rule="evenodd" clip-rule="evenodd" d="M1290.33 178.483C1282.42 182.06 1273.12 178.597 1269.77 170.513C1266.23 162.739 1269.82 153.422 1277.73 149.845C1285.57 146.551 1294.87 150.014 1298.47 158.043C1301.9 165.844 1298.3 175.162 1290.33 178.483Z" fill="white"/>
<line x1="1341.16" y1="154.429" x2="1286.23" y2="166.29" stroke="white" stroke-width="5"/>
</g>
<g opacity="0.01">
<path fill-rule="evenodd" clip-rule="evenodd" d="M935.953 277.365C927.466 279.191 919.109 273.843 917.543 265.235C915.715 256.887 921.199 248.539 929.686 246.713C938.042 245.148 946.399 250.496 948.227 259.104C949.924 267.452 944.44 275.8 935.953 277.365Z" fill="white"/>
<path fill-rule="evenodd" clip-rule="evenodd" d="M933.76 204.527C931.173 192.504 938.749 180.667 950.944 178.447C962.769 175.857 974.595 183.626 977.182 195.649C979.399 207.487 971.823 219.325 959.628 221.914C947.803 224.319 935.978 216.55 933.76 204.527Z" fill="white"/>
<line x1="934.314" y1="259.125" x2="953.024" y2="199.402" stroke="white" stroke-width="5"/>
</g>
<g opacity="0.03" filter="url(#filter17_f)">
<path fill-rule="evenodd" clip-rule="evenodd" d="M770.352 327.149C755.38 330.37 740.639 320.936 737.875 305.75C734.65 291.024 744.324 276.299 759.296 273.077C774.037 270.316 788.779 279.75 792.004 294.936C794.998 309.662 785.324 324.388 770.352 327.149Z" fill="white"/>
<path fill-rule="evenodd" clip-rule="evenodd" d="M823.621 282.095C815.133 283.921 806.777 278.573 805.21 269.964C803.382 261.616 808.866 253.269 817.353 251.443C825.71 249.877 834.066 255.225 835.894 263.834C837.592 272.182 832.108 280.529 823.621 282.095Z" fill="white"/>
<line x1="820.177" y1="268.231" x2="764.548" y2="302.32" stroke="white" stroke-width="5"/>
</g>
<g opacity="0.04" filter="url(#filter18_f)">
<path fill-rule="evenodd" clip-rule="evenodd" d="M815.309 128.421C818.03 113.973 832.198 104.747 846.344 107.623L846.373 107.629L846.402 107.635C860.925 110.719 869.927 124.808 867.287 138.902L867.27 138.992L867.251 139.081C864.191 153.305 850.196 162.677 835.928 159.621C821.265 156.885 812.301 142.659 815.309 128.421ZM828.664 131.191C827.145 138.251 831.581 144.967 838.489 146.225L838.608 146.246L838.726 146.272C845.406 147.735 852.33 143.356 853.898 136.302C855.142 129.395 850.701 122.507 843.598 120.983C836.768 119.61 829.967 124.14 828.703 130.994L828.685 131.093L828.664 131.191Z" fill="white"/>
<path fill-rule="evenodd" clip-rule="evenodd" d="M911.179 132.185C919.666 130.359 928.023 135.706 929.59 144.315C931.418 152.663 925.934 161.011 917.447 162.837C909.09 164.402 900.733 159.054 898.905 150.445C897.208 142.098 902.692 133.75 911.179 132.185Z" fill="white"/>
<line x1="858.178" y1="135.835" x2="913.022" y2="145.002" stroke="white" stroke-width="5"/>
</g>
<g opacity="0.06" filter="url(#filter19_f)">
<path fill-rule="evenodd" clip-rule="evenodd" d="M570.572 262.818C574.106 251.039 567.495 238.636 555.515 235.454C543.933 231.933 531.527 238.738 527.993 250.517C524.842 262.141 531.453 274.544 543.403 278.094C555 281.431 567.406 274.627 570.572 262.818Z" fill="white"/>
<path fill-rule="evenodd" clip-rule="evenodd" d="M575.67 198.077C573.175 206.392 577.842 215.147 586.299 217.393C594.475 219.879 603.232 215.076 605.727 206.761C607.951 198.555 603.285 189.8 594.849 187.293C586.662 184.938 577.905 189.741 575.67 198.077Z" fill="white"/>
<line x1="592.781" y1="202.23" x2="551.46" y2="256.593" stroke="white" stroke-width="5"/>
</g>
<g opacity="0.08" filter="url(#filter20_f)">
<path fill-rule="evenodd" clip-rule="evenodd" d="M120.025 186.191C117.438 198.214 125.014 210.052 137.208 212.271C149.034 214.861 160.859 207.092 163.446 195.069C165.663 183.231 158.088 171.394 145.893 168.804C134.067 166.399 122.242 174.168 120.025 186.191Z" fill="white"/>
<path fill-rule="evenodd" clip-rule="evenodd" d="M75.4401 143.388C78.1614 128.94 92.3291 119.714 106.475 122.59L106.504 122.596L106.533 122.602C121.056 125.686 130.058 139.776 127.418 153.87L127.401 153.959L127.382 154.049C124.322 168.272 110.327 177.644 96.0586 174.589C81.3962 171.852 72.4319 157.626 75.4401 143.388ZM88.7949 146.159C87.2759 153.218 91.7119 159.935 98.6198 161.192L98.7391 161.214L98.8575 161.24C105.537 162.702 112.461 158.323 114.029 151.269C115.273 144.363 110.832 137.474 103.729 135.95C96.8987 134.578 90.0984 139.107 88.8344 145.961L88.8161 146.06L88.7949 146.159Z" fill="white"/>
<line x1="111.078" y1="159.502" x2="141.741" y2="188.76" stroke="white" stroke-width="5"/>
</g>
<g opacity="0.07" filter="url(#filter21_f)">
<path fill-rule="evenodd" clip-rule="evenodd" d="M387.723 326.808C375.7 324.221 363.862 331.797 361.643 343.991C359.053 355.817 366.822 367.642 378.845 370.229C390.683 372.446 402.521 364.871 405.11 352.676C407.515 340.85 399.746 329.025 387.723 326.808Z" fill="white"/>
<path fill-rule="evenodd" clip-rule="evenodd" d="M441.348 357.225C449.835 359.051 458.191 353.703 459.758 345.095C461.586 336.747 456.102 328.399 447.615 326.573C439.259 325.008 430.902 330.356 429.074 338.964C427.377 347.312 432.861 355.66 441.348 357.225Z" fill="white"/>
<line x1="382.283" y1="350.367" x2="443.375" y2="343.851" stroke="white" stroke-width="5"/>
</g>
<g opacity="0.02" filter="url(#filter22_f)">
<path fill-rule="evenodd" clip-rule="evenodd" d="M35.7335 434.606C27.2463 432.78 18.8897 438.128 17.3229 446.736C15.4949 455.084 20.9789 463.432 29.466 465.258C37.8226 466.823 46.1792 461.475 48.0072 452.867C49.7047 444.519 44.2206 436.171 35.7335 434.606Z" fill="white"/>
<path fill-rule="evenodd" clip-rule="evenodd" d="M63.4088 398.431C57.8198 397.229 52.3166 400.751 51.2848 406.42C50.081 411.917 53.6924 417.414 59.2815 418.617C64.7846 419.648 70.2877 416.126 71.4915 410.457C72.6094 404.959 68.9979 399.462 63.4088 398.431Z" fill="white"/>
<line x1="61.7686" y1="409.921" x2="33.0379" y2="451.313" stroke="white" stroke-width="5"/>
</g>
<defs>
<filter id="filter0_f" x="297.884" y="593.673" width="63.3442" height="63.2804" filterUnits="userSpaceOnUse" color-interpolation-filters="sRGB">
<feFlood flood-opacity="0" result="BackgroundImageFix"/>
<feBlend mode="normal" in="SourceGraphic" in2="BackgroundImageFix" result="shape"/>
<feGaussianBlur stdDeviation="8" result="effect1_foregroundBlur"/>
</filter>
<filter id="filter1_f" x="13.9712" y="600.114" width="37.3442" height="37.2804" filterUnits="userSpaceOnUse" color-interpolation-filters="sRGB">
<feFlood flood-opacity="0" result="BackgroundImageFix"/>
<feBlend mode="normal" in="SourceGraphic" in2="BackgroundImageFix" result="shape"/>
<feGaussianBlur stdDeviation="1.5" result="effect1_foregroundBlur"/>
</filter>
<filter id="filter2_f" x="379.119" y="29.5947" width="63.0164" height="63.1017" filterUnits="userSpaceOnUse" color-interpolation-filters="sRGB">
<feFlood flood-opacity="0" result="BackgroundImageFix"/>
<feBlend mode="normal" in="SourceGraphic" in2="BackgroundImageFix" result="shape"/>
<feGaussianBlur stdDeviation="2.5" result="effect1_foregroundBlur"/>
</filter>
<filter id="filter3_f" x="1046.31" y="0.672363" width="73.2929" height="73.1802" filterUnits="userSpaceOnUse" color-interpolation-filters="sRGB">
<feFlood flood-opacity="0" result="BackgroundImageFix"/>
<feBlend mode="normal" in="SourceGraphic" in2="BackgroundImageFix" result="shape"/>
<feGaussianBlur stdDeviation="4.5" result="effect1_foregroundBlur"/>
</filter>
<filter id="filter4_f" x="915.255" y="318.083" width="89.0164" height="89.1017" filterUnits="userSpaceOnUse" color-interpolation-filters="sRGB">
<feFlood flood-opacity="0" result="BackgroundImageFix"/>
<feBlend mode="normal" in="SourceGraphic" in2="BackgroundImageFix" result="shape"/>
<feGaussianBlur stdDeviation="9" result="effect1_foregroundBlur"/>
</filter>
<filter id="filter5_f" x="1203.49" y="239.872" width="71.3442" height="71.2804" filterUnits="userSpaceOnUse" color-interpolation-filters="sRGB">
<feFlood flood-opacity="0" result="BackgroundImageFix"/>
<feBlend mode="normal" in="SourceGraphic" in2="BackgroundImageFix" result="shape"/>
<feGaussianBlur stdDeviation="10" result="effect1_foregroundBlur"/>
</filter>
<filter id="filter6_f" x="837.803" y="222.172" width="81.0164" height="81.1017" filterUnits="userSpaceOnUse" color-interpolation-filters="sRGB">
<feFlood flood-opacity="0" result="BackgroundImageFix"/>
<feBlend mode="normal" in="SourceGraphic" in2="BackgroundImageFix" result="shape"/>
<feGaussianBlur stdDeviation="7" result="effect1_foregroundBlur"/>
</filter>
<filter id="filter7_f" x="220.133" y="153.108" width="104.178" height="55.589" filterUnits="userSpaceOnUse" color-interpolation-filters="sRGB">
<feFlood flood-opacity="0" result="BackgroundImageFix"/>
<feBlend mode="normal" in="SourceGraphic" in2="BackgroundImageFix" result="shape"/>
<feGaussianBlur stdDeviation="5" result="effect1_foregroundBlur"/>
</filter>
<filter id="filter8_f" x="20.2509" y="310.632" width="118.744" height="146.131" filterUnits="userSpaceOnUse" color-interpolation-filters="sRGB">
<feFlood flood-opacity="0" result="BackgroundImageFix"/>
<feBlend mode="normal" in="SourceGraphic" in2="BackgroundImageFix" result="shape"/>
<feGaussianBlur stdDeviation="7" result="effect1_foregroundBlur"/>
</filter>
<filter id="filter9_f" x="160.28" y="386.256" width="155.088" height="119.421" filterUnits="userSpaceOnUse" color-interpolation-filters="sRGB">
<feFlood flood-opacity="0" result="BackgroundImageFix"/>
<feBlend mode="normal" in="SourceGraphic" in2="BackgroundImageFix" result="shape"/>
<feGaussianBlur stdDeviation="7" result="effect1_foregroundBlur"/>
</filter>
<filter id="filter10_f" x="522.417" y="405.725" width="117.071" height="133.806" filterUnits="userSpaceOnUse" color-interpolation-filters="sRGB">
<feFlood flood-opacity="0" result="BackgroundImageFix"/>
<feBlend mode="normal" in="SourceGraphic" in2="BackgroundImageFix" result="shape"/>
<feGaussianBlur stdDeviation="7" result="effect1_foregroundBlur"/>
</filter>
<filter id="filter11_f" x="808.176" y="508.235" width="134.655" height="123.596" filterUnits="userSpaceOnUse" color-interpolation-filters="sRGB">
<feFlood flood-opacity="0" result="BackgroundImageFix"/>
<feBlend mode="normal" in="SourceGraphic" in2="BackgroundImageFix" result="shape"/>
<feGaussianBlur stdDeviation="4" result="effect1_foregroundBlur"/>
</filter>
<filter id="filter12_f" x="1162.6" y="347.487" width="121.769" height="100.092" filterUnits="userSpaceOnUse" color-interpolation-filters="sRGB">
<feFlood flood-opacity="0" result="BackgroundImageFix"/>
<feBlend mode="normal" in="SourceGraphic" in2="BackgroundImageFix" result="shape"/>
<feGaussianBlur stdDeviation="5" result="effect1_foregroundBlur"/>
</filter>
<filter id="filter13_f" x="1254.05" y="448.223" width="116.362" height="95.5493" filterUnits="userSpaceOnUse" color-interpolation-filters="sRGB">
<feFlood flood-opacity="0" result="BackgroundImageFix"/>
<feBlend mode="normal" in="SourceGraphic" in2="BackgroundImageFix" result="shape"/>
<feGaussianBlur stdDeviation="5" result="effect1_foregroundBlur"/>
</filter>
<filter id="filter14_f" x="931.831" y="410.5" width="121.701" height="60.1983" filterUnits="userSpaceOnUse" color-interpolation-filters="sRGB">
<feFlood flood-opacity="0" result="BackgroundImageFix"/>
<feBlend mode="normal" in="SourceGraphic" in2="BackgroundImageFix" result="shape"/>
<feGaussianBlur stdDeviation="1.5" result="effect1_foregroundBlur"/>
</filter>
<filter id="filter15_f" x="1225.93" y="261.513" width="104.452" height="119.849" filterUnits="userSpaceOnUse" color-interpolation-filters="sRGB">
<feFlood flood-opacity="0" result="BackgroundImageFix"/>
<feBlend mode="normal" in="SourceGraphic" in2="BackgroundImageFix" result="shape"/>
<feGaussianBlur stdDeviation="7" result="effect1_foregroundBlur"/>
</filter>
<filter id="filter16_f" x="1255.46" y="106.35" width="145.605" height="86.443" filterUnits="userSpaceOnUse" color-interpolation-filters="sRGB">
<feFlood flood-opacity="0" result="BackgroundImageFix"/>
<feBlend mode="normal" in="SourceGraphic" in2="BackgroundImageFix" result="shape"/>
<feGaussianBlur stdDeviation="5" result="effect1_foregroundBlur"/>
</filter>
<filter id="filter17_f" x="722.254" y="236.171" width="128.948" height="106.607" filterUnits="userSpaceOnUse" color-interpolation-filters="sRGB">
<feFlood flood-opacity="0" result="BackgroundImageFix"/>
<feBlend mode="normal" in="SourceGraphic" in2="BackgroundImageFix" result="shape"/>
<feGaussianBlur stdDeviation="7.5" result="effect1_foregroundBlur"/>
</filter>
<filter id="filter18_f" x="811.729" y="104.098" width="121.212" height="62.0099" filterUnits="userSpaceOnUse" color-interpolation-filters="sRGB">
<feFlood flood-opacity="0" result="BackgroundImageFix"/>
<feBlend mode="normal" in="SourceGraphic" in2="BackgroundImageFix" result="shape"/>
<feGaussianBlur stdDeviation="1.5" result="effect1_foregroundBlur"/>
</filter>
<filter id="filter19_f" x="522.488" y="182.506" width="88.0077" height="101.119" filterUnits="userSpaceOnUse" color-interpolation-filters="sRGB">
<feFlood flood-opacity="0" result="BackgroundImageFix"/>
<feBlend mode="normal" in="SourceGraphic" in2="BackgroundImageFix" result="shape"/>
<feGaussianBlur stdDeviation="1.5" result="effect1_foregroundBlur"/>
</filter>
<filter id="filter20_f" x="66.8601" y="114.065" width="104.97" height="106.704" filterUnits="userSpaceOnUse" color-interpolation-filters="sRGB">
<feFlood flood-opacity="0" result="BackgroundImageFix"/>
<feBlend mode="normal" in="SourceGraphic" in2="BackgroundImageFix" result="shape"/>
<feGaussianBlur stdDeviation="4" result="effect1_foregroundBlur"/>
</filter>
<filter id="filter21_f" x="355.145" y="320.302" width="110.965" height="56.3117" filterUnits="userSpaceOnUse" color-interpolation-filters="sRGB">
<feFlood flood-opacity="0" result="BackgroundImageFix"/>
<feBlend mode="normal" in="SourceGraphic" in2="BackgroundImageFix" result="shape"/>
<feGaussianBlur stdDeviation="3" result="effect1_foregroundBlur"/>
</filter>
<filter id="filter22_f" x="0.971191" y="382.196" width="86.7233" height="99.3331" filterUnits="userSpaceOnUse" color-interpolation-filters="sRGB">
<feFlood flood-opacity="0" result="BackgroundImageFix"/>
<feBlend mode="normal" in="SourceGraphic" in2="BackgroundImageFix" result="shape"/>
<feGaussianBlur stdDeviation="8" result="effect1_foregroundBlur"/>
</filter>
</defs>
</svg>
