<svg width="58" height="58" viewBox="0 0 58 58" fill="none" xmlns="http://www.w3.org/2000/svg">
<mask id="mask0" mask-type="alpha" maskUnits="userSpaceOnUse" x="0" y="0" width="58" height="58">
<path d="M5.03711 4.54102C5.03711 5 4.9834 5.40527 4.87598 5.75684C4.77181 6.10514 4.62044 6.39811 4.42188 6.63574C4.22331 6.87012 3.98079 7.04753 3.69434 7.16797C3.40788 7.28841 3.08561 7.34863 2.72754 7.34863C2.37272 7.34863 2.05208 7.28841 1.76562 7.16797C1.47917 7.04753 1.23503 6.87012 1.0332 6.63574C0.834635 6.39811 0.680013 6.10514 0.569336 5.75684C0.461914 5.40527 0.408203 5 0.408203 4.54102V2.8418C0.408203 2.38281 0.461914 1.97917 0.569336 1.63086C0.676758 1.2793 0.829753 0.986328 1.02832 0.751953C1.23014 0.514323 1.47266 0.335286 1.75586 0.214844C2.04232 0.094401 2.36296 0.0341797 2.71777 0.0341797C3.07585 0.0341797 3.39811 0.094401 3.68457 0.214844C3.97103 0.335286 4.21354 0.514323 4.41211 0.751953C4.61393 0.986328 4.76855 1.2793 4.87598 1.63086C4.9834 1.97917 5.03711 2.38281 5.03711 2.8418V4.54102ZM1.58008 4.09668L3.85547 2.40234C3.82943 1.91732 3.72201 1.55924 3.5332 1.32812C3.34766 1.09375 3.07585 0.976562 2.71777 0.976562C2.33691 0.976562 2.05208 1.11165 1.86328 1.38184C1.67448 1.65202 1.58008 2.06706 1.58008 2.62695V4.09668ZM3.86523 3.32031L1.58984 5.01465C1.64844 5.94564 2.02767 6.41113 2.72754 6.41113C3.486 6.41113 3.86523 5.85612 3.86523 4.74609V3.32031Z" fill="white"/>
<path d="M10.1367 7.24609H8.95996V1.57715L7.14355 2.24121V1.21582L10.0635 0.136719H10.1367V7.24609Z" fill="white"/>
<path d="M18.0488 4.54102C18.0488 5 17.9951 5.40527 17.8877 5.75684C17.7835 6.10514 17.6322 6.39811 17.4336 6.63574C17.235 6.87012 16.9925 7.04753 16.7061 7.16797C16.4196 7.28841 16.0973 7.34863 15.7393 7.34863C15.3844 7.34863 15.0638 7.28841 14.7773 7.16797C14.4909 7.04753 14.2467 6.87012 14.0449 6.63574C13.8464 6.39811 13.6917 6.10514 13.5811 5.75684C13.4736 5.40527 13.4199 5 13.4199 4.54102V2.8418C13.4199 2.38281 13.4736 1.97917 13.5811 1.63086C13.6885 1.2793 13.8415 0.986328 14.04 0.751953C14.2419 0.514323 14.4844 0.335286 14.7676 0.214844C15.054 0.094401 15.3747 0.0341797 15.7295 0.0341797C16.0876 0.0341797 16.4098 0.094401 16.6963 0.214844C16.9827 0.335286 17.2253 0.514323 17.4238 0.751953C17.6257 0.986328 17.7803 1.2793 17.8877 1.63086C17.9951 1.97917 18.0488 2.38281 18.0488 2.8418V4.54102ZM14.5918 4.09668L16.8672 2.40234C16.8411 1.91732 16.7337 1.55924 16.5449 1.32812C16.3594 1.09375 16.0876 0.976562 15.7295 0.976562C15.3486 0.976562 15.0638 1.11165 14.875 1.38184C14.6862 1.65202 14.5918 2.06706 14.5918 2.62695V4.09668ZM16.877 3.32031L14.6016 5.01465C14.6602 5.94564 15.0394 6.41113 15.7393 6.41113C16.4977 6.41113 16.877 5.85612 16.877 4.74609V3.32031Z" fill="white"/>
<path d="M24.5547 4.54102C24.5547 5 24.501 5.40527 24.3936 5.75684C24.2894 6.10514 24.138 6.39811 23.9395 6.63574C23.7409 6.87012 23.4984 7.04753 23.2119 7.16797C22.9255 7.28841 22.6032 7.34863 22.2451 7.34863C21.8903 7.34863 21.5697 7.28841 21.2832 7.16797C20.9967 7.04753 20.7526 6.87012 20.5508 6.63574C20.3522 6.39811 20.1976 6.10514 20.0869 5.75684C19.9795 5.40527 19.9258 5 19.9258 4.54102V2.8418C19.9258 2.38281 19.9795 1.97917 20.0869 1.63086C20.1943 1.2793 20.3473 0.986328 20.5459 0.751953C20.7477 0.514323 20.9902 0.335286 21.2734 0.214844C21.5599 0.094401 21.8805 0.0341797 22.2354 0.0341797C22.5934 0.0341797 22.9157 0.094401 23.2021 0.214844C23.4886 0.335286 23.7311 0.514323 23.9297 0.751953C24.1315 0.986328 24.2861 1.2793 24.3936 1.63086C24.501 1.97917 24.5547 2.38281 24.5547 2.8418V4.54102ZM21.0977 4.09668L23.373 2.40234C23.347 1.91732 23.2396 1.55924 23.0508 1.32812C22.8652 1.09375 22.5934 0.976562 22.2354 0.976562C21.8545 0.976562 21.5697 1.11165 21.3809 1.38184C21.1921 1.65202 21.0977 2.06706 21.0977 2.62695V4.09668ZM23.3828 3.32031L21.1074 5.01465C21.166 5.94564 21.5452 6.41113 22.2451 6.41113C23.0036 6.41113 23.3828 5.85612 23.3828 4.74609V3.32031Z" fill="white"/>
<path d="M29.6543 7.24609H28.4775V1.57715L26.6611 2.24121V1.21582L29.5811 0.136719H29.6543V7.24609Z" fill="white"/>
<path d="M37.5664 4.54102C37.5664 5 37.5127 5.40527 37.4053 5.75684C37.3011 6.10514 37.1497 6.39811 36.9512 6.63574C36.7526 6.87012 36.5101 7.04753 36.2236 7.16797C35.9372 7.28841 35.6149 7.34863 35.2568 7.34863C34.902 7.34863 34.5814 7.28841 34.2949 7.16797C34.0085 7.04753 33.7643 6.87012 33.5625 6.63574C33.3639 6.39811 33.2093 6.10514 33.0986 5.75684C32.9912 5.40527 32.9375 5 32.9375 4.54102V2.8418C32.9375 2.38281 32.9912 1.97917 33.0986 1.63086C33.2061 1.2793 33.3591 0.986328 33.5576 0.751953C33.7594 0.514323 34.002 0.335286 34.2852 0.214844C34.5716 0.094401 34.8923 0.0341797 35.2471 0.0341797C35.6051 0.0341797 35.9274 0.094401 36.2139 0.214844C36.5003 0.335286 36.7428 0.514323 36.9414 0.751953C37.1432 0.986328 37.2979 1.2793 37.4053 1.63086C37.5127 1.97917 37.5664 2.38281 37.5664 2.8418V4.54102ZM34.1094 4.09668L36.3848 2.40234C36.3587 1.91732 36.2513 1.55924 36.0625 1.32812C35.877 1.09375 35.6051 0.976562 35.2471 0.976562C34.8662 0.976562 34.5814 1.11165 34.3926 1.38184C34.2038 1.65202 34.1094 2.06706 34.1094 2.62695V4.09668ZM36.3945 3.32031L34.1191 5.01465C34.1777 5.94564 34.557 6.41113 35.2568 6.41113C36.0153 6.41113 36.3945 5.85612 36.3945 4.74609V3.32031Z" fill="white"/>
<path d="M42.666 7.24609H41.4893V1.57715L39.6729 2.24121V1.21582L42.5928 0.136719H42.666V7.24609Z" fill="white"/>
<path d="M50.5781 4.54102C50.5781 5 50.5244 5.40527 50.417 5.75684C50.3128 6.10514 50.1615 6.39811 49.9629 6.63574C49.7643 6.87012 49.5218 7.04753 49.2354 7.16797C48.9489 7.28841 48.6266 7.34863 48.2686 7.34863C47.9137 7.34863 47.5931 7.28841 47.3066 7.16797C47.0202 7.04753 46.776 6.87012 46.5742 6.63574C46.3757 6.39811 46.221 6.10514 46.1104 5.75684C46.0029 5.40527 45.9492 5 45.9492 4.54102V2.8418C45.9492 2.38281 46.0029 1.97917 46.1104 1.63086C46.2178 1.2793 46.3708 0.986328 46.5693 0.751953C46.7712 0.514323 47.0137 0.335286 47.2969 0.214844C47.5833 0.094401 47.904 0.0341797 48.2588 0.0341797C48.6169 0.0341797 48.9391 0.094401 49.2256 0.214844C49.512 0.335286 49.7546 0.514323 49.9531 0.751953C50.1549 0.986328 50.3096 1.2793 50.417 1.63086C50.5244 1.97917 50.5781 2.38281 50.5781 2.8418V4.54102ZM47.1211 4.09668L49.3965 2.40234C49.3704 1.91732 49.263 1.55924 49.0742 1.32812C48.8887 1.09375 48.6169 0.976562 48.2588 0.976562C47.8779 0.976562 47.5931 1.11165 47.4043 1.38184C47.2155 1.65202 47.1211 2.06706 47.1211 2.62695V4.09668ZM49.4062 3.32031L47.1309 5.01465C47.1895 5.94564 47.5687 6.41113 48.2686 6.41113C49.027 6.41113 49.4062 5.85612 49.4062 4.74609V3.32031Z" fill="white"/>
<path d="M55.6777 7.24609H54.501V1.57715L52.6846 2.24121V1.21582L55.6045 0.136719H55.6777V7.24609Z" fill="white"/>
<path d="M3.63086 17.2461H2.4541V11.5771L0.637695 12.2412V11.2158L3.55762 10.1367H3.63086V17.2461Z" fill="white"/>
<path d="M10.1367 17.2461H8.95996V11.5771L7.14355 12.2412V11.2158L10.0635 10.1367H10.1367V17.2461Z" fill="white"/>
<path d="M16.6426 17.2461H15.4658V11.5771L13.6494 12.2412V11.2158L16.5693 10.1367H16.6426V17.2461Z" fill="white"/>
<path d="M24.5547 14.541C24.5547 15 24.501 15.4053 24.3936 15.7568C24.2894 16.1051 24.138 16.3981 23.9395 16.6357C23.7409 16.8701 23.4984 17.0475 23.2119 17.168C22.9255 17.2884 22.6032 17.3486 22.2451 17.3486C21.8903 17.3486 21.5697 17.2884 21.2832 17.168C20.9967 17.0475 20.7526 16.8701 20.5508 16.6357C20.3522 16.3981 20.1976 16.1051 20.0869 15.7568C19.9795 15.4053 19.9258 15 19.9258 14.541V12.8418C19.9258 12.3828 19.9795 11.9792 20.0869 11.6309C20.1943 11.2793 20.3473 10.9863 20.5459 10.752C20.7477 10.5143 20.9902 10.3353 21.2734 10.2148C21.5599 10.0944 21.8805 10.0342 22.2354 10.0342C22.5934 10.0342 22.9157 10.0944 23.2021 10.2148C23.4886 10.3353 23.7311 10.5143 23.9297 10.752C24.1315 10.9863 24.2861 11.2793 24.3936 11.6309C24.501 11.9792 24.5547 12.3828 24.5547 12.8418V14.541ZM21.0977 14.0967L23.373 12.4023C23.347 11.9173 23.2396 11.5592 23.0508 11.3281C22.8652 11.0938 22.5934 10.9766 22.2354 10.9766C21.8545 10.9766 21.5697 11.1117 21.3809 11.3818C21.1921 11.652 21.0977 12.0671 21.0977 12.627V14.0967ZM23.3828 13.3203L21.1074 15.0146C21.166 15.9456 21.5452 16.4111 22.2451 16.4111C23.0036 16.4111 23.3828 15.8561 23.3828 14.7461V13.3203Z" fill="white"/>
<path d="M31.0605 14.541C31.0605 15 31.0068 15.4053 30.8994 15.7568C30.7952 16.1051 30.6439 16.3981 30.4453 16.6357C30.2467 16.8701 30.0042 17.0475 29.7178 17.168C29.4313 17.2884 29.109 17.3486 28.751 17.3486C28.3962 17.3486 28.0755 17.2884 27.7891 17.168C27.5026 17.0475 27.2585 16.8701 27.0566 16.6357C26.8581 16.3981 26.7035 16.1051 26.5928 15.7568C26.4854 15.4053 26.4316 15 26.4316 14.541V12.8418C26.4316 12.3828 26.4854 11.9792 26.5928 11.6309C26.7002 11.2793 26.8532 10.9863 27.0518 10.752C27.2536 10.5143 27.4961 10.3353 27.7793 10.2148C28.0658 10.0944 28.3864 10.0342 28.7412 10.0342C29.0993 10.0342 29.4215 10.0944 29.708 10.2148C29.9945 10.3353 30.237 10.5143 30.4355 10.752C30.6374 10.9863 30.792 11.2793 30.8994 11.6309C31.0068 11.9792 31.0605 12.3828 31.0605 12.8418V14.541ZM27.6035 14.0967L29.8789 12.4023C29.8529 11.9173 29.7454 11.5592 29.5566 11.3281C29.3711 11.0938 29.0993 10.9766 28.7412 10.9766C28.3604 10.9766 28.0755 11.1117 27.8867 11.3818C27.6979 11.652 27.6035 12.0671 27.6035 12.627V14.0967ZM29.8887 13.3203L27.6133 15.0146C27.6719 15.9456 28.0511 16.4111 28.751 16.4111C29.5094 16.4111 29.8887 15.8561 29.8887 14.7461V13.3203Z" fill="white"/>
<path d="M36.1602 17.2461H34.9834V11.5771L33.167 12.2412V11.2158L36.0869 10.1367H36.1602V17.2461Z" fill="white"/>
<path d="M44.0723 14.541C44.0723 15 44.0186 15.4053 43.9111 15.7568C43.807 16.1051 43.6556 16.3981 43.457 16.6357C43.2585 16.8701 43.0159 17.0475 42.7295 17.168C42.443 17.2884 42.1208 17.3486 41.7627 17.3486C41.4079 17.3486 41.0872 17.2884 40.8008 17.168C40.5143 17.0475 40.2702 16.8701 40.0684 16.6357C39.8698 16.3981 39.7152 16.1051 39.6045 15.7568C39.4971 15.4053 39.4434 15 39.4434 14.541V12.8418C39.4434 12.3828 39.4971 11.9792 39.6045 11.6309C39.7119 11.2793 39.8649 10.9863 40.0635 10.752C40.2653 10.5143 40.5078 10.3353 40.791 10.2148C41.0775 10.0944 41.3981 10.0342 41.7529 10.0342C42.111 10.0342 42.4333 10.0944 42.7197 10.2148C43.0062 10.3353 43.2487 10.5143 43.4473 10.752C43.6491 10.9863 43.8037 11.2793 43.9111 11.6309C44.0186 11.9792 44.0723 12.3828 44.0723 12.8418V14.541ZM40.6152 14.0967L42.8906 12.4023C42.8646 11.9173 42.7572 11.5592 42.5684 11.3281C42.3828 11.0938 42.111 10.9766 41.7529 10.9766C41.3721 10.9766 41.0872 11.1117 40.8984 11.3818C40.7096 11.652 40.6152 12.0671 40.6152 12.627V14.0967ZM42.9004 13.3203L40.625 15.0146C40.6836 15.9456 41.0628 16.4111 41.7627 16.4111C42.5212 16.4111 42.9004 15.8561 42.9004 14.7461V13.3203Z" fill="white"/>
<path d="M49.1719 17.2461H47.9951V11.5771L46.1787 12.2412V11.2158L49.0986 10.1367H49.1719V17.2461Z" fill="white"/>
<path d="M57.084 14.541C57.084 15 57.0303 15.4053 56.9229 15.7568C56.8187 16.1051 56.6673 16.3981 56.4688 16.6357C56.2702 16.8701 56.0277 17.0475 55.7412 17.168C55.4548 17.2884 55.1325 17.3486 54.7744 17.3486C54.4196 17.3486 54.099 17.2884 53.8125 17.168C53.526 17.0475 53.2819 16.8701 53.0801 16.6357C52.8815 16.3981 52.7269 16.1051 52.6162 15.7568C52.5088 15.4053 52.4551 15 52.4551 14.541V12.8418C52.4551 12.3828 52.5088 11.9792 52.6162 11.6309C52.7236 11.2793 52.8766 10.9863 53.0752 10.752C53.277 10.5143 53.5195 10.3353 53.8027 10.2148C54.0892 10.0944 54.4098 10.0342 54.7646 10.0342C55.1227 10.0342 55.445 10.0944 55.7314 10.2148C56.0179 10.3353 56.2604 10.5143 56.459 10.752C56.6608 10.9863 56.8154 11.2793 56.9229 11.6309C57.0303 11.9792 57.084 12.3828 57.084 12.8418V14.541ZM53.627 14.0967L55.9023 12.4023C55.8763 11.9173 55.7689 11.5592 55.5801 11.3281C55.3945 11.0938 55.1227 10.9766 54.7646 10.9766C54.3838 10.9766 54.099 11.1117 53.9102 11.3818C53.7214 11.652 53.627 12.0671 53.627 12.627V14.0967ZM55.9121 13.3203L53.6367 15.0146C53.6953 15.9456 54.0745 16.4111 54.7744 16.4111C55.5329 16.4111 55.9121 15.8561 55.9121 14.7461V13.3203Z" fill="white"/>
<path d="M3.63086 27.2461H2.4541V21.5771L0.637695 22.2412V21.2158L3.55762 20.1367H3.63086V27.2461Z" fill="white"/>
<path d="M11.543 24.541C11.543 25 11.4893 25.4053 11.3818 25.7568C11.2777 26.1051 11.1263 26.3981 10.9277 26.6357C10.7292 26.8701 10.4867 27.0475 10.2002 27.168C9.91374 27.2884 9.59147 27.3486 9.2334 27.3486C8.87858 27.3486 8.55794 27.2884 8.27148 27.168C7.98503 27.0475 7.74089 26.8701 7.53906 26.6357C7.34049 26.3981 7.18587 26.1051 7.0752 25.7568C6.96777 25.4053 6.91406 25 6.91406 24.541V22.8418C6.91406 22.3828 6.96777 21.9792 7.0752 21.6309C7.18262 21.2793 7.33561 20.9863 7.53418 20.752C7.736 20.5143 7.97852 20.3353 8.26172 20.2148C8.54818 20.0944 8.86882 20.0342 9.22363 20.0342C9.58171 20.0342 9.90397 20.0944 10.1904 20.2148C10.4769 20.3353 10.7194 20.5143 10.918 20.752C11.1198 20.9863 11.2744 21.2793 11.3818 21.6309C11.4893 21.9792 11.543 22.3828 11.543 22.8418V24.541ZM8.08594 24.0967L10.3613 22.4023C10.3353 21.9173 10.2279 21.5592 10.0391 21.3281C9.85352 21.0938 9.58171 20.9766 9.22363 20.9766C8.84277 20.9766 8.55794 21.1117 8.36914 21.3818C8.18034 21.652 8.08594 22.0671 8.08594 22.627V24.0967ZM10.3711 23.3203L8.0957 25.0146C8.1543 25.9456 8.53353 26.4111 9.2334 26.4111C9.99186 26.4111 10.3711 25.8561 10.3711 24.7461V23.3203Z" fill="white"/>
<path d="M18.0488 24.541C18.0488 25 17.9951 25.4053 17.8877 25.7568C17.7835 26.1051 17.6322 26.3981 17.4336 26.6357C17.235 26.8701 16.9925 27.0475 16.7061 27.168C16.4196 27.2884 16.0973 27.3486 15.7393 27.3486C15.3844 27.3486 15.0638 27.2884 14.7773 27.168C14.4909 27.0475 14.2467 26.8701 14.0449 26.6357C13.8464 26.3981 13.6917 26.1051 13.5811 25.7568C13.4736 25.4053 13.4199 25 13.4199 24.541V22.8418C13.4199 22.3828 13.4736 21.9792 13.5811 21.6309C13.6885 21.2793 13.8415 20.9863 14.04 20.752C14.2419 20.5143 14.4844 20.3353 14.7676 20.2148C15.054 20.0944 15.3747 20.0342 15.7295 20.0342C16.0876 20.0342 16.4098 20.0944 16.6963 20.2148C16.9827 20.3353 17.2253 20.5143 17.4238 20.752C17.6257 20.9863 17.7803 21.2793 17.8877 21.6309C17.9951 21.9792 18.0488 22.3828 18.0488 22.8418V24.541ZM14.5918 24.0967L16.8672 22.4023C16.8411 21.9173 16.7337 21.5592 16.5449 21.3281C16.3594 21.0938 16.0876 20.9766 15.7295 20.9766C15.3486 20.9766 15.0638 21.1117 14.875 21.3818C14.6862 21.652 14.5918 22.0671 14.5918 22.627V24.0967ZM16.877 23.3203L14.6016 25.0146C14.6602 25.9456 15.0394 26.4111 15.7393 26.4111C16.4977 26.4111 16.877 25.8561 16.877 24.7461V23.3203Z" fill="white"/>
<path d="M23.1484 27.2461H21.9717V21.5771L20.1553 22.2412V21.2158L23.0752 20.1367H23.1484V27.2461Z" fill="white"/>
<path d="M29.6543 27.2461H28.4775V21.5771L26.6611 22.2412V21.2158L29.5811 20.1367H29.6543V27.2461Z" fill="white"/>
<path d="M37.5664 24.541C37.5664 25 37.5127 25.4053 37.4053 25.7568C37.3011 26.1051 37.1497 26.3981 36.9512 26.6357C36.7526 26.8701 36.5101 27.0475 36.2236 27.168C35.9372 27.2884 35.6149 27.3486 35.2568 27.3486C34.902 27.3486 34.5814 27.2884 34.2949 27.168C34.0085 27.0475 33.7643 26.8701 33.5625 26.6357C33.3639 26.3981 33.2093 26.1051 33.0986 25.7568C32.9912 25.4053 32.9375 25 32.9375 24.541V22.8418C32.9375 22.3828 32.9912 21.9792 33.0986 21.6309C33.2061 21.2793 33.3591 20.9863 33.5576 20.752C33.7594 20.5143 34.002 20.3353 34.2852 20.2148C34.5716 20.0944 34.8923 20.0342 35.2471 20.0342C35.6051 20.0342 35.9274 20.0944 36.2139 20.2148C36.5003 20.3353 36.7428 20.5143 36.9414 20.752C37.1432 20.9863 37.2979 21.2793 37.4053 21.6309C37.5127 21.9792 37.5664 22.3828 37.5664 22.8418V24.541ZM34.1094 24.0967L36.3848 22.4023C36.3587 21.9173 36.2513 21.5592 36.0625 21.3281C35.877 21.0938 35.6051 20.9766 35.2471 20.9766C34.8662 20.9766 34.5814 21.1117 34.3926 21.3818C34.2038 21.652 34.1094 22.0671 34.1094 22.627V24.0967ZM36.3945 23.3203L34.1191 25.0146C34.1777 25.9456 34.557 26.4111 35.2568 26.4111C36.0153 26.4111 36.3945 25.8561 36.3945 24.7461V23.3203Z" fill="white"/>
<path d="M42.666 27.2461H41.4893V21.5771L39.6729 22.2412V21.2158L42.5928 20.1367H42.666V27.2461Z" fill="white"/>
<path d="M49.1719 27.2461H47.9951V21.5771L46.1787 22.2412V21.2158L49.0986 20.1367H49.1719V27.2461Z" fill="white"/>
<path d="M57.084 24.541C57.084 25 57.0303 25.4053 56.9229 25.7568C56.8187 26.1051 56.6673 26.3981 56.4688 26.6357C56.2702 26.8701 56.0277 27.0475 55.7412 27.168C55.4548 27.2884 55.1325 27.3486 54.7744 27.3486C54.4196 27.3486 54.099 27.2884 53.8125 27.168C53.526 27.0475 53.2819 26.8701 53.0801 26.6357C52.8815 26.3981 52.7269 26.1051 52.6162 25.7568C52.5088 25.4053 52.4551 25 52.4551 24.541V22.8418C52.4551 22.3828 52.5088 21.9792 52.6162 21.6309C52.7236 21.2793 52.8766 20.9863 53.0752 20.752C53.277 20.5143 53.5195 20.3353 53.8027 20.2148C54.0892 20.0944 54.4098 20.0342 54.7646 20.0342C55.1227 20.0342 55.445 20.0944 55.7314 20.2148C56.0179 20.3353 56.2604 20.5143 56.459 20.752C56.6608 20.9863 56.8154 21.2793 56.9229 21.6309C57.0303 21.9792 57.084 22.3828 57.084 22.8418V24.541ZM53.627 24.0967L55.9023 22.4023C55.8763 21.9173 55.7689 21.5592 55.5801 21.3281C55.3945 21.0938 55.1227 20.9766 54.7646 20.9766C54.3838 20.9766 54.099 21.1117 53.9102 21.3818C53.7214 21.652 53.627 22.0671 53.627 22.627V24.0967ZM55.9121 23.3203L53.6367 25.0146C53.6953 25.9456 54.0745 26.4111 54.7744 26.4111C55.5329 26.4111 55.9121 25.8561 55.9121 24.7461V23.3203Z" fill="white"/>
<path d="M5.03711 34.541C5.03711 35 4.9834 35.4053 4.87598 35.7568C4.77181 36.1051 4.62044 36.3981 4.42188 36.6357C4.22331 36.8701 3.98079 37.0475 3.69434 37.168C3.40788 37.2884 3.08561 37.3486 2.72754 37.3486C2.37272 37.3486 2.05208 37.2884 1.76562 37.168C1.47917 37.0475 1.23503 36.8701 1.0332 36.6357C0.834635 36.3981 0.680013 36.1051 0.569336 35.7568C0.461914 35.4053 0.408203 35 0.408203 34.541V32.8418C0.408203 32.3828 0.461914 31.9792 0.569336 31.6309C0.676758 31.2793 0.829753 30.9863 1.02832 30.752C1.23014 30.5143 1.47266 30.3353 1.75586 30.2148C2.04232 30.0944 2.36296 30.0342 2.71777 30.0342C3.07585 30.0342 3.39811 30.0944 3.68457 30.2148C3.97103 30.3353 4.21354 30.5143 4.41211 30.752C4.61393 30.9863 4.76855 31.2793 4.87598 31.6309C4.9834 31.9792 5.03711 32.3828 5.03711 32.8418V34.541ZM1.58008 34.0967L3.85547 32.4023C3.82943 31.9173 3.72201 31.5592 3.5332 31.3281C3.34766 31.0938 3.07585 30.9766 2.71777 30.9766C2.33691 30.9766 2.05208 31.1117 1.86328 31.3818C1.67448 31.652 1.58008 32.0671 1.58008 32.627V34.0967ZM3.86523 33.3203L1.58984 35.0146C1.64844 35.9456 2.02767 36.4111 2.72754 36.4111C3.486 36.4111 3.86523 35.8561 3.86523 34.7461V33.3203Z" fill="white"/>
<path d="M10.1367 37.2461H8.95996V31.5771L7.14355 32.2412V31.2158L10.0635 30.1367H10.1367V37.2461Z" fill="white"/>
<path d="M18.0488 34.541C18.0488 35 17.9951 35.4053 17.8877 35.7568C17.7835 36.1051 17.6322 36.3981 17.4336 36.6357C17.235 36.8701 16.9925 37.0475 16.7061 37.168C16.4196 37.2884 16.0973 37.3486 15.7393 37.3486C15.3844 37.3486 15.0638 37.2884 14.7773 37.168C14.4909 37.0475 14.2467 36.8701 14.0449 36.6357C13.8464 36.3981 13.6917 36.1051 13.5811 35.7568C13.4736 35.4053 13.4199 35 13.4199 34.541V32.8418C13.4199 32.3828 13.4736 31.9792 13.5811 31.6309C13.6885 31.2793 13.8415 30.9863 14.04 30.752C14.2419 30.5143 14.4844 30.3353 14.7676 30.2148C15.054 30.0944 15.3747 30.0342 15.7295 30.0342C16.0876 30.0342 16.4098 30.0944 16.6963 30.2148C16.9827 30.3353 17.2253 30.5143 17.4238 30.752C17.6257 30.9863 17.7803 31.2793 17.8877 31.6309C17.9951 31.9792 18.0488 32.3828 18.0488 32.8418V34.541ZM14.5918 34.0967L16.8672 32.4023C16.8411 31.9173 16.7337 31.5592 16.5449 31.3281C16.3594 31.0938 16.0876 30.9766 15.7295 30.9766C15.3486 30.9766 15.0638 31.1117 14.875 31.3818C14.6862 31.652 14.5918 32.0671 14.5918 32.627V34.0967ZM16.877 33.3203L14.6016 35.0146C14.6602 35.9456 15.0394 36.4111 15.7393 36.4111C16.4977 36.4111 16.877 35.8561 16.877 34.7461V33.3203Z" fill="white"/>
<path d="M24.5547 34.541C24.5547 35 24.501 35.4053 24.3936 35.7568C24.2894 36.1051 24.138 36.3981 23.9395 36.6357C23.7409 36.8701 23.4984 37.0475 23.2119 37.168C22.9255 37.2884 22.6032 37.3486 22.2451 37.3486C21.8903 37.3486 21.5697 37.2884 21.2832 37.168C20.9967 37.0475 20.7526 36.8701 20.5508 36.6357C20.3522 36.3981 20.1976 36.1051 20.0869 35.7568C19.9795 35.4053 19.9258 35 19.9258 34.541V32.8418C19.9258 32.3828 19.9795 31.9792 20.0869 31.6309C20.1943 31.2793 20.3473 30.9863 20.5459 30.752C20.7477 30.5143 20.9902 30.3353 21.2734 30.2148C21.5599 30.0944 21.8805 30.0342 22.2354 30.0342C22.5934 30.0342 22.9157 30.0944 23.2021 30.2148C23.4886 30.3353 23.7311 30.5143 23.9297 30.752C24.1315 30.9863 24.2861 31.2793 24.3936 31.6309C24.501 31.9792 24.5547 32.3828 24.5547 32.8418V34.541ZM21.0977 34.0967L23.373 32.4023C23.347 31.9173 23.2396 31.5592 23.0508 31.3281C22.8652 31.0938 22.5934 30.9766 22.2354 30.9766C21.8545 30.9766 21.5697 31.1117 21.3809 31.3818C21.1921 31.652 21.0977 32.0671 21.0977 32.627V34.0967ZM23.3828 33.3203L21.1074 35.0146C21.166 35.9456 21.5452 36.4111 22.2451 36.4111C23.0036 36.4111 23.3828 35.8561 23.3828 34.7461V33.3203Z" fill="white"/>
<path d="M29.6543 37.2461H28.4775V31.5771L26.6611 32.2412V31.2158L29.5811 30.1367H29.6543V37.2461Z" fill="white"/>
<path d="M36.1602 37.2461H34.9834V31.5771L33.167 32.2412V31.2158L36.0869 30.1367H36.1602V37.2461Z" fill="white"/>
<path d="M44.0723 34.541C44.0723 35 44.0186 35.4053 43.9111 35.7568C43.807 36.1051 43.6556 36.3981 43.457 36.6357C43.2585 36.8701 43.0159 37.0475 42.7295 37.168C42.443 37.2884 42.1208 37.3486 41.7627 37.3486C41.4079 37.3486 41.0872 37.2884 40.8008 37.168C40.5143 37.0475 40.2702 36.8701 40.0684 36.6357C39.8698 36.3981 39.7152 36.1051 39.6045 35.7568C39.4971 35.4053 39.4434 35 39.4434 34.541V32.8418C39.4434 32.3828 39.4971 31.9792 39.6045 31.6309C39.7119 31.2793 39.8649 30.9863 40.0635 30.752C40.2653 30.5143 40.5078 30.3353 40.791 30.2148C41.0775 30.0944 41.3981 30.0342 41.7529 30.0342C42.111 30.0342 42.4333 30.0944 42.7197 30.2148C43.0062 30.3353 43.2487 30.5143 43.4473 30.752C43.6491 30.9863 43.8037 31.2793 43.9111 31.6309C44.0186 31.9792 44.0723 32.3828 44.0723 32.8418V34.541ZM40.6152 34.0967L42.8906 32.4023C42.8646 31.9173 42.7572 31.5592 42.5684 31.3281C42.3828 31.0938 42.111 30.9766 41.7529 30.9766C41.3721 30.9766 41.0872 31.1117 40.8984 31.3818C40.7096 31.652 40.6152 32.0671 40.6152 32.627V34.0967ZM42.9004 33.3203L40.625 35.0146C40.6836 35.9456 41.0628 36.4111 41.7627 36.4111C42.5212 36.4111 42.9004 35.8561 42.9004 34.7461V33.3203Z" fill="white"/>
<path d="M50.5781 34.541C50.5781 35 50.5244 35.4053 50.417 35.7568C50.3128 36.1051 50.1615 36.3981 49.9629 36.6357C49.7643 36.8701 49.5218 37.0475 49.2354 37.168C48.9489 37.2884 48.6266 37.3486 48.2686 37.3486C47.9137 37.3486 47.5931 37.2884 47.3066 37.168C47.0202 37.0475 46.776 36.8701 46.5742 36.6357C46.3757 36.3981 46.221 36.1051 46.1104 35.7568C46.0029 35.4053 45.9492 35 45.9492 34.541V32.8418C45.9492 32.3828 46.0029 31.9792 46.1104 31.6309C46.2178 31.2793 46.3708 30.9863 46.5693 30.752C46.7712 30.5143 47.0137 30.3353 47.2969 30.2148C47.5833 30.0944 47.904 30.0342 48.2588 30.0342C48.6169 30.0342 48.9391 30.0944 49.2256 30.2148C49.512 30.3353 49.7546 30.5143 49.9531 30.752C50.1549 30.9863 50.3096 31.2793 50.417 31.6309C50.5244 31.9792 50.5781 32.3828 50.5781 32.8418V34.541ZM47.1211 34.0967L49.3965 32.4023C49.3704 31.9173 49.263 31.5592 49.0742 31.3281C48.8887 31.0938 48.6169 30.9766 48.2588 30.9766C47.8779 30.9766 47.5931 31.1117 47.4043 31.3818C47.2155 31.652 47.1211 32.0671 47.1211 32.627V34.0967ZM49.4062 33.3203L47.1309 35.0146C47.1895 35.9456 47.5687 36.4111 48.2686 36.4111C49.027 36.4111 49.4062 35.8561 49.4062 34.7461V33.3203Z" fill="white"/>
<path d="M55.6777 37.2461H54.501V31.5771L52.6846 32.2412V31.2158L55.6045 30.1367H55.6777V37.2461Z" fill="white"/>
<path d="M3.63086 47.2461H2.4541V41.5771L0.637695 42.2412V41.2158L3.55762 40.1367H3.63086V47.2461Z" fill="white"/>
<path d="M11.543 44.541C11.543 45 11.4893 45.4053 11.3818 45.7568C11.2777 46.1051 11.1263 46.3981 10.9277 46.6357C10.7292 46.8701 10.4867 47.0475 10.2002 47.168C9.91374 47.2884 9.59147 47.3486 9.2334 47.3486C8.87858 47.3486 8.55794 47.2884 8.27148 47.168C7.98503 47.0475 7.74089 46.8701 7.53906 46.6357C7.34049 46.3981 7.18587 46.1051 7.0752 45.7568C6.96777 45.4053 6.91406 45 6.91406 44.541V42.8418C6.91406 42.3828 6.96777 41.9792 7.0752 41.6309C7.18262 41.2793 7.33561 40.9863 7.53418 40.752C7.736 40.5143 7.97852 40.3353 8.26172 40.2148C8.54818 40.0944 8.86882 40.0342 9.22363 40.0342C9.58171 40.0342 9.90397 40.0944 10.1904 40.2148C10.4769 40.3353 10.7194 40.5143 10.918 40.752C11.1198 40.9863 11.2744 41.2793 11.3818 41.6309C11.4893 41.9792 11.543 42.3828 11.543 42.8418V44.541ZM8.08594 44.0967L10.3613 42.4023C10.3353 41.9173 10.2279 41.5592 10.0391 41.3281C9.85352 41.0938 9.58171 40.9766 9.22363 40.9766C8.84277 40.9766 8.55794 41.1117 8.36914 41.3818C8.18034 41.652 8.08594 42.0671 8.08594 42.627V44.0967ZM10.3711 43.3203L8.0957 45.0146C8.1543 45.9456 8.53353 46.4111 9.2334 46.4111C9.99186 46.4111 10.3711 45.8561 10.3711 44.7461V43.3203Z" fill="white"/>
<path d="M16.6426 47.2461H15.4658V41.5771L13.6494 42.2412V41.2158L16.5693 40.1367H16.6426V47.2461Z" fill="white"/>
<path d="M24.5547 44.541C24.5547 45 24.501 45.4053 24.3936 45.7568C24.2894 46.1051 24.138 46.3981 23.9395 46.6357C23.7409 46.8701 23.4984 47.0475 23.2119 47.168C22.9255 47.2884 22.6032 47.3486 22.2451 47.3486C21.8903 47.3486 21.5697 47.2884 21.2832 47.168C20.9967 47.0475 20.7526 46.8701 20.5508 46.6357C20.3522 46.3981 20.1976 46.1051 20.0869 45.7568C19.9795 45.4053 19.9258 45 19.9258 44.541V42.8418C19.9258 42.3828 19.9795 41.9792 20.0869 41.6309C20.1943 41.2793 20.3473 40.9863 20.5459 40.752C20.7477 40.5143 20.9902 40.3353 21.2734 40.2148C21.5599 40.0944 21.8805 40.0342 22.2354 40.0342C22.5934 40.0342 22.9157 40.0944 23.2021 40.2148C23.4886 40.3353 23.7311 40.5143 23.9297 40.752C24.1315 40.9863 24.2861 41.2793 24.3936 41.6309C24.501 41.9792 24.5547 42.3828 24.5547 42.8418V44.541ZM21.0977 44.0967L23.373 42.4023C23.347 41.9173 23.2396 41.5592 23.0508 41.3281C22.8652 41.0938 22.5934 40.9766 22.2354 40.9766C21.8545 40.9766 21.5697 41.1117 21.3809 41.3818C21.1921 41.652 21.0977 42.0671 21.0977 42.627V44.0967ZM23.3828 43.3203L21.1074 45.0146C21.166 45.9456 21.5452 46.4111 22.2451 46.4111C23.0036 46.4111 23.3828 45.8561 23.3828 44.7461V43.3203Z" fill="white"/>
<path d="M29.6543 47.2461H28.4775V41.5771L26.6611 42.2412V41.2158L29.5811 40.1367H29.6543V47.2461Z" fill="white"/>
<path d="M37.5664 44.541C37.5664 45 37.5127 45.4053 37.4053 45.7568C37.3011 46.1051 37.1497 46.3981 36.9512 46.6357C36.7526 46.8701 36.5101 47.0475 36.2236 47.168C35.9372 47.2884 35.6149 47.3486 35.2568 47.3486C34.902 47.3486 34.5814 47.2884 34.2949 47.168C34.0085 47.0475 33.7643 46.8701 33.5625 46.6357C33.3639 46.3981 33.2093 46.1051 33.0986 45.7568C32.9912 45.4053 32.9375 45 32.9375 44.541V42.8418C32.9375 42.3828 32.9912 41.9792 33.0986 41.6309C33.2061 41.2793 33.3591 40.9863 33.5576 40.752C33.7594 40.5143 34.002 40.3353 34.2852 40.2148C34.5716 40.0944 34.8923 40.0342 35.2471 40.0342C35.6051 40.0342 35.9274 40.0944 36.2139 40.2148C36.5003 40.3353 36.7428 40.5143 36.9414 40.752C37.1432 40.9863 37.2979 41.2793 37.4053 41.6309C37.5127 41.9792 37.5664 42.3828 37.5664 42.8418V44.541ZM34.1094 44.0967L36.3848 42.4023C36.3587 41.9173 36.2513 41.5592 36.0625 41.3281C35.877 41.0938 35.6051 40.9766 35.2471 40.9766C34.8662 40.9766 34.5814 41.1117 34.3926 41.3818C34.2038 41.652 34.1094 42.0671 34.1094 42.627V44.0967ZM36.3945 43.3203L34.1191 45.0146C34.1777 45.9456 34.557 46.4111 35.2568 46.4111C36.0153 46.4111 36.3945 45.8561 36.3945 44.7461V43.3203Z" fill="white"/>
<path d="M42.666 47.2461H41.4893V41.5771L39.6729 42.2412V41.2158L42.5928 40.1367H42.666V47.2461Z" fill="white"/>
<path d="M50.5781 44.541C50.5781 45 50.5244 45.4053 50.417 45.7568C50.3128 46.1051 50.1615 46.3981 49.9629 46.6357C49.7643 46.8701 49.5218 47.0475 49.2354 47.168C48.9489 47.2884 48.6266 47.3486 48.2686 47.3486C47.9137 47.3486 47.5931 47.2884 47.3066 47.168C47.0202 47.0475 46.776 46.8701 46.5742 46.6357C46.3757 46.3981 46.221 46.1051 46.1104 45.7568C46.0029 45.4053 45.9492 45 45.9492 44.541V42.8418C45.9492 42.3828 46.0029 41.9792 46.1104 41.6309C46.2178 41.2793 46.3708 40.9863 46.5693 40.752C46.7712 40.5143 47.0137 40.3353 47.2969 40.2148C47.5833 40.0944 47.904 40.0342 48.2588 40.0342C48.6169 40.0342 48.9391 40.0944 49.2256 40.2148C49.512 40.3353 49.7546 40.5143 49.9531 40.752C50.1549 40.9863 50.3096 41.2793 50.417 41.6309C50.5244 41.9792 50.5781 42.3828 50.5781 42.8418V44.541ZM47.1211 44.0967L49.3965 42.4023C49.3704 41.9173 49.263 41.5592 49.0742 41.3281C48.8887 41.0938 48.6169 40.9766 48.2588 40.9766C47.8779 40.9766 47.5931 41.1117 47.4043 41.3818C47.2155 41.652 47.1211 42.0671 47.1211 42.627V44.0967ZM49.4062 43.3203L47.1309 45.0146C47.1895 45.9456 47.5687 46.4111 48.2686 46.4111C49.027 46.4111 49.4062 45.8561 49.4062 44.7461V43.3203Z" fill="white"/>
<path d="M57.084 44.541C57.084 45 57.0303 45.4053 56.9229 45.7568C56.8187 46.1051 56.6673 46.3981 56.4688 46.6357C56.2702 46.8701 56.0277 47.0475 55.7412 47.168C55.4548 47.2884 55.1325 47.3486 54.7744 47.3486C54.4196 47.3486 54.099 47.2884 53.8125 47.168C53.526 47.0475 53.2819 46.8701 53.0801 46.6357C52.8815 46.3981 52.7269 46.1051 52.6162 45.7568C52.5088 45.4053 52.4551 45 52.4551 44.541V42.8418C52.4551 42.3828 52.5088 41.9792 52.6162 41.6309C52.7236 41.2793 52.8766 40.9863 53.0752 40.752C53.277 40.5143 53.5195 40.3353 53.8027 40.2148C54.0892 40.0944 54.4098 40.0342 54.7646 40.0342C55.1227 40.0342 55.445 40.0944 55.7314 40.2148C56.0179 40.3353 56.2604 40.5143 56.459 40.752C56.6608 40.9863 56.8154 41.2793 56.9229 41.6309C57.0303 41.9792 57.084 42.3828 57.084 42.8418V44.541ZM53.627 44.0967L55.9023 42.4023C55.8763 41.9173 55.7689 41.5592 55.5801 41.3281C55.3945 41.0938 55.1227 40.9766 54.7646 40.9766C54.3838 40.9766 54.099 41.1117 53.9102 41.3818C53.7214 41.652 53.627 42.0671 53.627 42.627V44.0967ZM55.9121 43.3203L53.6367 45.0146C53.6953 45.9456 54.0745 46.4111 54.7744 46.4111C55.5329 46.4111 55.9121 45.8561 55.9121 44.7461V43.3203Z" fill="white"/>
<path d="M3.63086 57.2461H2.4541V51.5771L0.637695 52.2412V51.2158L3.55762 50.1367H3.63086V57.2461Z" fill="white"/>
<path d="M10.1367 57.2461H8.95996V51.5771L7.14355 52.2412V51.2158L10.0635 50.1367H10.1367V57.2461Z" fill="white"/>
<path d="M18.0488 54.541C18.0488 55 17.9951 55.4053 17.8877 55.7568C17.7835 56.1051 17.6322 56.3981 17.4336 56.6357C17.235 56.8701 16.9925 57.0475 16.7061 57.168C16.4196 57.2884 16.0973 57.3486 15.7393 57.3486C15.3844 57.3486 15.0638 57.2884 14.7773 57.168C14.4909 57.0475 14.2467 56.8701 14.0449 56.6357C13.8464 56.3981 13.6917 56.1051 13.5811 55.7568C13.4736 55.4053 13.4199 55 13.4199 54.541V52.8418C13.4199 52.3828 13.4736 51.9792 13.5811 51.6309C13.6885 51.2793 13.8415 50.9863 14.04 50.752C14.2419 50.5143 14.4844 50.3353 14.7676 50.2148C15.054 50.0944 15.3747 50.0342 15.7295 50.0342C16.0876 50.0342 16.4098 50.0944 16.6963 50.2148C16.9827 50.3353 17.2253 50.5143 17.4238 50.752C17.6257 50.9863 17.7803 51.2793 17.8877 51.6309C17.9951 51.9792 18.0488 52.3828 18.0488 52.8418V54.541ZM14.5918 54.0967L16.8672 52.4023C16.8411 51.9173 16.7337 51.5592 16.5449 51.3281C16.3594 51.0938 16.0876 50.9766 15.7295 50.9766C15.3486 50.9766 15.0638 51.1117 14.875 51.3818C14.6862 51.652 14.5918 52.0671 14.5918 52.627V54.0967ZM16.877 53.3203L14.6016 55.0146C14.6602 55.9456 15.0394 56.4111 15.7393 56.4111C16.4977 56.4111 16.877 55.8561 16.877 54.7461V53.3203Z" fill="white"/>
<path d="M23.1484 57.2461H21.9717V51.5771L20.1553 52.2412V51.2158L23.0752 50.1367H23.1484V57.2461Z" fill="white"/>
<path d="M29.6543 57.2461H28.4775V51.5771L26.6611 52.2412V51.2158L29.5811 50.1367H29.6543V57.2461Z" fill="white"/>
<path d="M37.5664 54.541C37.5664 55 37.5127 55.4053 37.4053 55.7568C37.3011 56.1051 37.1497 56.3981 36.9512 56.6357C36.7526 56.8701 36.5101 57.0475 36.2236 57.168C35.9372 57.2884 35.6149 57.3486 35.2568 57.3486C34.902 57.3486 34.5814 57.2884 34.2949 57.168C34.0085 57.0475 33.7643 56.8701 33.5625 56.6357C33.3639 56.3981 33.2093 56.1051 33.0986 55.7568C32.9912 55.4053 32.9375 55 32.9375 54.541V52.8418C32.9375 52.3828 32.9912 51.9792 33.0986 51.6309C33.2061 51.2793 33.3591 50.9863 33.5576 50.752C33.7594 50.5143 34.002 50.3353 34.2852 50.2148C34.5716 50.0944 34.8923 50.0342 35.2471 50.0342C35.6051 50.0342 35.9274 50.0944 36.2139 50.2148C36.5003 50.3353 36.7428 50.5143 36.9414 50.752C37.1432 50.9863 37.2979 51.2793 37.4053 51.6309C37.5127 51.9792 37.5664 52.3828 37.5664 52.8418V54.541ZM34.1094 54.0967L36.3848 52.4023C36.3587 51.9173 36.2513 51.5592 36.0625 51.3281C35.877 51.0938 35.6051 50.9766 35.2471 50.9766C34.8662 50.9766 34.5814 51.1117 34.3926 51.3818C34.2038 51.652 34.1094 52.0671 34.1094 52.627V54.0967ZM36.3945 53.3203L34.1191 55.0146C34.1777 55.9456 34.557 56.4111 35.2568 56.4111C36.0153 56.4111 36.3945 55.8561 36.3945 54.7461V53.3203Z" fill="white"/>
<path d="M44.0723 54.541C44.0723 55 44.0186 55.4053 43.9111 55.7568C43.807 56.1051 43.6556 56.3981 43.457 56.6357C43.2585 56.8701 43.0159 57.0475 42.7295 57.168C42.443 57.2884 42.1208 57.3486 41.7627 57.3486C41.4079 57.3486 41.0872 57.2884 40.8008 57.168C40.5143 57.0475 40.2702 56.8701 40.0684 56.6357C39.8698 56.3981 39.7152 56.1051 39.6045 55.7568C39.4971 55.4053 39.4434 55 39.4434 54.541V52.8418C39.4434 52.3828 39.4971 51.9792 39.6045 51.6309C39.7119 51.2793 39.8649 50.9863 40.0635 50.752C40.2653 50.5143 40.5078 50.3353 40.791 50.2148C41.0775 50.0944 41.3981 50.0342 41.7529 50.0342C42.111 50.0342 42.4333 50.0944 42.7197 50.2148C43.0062 50.3353 43.2487 50.5143 43.4473 50.752C43.6491 50.9863 43.8037 51.2793 43.9111 51.6309C44.0186 51.9792 44.0723 52.3828 44.0723 52.8418V54.541ZM40.6152 54.0967L42.8906 52.4023C42.8646 51.9173 42.7572 51.5592 42.5684 51.3281C42.3828 51.0938 42.111 50.9766 41.7529 50.9766C41.3721 50.9766 41.0872 51.1117 40.8984 51.3818C40.7096 51.652 40.6152 52.0671 40.6152 52.627V54.0967ZM42.9004 53.3203L40.625 55.0146C40.6836 55.9456 41.0628 56.4111 41.7627 56.4111C42.5212 56.4111 42.9004 55.8561 42.9004 54.7461V53.3203Z" fill="white"/>
<path d="M49.1719 57.2461H47.9951V51.5771L46.1787 52.2412V51.2158L49.0986 50.1367H49.1719V57.2461Z" fill="white"/>
<path d="M55.6777 57.2461H54.501V51.5771L52.6846 52.2412V51.2158L55.6045 50.1367H55.6777V57.2461Z" fill="white"/>
</mask>
<g mask="url(#mask0)">
<circle cx="28.7411" cy="28.7978" r="25.8232" fill="white"/>
</g>
</svg>
