<svg width="52" height="51" viewBox="0 0 52 51" fill="none" xmlns="http://www.w3.org/2000/svg">
<path fill-rule="evenodd" clip-rule="evenodd" d="M25.9198 3.03948C20.37 3.03948 14.9953 4.98247 10.7284 8.5313C6.46143 12.0801 3.57159 17.0108 2.56031 22.4678C1.54903 27.9247 2.48014 33.5635 5.19205 38.4056C7.73534 42.9467 11.6943 46.5183 16.4505 48.5853L21.5203 35.3748C19.8382 34.5121 18.4394 33.1697 17.5083 31.507C16.408 29.542 16.0302 27.2539 16.4407 25.0396C16.8511 22.8252 18.0238 20.8245 19.7553 19.3844C21.4868 17.9444 23.6678 17.156 25.9198 17.156C28.1719 17.156 30.3529 17.9444 32.0844 19.3844C33.8159 20.8245 34.9886 22.8252 35.399 25.0396C35.8095 27.2539 35.4317 29.542 34.3314 31.507C33.4003 33.1697 32.0015 34.5121 30.3194 35.3748L35.3892 48.5853C40.1454 46.5183 44.1044 42.9467 46.6476 38.4056C49.3596 33.5635 50.2907 27.9247 49.2794 22.4678C48.2681 17.0108 45.3783 12.0801 41.1113 8.5313C36.8444 4.98247 31.4697 3.03948 25.9198 3.03948ZM9.40735 6.943C14.0453 3.08558 19.8874 0.973633 25.9198 0.973633C31.9523 0.973633 37.7944 3.08558 42.4323 6.943C47.0703 10.8004 50.2114 16.1599 51.3106 22.0913C52.4099 28.0228 51.3978 34.1519 48.4501 39.4151C45.5023 44.6783 40.805 48.7434 35.1731 50.905C34.9174 51.0032 34.6331 50.9958 34.3828 50.8843C34.1326 50.7729 33.9368 50.5666 33.8387 50.3108L28.0405 35.2026C27.8361 34.67 28.1021 34.0726 28.6346 33.8682C30.2866 33.234 31.6643 32.0415 32.5289 30.4976C33.3935 28.9537 33.6903 27.1559 33.3678 25.4161C33.0453 23.6762 32.1239 22.1042 30.7634 20.9727C29.4029 19.8413 27.6893 19.2218 25.9198 19.2218C24.1504 19.2218 22.4367 19.8413 21.0763 20.9727C19.7158 22.1042 18.7944 23.6762 18.4719 25.4161C18.1494 27.1559 18.4462 28.9537 19.3108 30.4976C20.1753 32.0415 21.5531 33.234 23.205 33.8682C23.7376 34.0726 24.0036 34.67 23.7992 35.2026L18.001 50.3108C17.9029 50.5666 17.7071 50.7729 17.4569 50.8843C17.2066 50.9958 16.9223 51.0032 16.6666 50.905C11.0347 48.7434 6.33736 44.6783 3.38963 39.4151C0.441905 34.1519 -0.570167 28.0228 0.52905 22.0913C1.62827 16.1599 4.76939 10.8004 9.40735 6.943Z" fill="white"/>
</svg>
