<svg width="69" height="72" viewBox="0 0 69 72" fill="none" xmlns="http://www.w3.org/2000/svg">
<mask id="path-1-inside-1" fill="white">
<path d="M52.0984 51.0596L66.8677 36.2906C69.1045 34.0536 69.1045 30.4138 66.8675 28.1768C66.0787 27.3881 65.1153 26.8787 64.1007 26.6463C64.4486 25.8983 64.6328 25.0774 64.6328 24.2279C64.6328 22.6954 64.036 21.2547 62.9525 20.1712C62.1027 19.3212 61.0328 18.7723 59.8715 18.5746C60.5253 16.5827 60.0631 14.3015 58.4821 12.7205C57.6128 11.8514 56.5316 11.3217 55.4032 11.1281C55.5923 10.5543 55.692 9.94853 55.692 9.32688C55.692 7.79437 55.0951 6.35365 54.0116 5.27017C52.928 4.1867 51.4873 3.58986 49.9549 3.58986C48.9818 3.58986 48.0462 3.83127 47.2149 4.28457L47.068 4.12673C45.1589 2.07516 42.4566 0.898682 39.6545 0.898682H27.6994C26.8587 0.898682 26.177 1.58046 26.177 2.42115V4.41761C26.177 5.21659 26.3121 5.99442 26.5706 6.72581C25.882 6.4398 25.1369 6.28956 24.3688 6.28956C22.8363 6.28956 21.3956 6.8864 20.3119 7.96987C18.7301 9.5517 18.2684 11.8346 18.9237 13.8271C17.7944 14.0203 16.7117 14.5503 15.8417 15.4202C14.7582 16.5039 14.1613 17.9446 14.1613 19.4769C14.1613 20.0974 14.2607 20.7023 14.449 21.2748C13.2892 21.4731 12.2203 22.0217 11.3712 22.8709C9.62425 24.6179 9.24173 27.2208 10.2237 29.3425C9.18389 29.5801 8.22888 30.1038 7.45593 30.8766C5.21912 33.1134 5.21912 36.7532 7.45593 38.9901L10.4932 42.0273L0.940112 51.0596C0.345556 51.6542 0.345556 52.6182 0.940112 53.2129C1.23739 53.51 1.62706 53.6589 2.01658 53.6589C2.4061 53.6589 2.79578 53.5102 3.09305 53.2129L12.7905 44.0359C13.6452 44.5236 14.6151 44.7845 15.626 44.7845C17.1583 44.7845 18.599 44.1877 19.6827 43.1041C20.8599 41.927 21.4167 40.3611 21.3548 38.8158C21.4319 38.819 21.5091 38.8213 21.5863 38.8213C23.0552 38.8212 24.5248 38.2619 25.643 37.1437C26.7265 36.0601 27.3233 34.6194 27.3233 33.087C27.3233 33.0096 27.3207 32.9325 27.3177 32.8555C27.3939 32.8586 27.4702 32.861 27.5466 32.861C29.0156 32.861 30.485 32.3018 31.6033 31.1834C32.6868 30.0998 33.2836 28.6591 33.2836 27.1267C33.2836 27.0492 33.2811 26.9722 33.278 26.8952C33.3543 26.8982 33.4305 26.9007 33.5069 26.9007C34.9761 26.9007 36.4453 26.3414 37.5636 25.2231C39.6654 23.1213 39.7919 19.7812 37.9442 17.5298L48.0504 7.42357C48.559 6.91487 49.2348 6.63494 49.954 6.63494C50.6732 6.63494 51.3492 6.91487 51.8578 7.42357C52.3663 7.93213 52.6463 8.60796 52.6463 9.32718C52.6463 10.0463 52.3663 10.7224 51.8576 11.2308L50.3676 12.7208L44.9612 18.1272C44.3666 18.7218 44.3666 19.6858 44.9612 20.2805C45.2585 20.5776 45.6481 20.7265 46.0377 20.7265C46.4272 20.7265 46.8168 20.5778 47.1141 20.2805L52.5205 14.8741C53.5701 13.8244 55.2781 13.8243 56.3279 14.8739C57.3776 15.9238 57.3776 17.6316 56.3279 18.6815L54.8377 20.1717L50.9215 24.0879C50.327 24.6824 50.327 25.6464 50.9215 26.2411C51.2188 26.5382 51.6085 26.6871 51.998 26.6871C52.3875 26.6871 52.7772 26.5384 53.0745 26.2411L56.9907 22.3249C57.4992 21.8162 58.1752 21.5363 58.8943 21.5363C59.6135 21.5363 60.2895 21.8162 60.798 22.3249C61.3066 22.8335 61.5865 23.5093 61.5865 24.2285C61.5865 24.9476 61.3066 25.6237 60.7979 26.1321L58.7526 28.1775L56.8817 30.0483C56.2871 30.6429 56.2871 31.6069 56.8817 32.2016C57.179 32.4987 57.5686 32.6476 57.9582 32.6476C58.3477 32.6476 58.7373 32.4989 59.0346 32.2016L60.9069 30.3293C61.9567 29.2813 63.6637 29.2815 64.7129 30.3307C65.7627 31.3804 65.7627 33.0884 64.7129 34.1382L49.9437 48.9073C46.2351 52.616 41.3062 54.763 36.0649 54.9533C35.6797 54.9673 35.3137 55.127 35.0416 55.4004L21.3981 69.0943C20.8047 69.6899 20.8063 70.6539 21.4021 71.2474C21.6991 71.5433 22.0878 71.6914 22.4766 71.6914C22.867 71.6914 23.2578 71.5421 23.555 71.2435L33.5902 61.1713C36.1392 62.8066 39.1369 63.5841 42.1851 63.3826L50.0391 71.2368C50.3364 71.5339 50.7261 71.6828 51.1156 71.6828C51.5053 71.6828 51.8948 71.534 52.1921 71.2368C52.7866 70.6422 52.7866 69.6782 52.1921 69.0835L43.8415 60.732C43.5253 60.416 43.086 60.2545 42.6405 60.2911L42.1578 60.3306C39.9298 60.5133 37.7276 60.0253 35.8048 58.9478L36.7832 57.9658C42.5699 57.6089 47.9875 55.1707 52.0984 51.0596ZM17.5297 40.9511C17.0212 41.4598 16.345 41.7397 15.6261 41.7397C14.9069 41.7397 14.2309 41.4598 13.7225 40.9511L9.60872 36.8375C8.55904 35.7878 8.55904 34.0798 9.60872 33.0299C10.1173 32.5212 10.7934 32.2413 11.5125 32.2413C12.2316 32.2413 12.9077 32.5212 13.4161 33.0299L17.5299 37.1436C18.5794 38.1933 18.5794 39.9013 17.5297 40.9511ZM23.4904 34.9905C22.4405 36.0402 20.7322 36.0402 19.6828 34.9905L15.569 30.8767L13.5236 28.8312C12.4739 27.7815 12.4739 26.0735 13.5236 25.0238C14.0321 24.5151 14.7083 24.2352 15.4272 24.2352C16.1464 24.2352 16.8224 24.5151 17.3308 25.0238L23.4899 31.183C23.9986 31.6917 24.2787 32.3677 24.2787 33.0867C24.2787 33.8058 23.9988 34.4819 23.4904 34.9905ZM29.4507 29.03C28.4008 30.0795 26.6927 30.0797 25.6431 29.03L17.9938 21.3807C17.4853 20.8722 17.2054 20.1963 17.2054 19.4771C17.2054 18.758 17.4853 18.0819 17.994 17.5735C18.5188 17.0486 19.2084 16.7862 19.8976 16.7862C20.5865 16.7862 21.2753 17.0483 21.8 17.5723L25.2863 21.0586L29.4504 25.2226C29.9588 25.7312 30.2388 26.407 30.2388 27.1263C30.2392 27.8455 29.9592 28.5216 29.4507 29.03ZM35.4112 23.0695C34.3615 24.1192 32.6535 24.1192 31.6038 23.0695L23.9545 15.4202L23.9519 15.4178L22.4643 13.9302C21.4146 12.8804 21.4146 11.1725 22.4643 10.1227C22.9891 9.59767 23.6786 9.33525 24.368 9.33525C25.0574 9.33525 25.747 9.59767 26.2716 10.1227L35.4109 19.2619C35.9196 19.7704 36.1995 20.4464 36.1995 21.1655C36.1996 21.8848 35.9199 22.5611 35.4112 23.0695ZM35.8115 15.3565L31.6298 11.1748C32.104 11.276 32.5915 11.3297 33.0877 11.3296C33.0989 11.3296 33.1101 11.3296 33.1214 11.3296L37.2994 11.3099C38.1401 11.306 38.8187 10.6212 38.8147 9.78033C38.8108 8.94193 38.1299 8.26502 37.2924 8.26502C37.29 8.26502 37.2875 8.26502 37.2851 8.26502L33.1071 8.28466C33.1007 8.28466 33.0946 8.28466 33.0882 8.28466C32.0588 8.28466 31.0905 7.88509 30.3605 7.15856C29.6259 6.42732 29.2214 5.45405 29.2214 4.41746V3.94346H39.654C41.6138 3.94346 43.5036 4.76618 44.8388 6.20097L44.9008 6.26749L35.8115 15.3565Z"/>
</mask>
<path d="M52.0984 51.0596L66.8677 36.2906C69.1045 34.0536 69.1045 30.4138 66.8675 28.1768C66.0787 27.3881 65.1153 26.8787 64.1007 26.6463C64.4486 25.8983 64.6328 25.0774 64.6328 24.2279C64.6328 22.6954 64.036 21.2547 62.9525 20.1712C62.1027 19.3212 61.0328 18.7723 59.8715 18.5746C60.5253 16.5827 60.0631 14.3015 58.4821 12.7205C57.6128 11.8514 56.5316 11.3217 55.4032 11.1281C55.5923 10.5543 55.692 9.94853 55.692 9.32688C55.692 7.79437 55.0951 6.35365 54.0116 5.27017C52.928 4.1867 51.4873 3.58986 49.9549 3.58986C48.9818 3.58986 48.0462 3.83127 47.2149 4.28457L47.068 4.12673C45.1589 2.07516 42.4566 0.898682 39.6545 0.898682H27.6994C26.8587 0.898682 26.177 1.58046 26.177 2.42115V4.41761C26.177 5.21659 26.3121 5.99442 26.5706 6.72581C25.882 6.4398 25.1369 6.28956 24.3688 6.28956C22.8363 6.28956 21.3956 6.8864 20.3119 7.96987C18.7301 9.5517 18.2684 11.8346 18.9237 13.8271C17.7944 14.0203 16.7117 14.5503 15.8417 15.4202C14.7582 16.5039 14.1613 17.9446 14.1613 19.4769C14.1613 20.0974 14.2607 20.7023 14.449 21.2748C13.2892 21.4731 12.2203 22.0217 11.3712 22.8709C9.62425 24.6179 9.24173 27.2208 10.2237 29.3425C9.18389 29.5801 8.22888 30.1038 7.45593 30.8766C5.21912 33.1134 5.21912 36.7532 7.45593 38.9901L10.4932 42.0273L0.940112 51.0596C0.345556 51.6542 0.345556 52.6182 0.940112 53.2129C1.23739 53.51 1.62706 53.6589 2.01658 53.6589C2.4061 53.6589 2.79578 53.5102 3.09305 53.2129L12.7905 44.0359C13.6452 44.5236 14.6151 44.7845 15.626 44.7845C17.1583 44.7845 18.599 44.1877 19.6827 43.1041C20.8599 41.927 21.4167 40.3611 21.3548 38.8158C21.4319 38.819 21.5091 38.8213 21.5863 38.8213C23.0552 38.8212 24.5248 38.2619 25.643 37.1437C26.7265 36.0601 27.3233 34.6194 27.3233 33.087C27.3233 33.0096 27.3207 32.9325 27.3177 32.8555C27.3939 32.8586 27.4702 32.861 27.5466 32.861C29.0156 32.861 30.485 32.3018 31.6033 31.1834C32.6868 30.0998 33.2836 28.6591 33.2836 27.1267C33.2836 27.0492 33.2811 26.9722 33.278 26.8952C33.3543 26.8982 33.4305 26.9007 33.5069 26.9007C34.9761 26.9007 36.4453 26.3414 37.5636 25.2231C39.6654 23.1213 39.7919 19.7812 37.9442 17.5298L48.0504 7.42357C48.559 6.91487 49.2348 6.63494 49.954 6.63494C50.6732 6.63494 51.3492 6.91487 51.8578 7.42357C52.3663 7.93213 52.6463 8.60796 52.6463 9.32718C52.6463 10.0463 52.3663 10.7224 51.8576 11.2308L50.3676 12.7208L44.9612 18.1272C44.3666 18.7218 44.3666 19.6858 44.9612 20.2805C45.2585 20.5776 45.6481 20.7265 46.0377 20.7265C46.4272 20.7265 46.8168 20.5778 47.1141 20.2805L52.5205 14.8741C53.5701 13.8244 55.2781 13.8243 56.3279 14.8739C57.3776 15.9238 57.3776 17.6316 56.3279 18.6815L54.8377 20.1717L50.9215 24.0879C50.327 24.6824 50.327 25.6464 50.9215 26.2411C51.2188 26.5382 51.6085 26.6871 51.998 26.6871C52.3875 26.6871 52.7772 26.5384 53.0745 26.2411L56.9907 22.3249C57.4992 21.8162 58.1752 21.5363 58.8943 21.5363C59.6135 21.5363 60.2895 21.8162 60.798 22.3249C61.3066 22.8335 61.5865 23.5093 61.5865 24.2285C61.5865 24.9476 61.3066 25.6237 60.7979 26.1321L58.7526 28.1775L56.8817 30.0483C56.2871 30.6429 56.2871 31.6069 56.8817 32.2016C57.179 32.4987 57.5686 32.6476 57.9582 32.6476C58.3477 32.6476 58.7373 32.4989 59.0346 32.2016L60.9069 30.3293C61.9567 29.2813 63.6637 29.2815 64.7129 30.3307C65.7627 31.3804 65.7627 33.0884 64.7129 34.1382L49.9437 48.9073C46.2351 52.616 41.3062 54.763 36.0649 54.9533C35.6797 54.9673 35.3137 55.127 35.0416 55.4004L21.3981 69.0943C20.8047 69.6899 20.8063 70.6539 21.4021 71.2474C21.6991 71.5433 22.0878 71.6914 22.4766 71.6914C22.867 71.6914 23.2578 71.5421 23.555 71.2435L33.5902 61.1713C36.1392 62.8066 39.1369 63.5841 42.1851 63.3826L50.0391 71.2368C50.3364 71.5339 50.7261 71.6828 51.1156 71.6828C51.5053 71.6828 51.8948 71.534 52.1921 71.2368C52.7866 70.6422 52.7866 69.6782 52.1921 69.0835L43.8415 60.732C43.5253 60.416 43.086 60.2545 42.6405 60.2911L42.1578 60.3306C39.9298 60.5133 37.7276 60.0253 35.8048 58.9478L36.7832 57.9658C42.5699 57.6089 47.9875 55.1707 52.0984 51.0596ZM17.5297 40.9511C17.0212 41.4598 16.345 41.7397 15.6261 41.7397C14.9069 41.7397 14.2309 41.4598 13.7225 40.9511L9.60872 36.8375C8.55904 35.7878 8.55904 34.0798 9.60872 33.0299C10.1173 32.5212 10.7934 32.2413 11.5125 32.2413C12.2316 32.2413 12.9077 32.5212 13.4161 33.0299L17.5299 37.1436C18.5794 38.1933 18.5794 39.9013 17.5297 40.9511ZM23.4904 34.9905C22.4405 36.0402 20.7322 36.0402 19.6828 34.9905L15.569 30.8767L13.5236 28.8312C12.4739 27.7815 12.4739 26.0735 13.5236 25.0238C14.0321 24.5151 14.7083 24.2352 15.4272 24.2352C16.1464 24.2352 16.8224 24.5151 17.3308 25.0238L23.4899 31.183C23.9986 31.6917 24.2787 32.3677 24.2787 33.0867C24.2787 33.8058 23.9988 34.4819 23.4904 34.9905ZM29.4507 29.03C28.4008 30.0795 26.6927 30.0797 25.6431 29.03L17.9938 21.3807C17.4853 20.8722 17.2054 20.1963 17.2054 19.4771C17.2054 18.758 17.4853 18.0819 17.994 17.5735C18.5188 17.0486 19.2084 16.7862 19.8976 16.7862C20.5865 16.7862 21.2753 17.0483 21.8 17.5723L25.2863 21.0586L29.4504 25.2226C29.9588 25.7312 30.2388 26.407 30.2388 27.1263C30.2392 27.8455 29.9592 28.5216 29.4507 29.03ZM35.4112 23.0695C34.3615 24.1192 32.6535 24.1192 31.6038 23.0695L23.9545 15.4202L23.9519 15.4178L22.4643 13.9302C21.4146 12.8804 21.4146 11.1725 22.4643 10.1227C22.9891 9.59767 23.6786 9.33525 24.368 9.33525C25.0574 9.33525 25.747 9.59767 26.2716 10.1227L35.4109 19.2619C35.9196 19.7704 36.1995 20.4464 36.1995 21.1655C36.1996 21.8848 35.9199 22.5611 35.4112 23.0695ZM35.8115 15.3565L31.6298 11.1748C32.104 11.276 32.5915 11.3297 33.0877 11.3296C33.0989 11.3296 33.1101 11.3296 33.1214 11.3296L37.2994 11.3099C38.1401 11.306 38.8187 10.6212 38.8147 9.78033C38.8108 8.94193 38.1299 8.26502 37.2924 8.26502C37.29 8.26502 37.2875 8.26502 37.2851 8.26502L33.1071 8.28466C33.1007 8.28466 33.0946 8.28466 33.0882 8.28466C32.0588 8.28466 31.0905 7.88509 30.3605 7.15856C29.6259 6.42732 29.2214 5.45405 29.2214 4.41746V3.94346H39.654C41.6138 3.94346 43.5036 4.76618 44.8388 6.20097L44.9008 6.26749L35.8115 15.3565Z" fill="white" stroke="#015581" mask="url(#path-1-inside-1)"/>
</svg>
