<svg width="38" height="62" viewBox="0 0 38 62" fill="none" xmlns="http://www.w3.org/2000/svg">
<path d="M10.1749 61.4162C8.28494 61.4162 6.57494 61.0022 5.04494 60.1742C3.53294 59.3282 2.34494 58.1762 1.48094 56.7182C0.616935 55.2422 0.184935 53.5862 0.184935 51.7502C0.184935 49.9142 0.616935 48.2672 1.48094 46.8092C2.34494 45.3332 3.54194 44.1812 5.07194 43.3532C6.60194 42.5072 8.31194 42.0842 10.2019 42.0842C11.6779 42.0842 13.0279 42.3362 14.2519 42.8402C15.4759 43.3262 16.5199 44.0552 17.3839 45.0272L15.6289 46.7282C14.2069 45.2342 12.4339 44.4872 10.3099 44.4872C8.90594 44.4872 7.63694 44.8022 6.50294 45.4322C5.36894 46.0622 4.47794 46.9352 3.82994 48.0512C3.19994 49.1492 2.88494 50.3822 2.88494 51.7502C2.88494 53.1182 3.19994 54.3602 3.82994 55.4762C4.47794 56.5742 5.36894 57.4382 6.50294 58.0682C7.63694 58.6982 8.90594 59.0132 10.3099 59.0132C12.4159 59.0132 14.1889 58.2572 15.6289 56.7452L17.3839 58.4462C16.5199 59.4182 15.4669 60.1562 14.2249 60.6602C13.0009 61.1642 11.6509 61.4162 10.1749 61.4162ZM30.6411 61.4162C28.7511 61.4162 27.0411 61.0022 25.5111 60.1742C23.9991 59.3282 22.8111 58.1762 21.9471 56.7182C21.0831 55.2422 20.6511 53.5862 20.6511 51.7502C20.6511 49.9142 21.0831 48.2672 21.9471 46.8092C22.8111 45.3332 24.0081 44.1812 25.5381 43.3532C27.0681 42.5072 28.7781 42.0842 30.6681 42.0842C32.1441 42.0842 33.4941 42.3362 34.7181 42.8402C35.9421 43.3262 36.9861 44.0552 37.8501 45.0272L36.0951 46.7282C34.6731 45.2342 32.9001 44.4872 30.7761 44.4872C29.3721 44.4872 28.1031 44.8022 26.9691 45.4322C25.8351 46.0622 24.9441 46.9352 24.2961 48.0512C23.6661 49.1492 23.3511 50.3822 23.3511 51.7502C23.3511 53.1182 23.6661 54.3602 24.2961 55.4762C24.9441 56.5742 25.8351 57.4382 26.9691 58.0682C28.1031 58.6982 29.3721 59.0132 30.7761 59.0132C32.8821 59.0132 34.6551 58.2572 36.0951 56.7452L37.8501 58.4462C36.9861 59.4182 35.9331 60.1562 34.6911 60.6602C33.4671 61.1642 32.1171 61.4162 30.6411 61.4162Z" fill="white"/>
<path fill-rule="evenodd" clip-rule="evenodd" d="M18.1104 2.27531C14.8332 2.27531 11.6594 3.42266 9.13974 5.51826C6.6201 7.61385 4.91364 10.5254 4.31648 13.7478C3.71932 16.9701 4.26914 20.2999 5.87053 23.1592C7.37235 25.8407 9.71016 27.9498 12.5187 29.1703L15.5124 21.3695C14.5191 20.86 13.6932 20.0673 13.1433 19.0855C12.4936 17.9252 12.2705 16.574 12.5129 15.2664C12.7553 13.9589 13.4477 12.7774 14.4702 11.9271C15.4926 11.0767 16.7805 10.6111 18.1104 10.6111C19.4402 10.6111 20.7281 11.0767 21.7506 11.9271C22.773 12.7774 23.4655 13.9589 23.7079 15.2664C23.9502 16.574 23.7272 17.9252 23.0774 19.0855C22.5276 20.0673 21.7016 20.86 20.7083 21.3695L23.7021 29.1703C26.5106 27.9498 28.8484 25.8407 30.3502 23.1592C31.9516 20.2999 32.5014 16.9701 31.9043 13.7478C31.3071 10.5254 29.6007 7.61385 27.081 5.51826C24.5614 3.42266 21.3876 2.27531 18.1104 2.27531ZM8.35968 4.58036C11.0984 2.30253 14.5482 1.05542 18.1104 1.05542C21.6726 1.05542 25.1223 2.30253 27.8611 4.58036C30.5998 6.85818 32.4547 10.023 33.1037 13.5255C33.7528 17.0281 33.1552 20.6473 31.4146 23.7553C29.6739 26.8632 26.9001 29.2637 23.5745 30.5401C23.4235 30.5981 23.2556 30.5937 23.1078 30.5279C22.96 30.4621 22.8444 30.3402 22.7865 30.1892L19.3626 21.2677C19.2419 20.9533 19.399 20.6005 19.7135 20.4798C20.6889 20.1053 21.5025 19.4011 22.0131 18.4894C22.5236 17.5778 22.6988 16.5162 22.5084 15.4888C22.318 14.4614 21.7739 13.5331 20.9705 12.865C20.1672 12.1968 19.1553 11.831 18.1104 11.831C17.0655 11.831 16.0536 12.1968 15.2502 12.865C14.4469 13.5331 13.9028 14.4614 13.7124 15.4888C13.5219 16.5162 13.6972 17.5778 14.2077 18.4894C14.7182 19.4011 15.5318 20.1053 16.5073 20.4798C16.8217 20.6005 16.9788 20.9533 16.8581 21.2677L13.4343 30.1892C13.3763 30.3402 13.2607 30.4621 13.113 30.5279C12.9652 30.5937 12.7973 30.5981 12.6463 30.5401C9.32064 29.2637 6.54684 26.8632 4.8062 23.7553C3.06555 20.6473 2.46792 17.0281 3.11701 13.5255C3.7661 10.023 5.62095 6.85818 8.35968 4.58036Z" fill="white" stroke="white" stroke-width="0.3" stroke-linejoin="round"/>
</svg>
