<?xml version="1.0" standalone="no"?>
<!DOCTYPE svg PUBLIC "-//W3C//DTD SVG 20010904//EN"
 "http://www.w3.org/TR/2001/REC-SVG-20010904/DTD/svg10.dtd">
<svg version="1.0" xmlns="http://www.w3.org/2000/svg"
 width="200.000000pt" height="200.000000pt" viewBox="0 0 200.000000 200.000000"
 preserveAspectRatio="xMidYMid meet">
<metadata>
Created by potrace 1.11, written by Peter Selinger 2001-2013
</metadata>
<g transform="translate(0.000000,200.000000) scale(0.100000,-0.100000)"
fill="#000000" stroke="none">
<path d="M964 1970 c-38 -15 -64 -59 -64 -107 0 -38 5 -50 34 -79 19 -19 41
-34 49 -34 10 0 16 -18 20 -67 11 -116 10 -129 -23 -161 -86 -86 33 -213 124
-133 46 41 39 116 -15 148 -16 10 -29 24 -30 33 0 8 -4 53 -8 98 l-6 84 27 14
c32 16 58 61 58 99 0 81 -88 137 -166 105z"/>
<path d="M575 1886 c-110 -51 -127 -197 -31 -271 94 -72 230 -17 252 103 9 47
-20 117 -62 149 -42 31 -114 40 -159 19z"/>
<path d="M1346 1849 c-37 -43 -35 -91 4 -131 28 -27 36 -30 76 -25 43 4 46 3
89 -47 l44 -52 -15 -42 c-8 -26 -12 -58 -8 -80 6 -36 4 -40 -35 -65 -40 -26
-42 -27 -72 -11 -100 51 -196 -78 -123 -165 64 -77 184 -29 184 74 0 36 4 43
41 66 l42 27 35 -24 c93 -63 222 9 222 125 0 109 -109 183 -206 139 -24 -11
-29 -9 -74 38 -46 48 -48 52 -43 97 5 41 2 49 -25 77 -43 43 -100 43 -136 -1z
m378 -300 c17 -13 26 -30 26 -49 0 -31 -39 -70 -71 -70 -29 0 -59 36 -59 70 0
34 30 70 59 70 10 0 30 -9 45 -21z"/>
<path d="M1267 1630 c-21 -17 -27 -30 -27 -60 0 -73 86 -105 133 -49 57 69
-35 165 -106 109z"/>
<path d="M199 1581 c-78 -78 12 -197 114 -150 21 9 31 7 65 -16 35 -23 40 -31
36 -54 -9 -43 20 -98 60 -118 32 -15 36 -21 36 -53 0 -26 -7 -43 -25 -60 -33
-31 -33 -73 0 -105 31 -32 74 -33 103 -2 30 32 29 82 -3 111 -36 34 -35 90 3
108 16 8 37 33 51 61 19 38 28 47 49 47 14 0 34 -8 44 -17 28 -25 86 -22 109
6 28 35 25 85 -7 110 -15 12 -38 21 -51 21 -23 0 -73 -40 -73 -58 0 -5 -13
-12 -29 -15 -25 -5 -36 0 -64 28 -30 30 -41 35 -84 35 -27 0 -58 -7 -70 -15
-21 -15 -25 -14 -63 11 -33 22 -40 32 -40 60 0 85 -100 126 -161 65z"/>
<path d="M90 1279 c-52 -30 -83 -81 -87 -142 -10 -128 123 -223 242 -173 l39
17 70 -70 c55 -56 68 -73 58 -83 -16 -16 -15 -87 2 -116 18 -34 66 -62 104
-62 70 0 122 56 122 130 0 35 -6 48 -35 77 -35 35 -37 36 -100 31 l-64 -6 -61
69 c-61 68 -61 68 -45 98 22 44 19 116 -7 163 -46 81 -159 113 -238 67z m145
-94 c41 -40 33 -105 -16 -130 -42 -22 -67 -18 -100 14 -56 57 -23 141 56 141
25 0 44 -8 60 -25z"/>
<path d="M1801 1283 c-46 -23 -71 -67 -71 -125 0 -39 6 -54 31 -83 17 -19 37
-35 44 -35 32 0 45 -31 45 -103 0 -69 -1 -73 -30 -89 -65 -37 -77 -129 -24
-182 74 -73 194 -23 194 81 0 37 -6 51 -32 77 -18 18 -39 35 -46 37 -9 3 -15
31 -19 84 l-5 80 38 20 c46 25 79 90 70 140 -8 43 -41 84 -82 101 -43 18 -71
17 -113 -3z"/>
<path d="M1432 1133 c-7 -3 -19 -18 -28 -35 -40 -77 59 -146 121 -83 30 30 32
64 4 99 -20 25 -61 34 -97 19z"/>
<path d="M1603 993 c-52 -10 -89 -94 -64 -142 8 -14 3 -26 -20 -54 -25 -30
-34 -35 -49 -27 -49 26 -126 -4 -156 -61 -40 -78 20 -179 107 -179 22 0 48 4
58 9 14 8 27 0 65 -38 44 -44 46 -50 35 -74 -18 -40 -3 -91 37 -126 110 -97
260 53 163 163 -35 40 -86 55 -126 37 -24 -11 -30 -9 -74 35 -41 40 -46 50
-38 67 11 20 8 89 -5 118 -5 11 2 27 19 48 23 27 31 30 63 26 114 -17 163 146
58 190 -20 8 -39 14 -43 14 -4 -1 -18 -4 -30 -6z m132 -577 c29 -44 -18 -96
-66 -73 -27 14 -38 60 -18 83 19 23 66 17 84 -10z"/>
<path d="M73 850 c-43 -26 -60 -84 -39 -134 37 -90 175 -84 206 8 33 101 -75
183 -167 126z"/>
<path d="M189 541 c-40 -40 -40 -89 0 -133 24 -27 36 -33 71 -33 35 0 47 6 71
33 l29 32 105 -7 104 -6 11 -33 c12 -35 62 -84 86 -84 8 0 14 -10 14 -22 0
-39 -12 -68 -26 -68 -8 0 -28 -13 -46 -29 -28 -25 -33 -36 -33 -76 0 -40 5
-51 33 -76 70 -63 171 -17 172 78 0 33 -6 48 -30 71 -46 46 -38 102 17 129 45
21 73 67 73 118 0 137 -183 187 -247 68 l-18 -34 -75 6 c-128 10 -139 13 -155
45 -31 59 -107 69 -156 21z"/>
<path d="M1161 489 c-26 -25 -31 -39 -31 -76 0 -37 5 -50 30 -73 17 -16 43
-30 57 -32 20 -2 29 -12 39 -41 12 -35 11 -39 -11 -61 -45 -45 -45 -124 0
-166 28 -26 102 -38 134 -20 30 15 61 69 61 103 0 59 -54 117 -108 117 -22 0
-53 81 -33 88 17 6 41 57 41 86 0 63 -46 106 -114 106 -25 0 -43 -8 -65 -31z"/>
<path d="M377 300 c-60 -48 -17 -150 58 -136 86 17 86 135 0 152 -22 4 -38 0
-58 -16z"/>
</g>
</svg>
