<svg width="45" height="55" viewBox="0 0 45 55" fill="none" xmlns="http://www.w3.org/2000/svg">
<path d="M31.8856 31.7105C30.6409 31.2956 29.6036 31.0881 28.1514 31.0881C21.9277 31.0881 16.7412 36.0671 16.7412 42.4983C16.7412 48.9295 21.7202 53.9085 28.1514 53.9085C34.5826 53.9085 39.5616 48.9295 39.5616 42.4983C39.5616 39.179 38.1094 36.2746 36.0348 34.2L41.6362 23.6196" stroke="white" stroke-width="2" stroke-miterlimit="10"/>
<path d="M29.1885 31.0888L35.6197 19.4712" stroke="white" stroke-width="2" stroke-miterlimit="10"/>
<path d="M32.2998 25.2798L34.7893 26.9394" stroke="white" stroke-width="2" stroke-miterlimit="10"/>
<path d="M33.1299 18.0181L44.3326 24.2418" stroke="white" stroke-width="2" stroke-miterlimit="10"/>
<path d="M17.7783 45.1977C17.7783 45.1977 19.2305 43.7455 23.1722 43.5381C27.1139 43.3306 30.8482 45.1977 30.8482 45.1977C30.8482 45.1977 34.7899 46.6499 38.5241 45.6126" stroke="white" stroke-width="2" stroke-miterlimit="10"/>
<path d="M14.8738 26.9398L10.9321 28.392C10.9321 28.392 6.9904 29.8442 6.57549 26.11C6.16057 22.3758 5.74566 11.173 5.74566 11.173L4.50091 7.23132L2.63379 5.57166L6.36803 4.11945L7.09529 3.85113L10.6221 2.39893L10.2507 5.23787L11.9103 8.97211C11.9103 8.97211 18.9639 17.6854 21.0385 20.7972C23.1131 23.9091 19.1714 25.3613 19.1714 25.3613L15.2297 26.8135L14.8738 26.9398Z" stroke="white" stroke-width="2" stroke-miterlimit="10"/>
<path d="M6.32895 12.5985L12.1378 10.5239" stroke="white" stroke-width="2" stroke-miterlimit="10"/>
</svg>
