<svg width="53" height="54" viewBox="0 0 53 54" fill="none" xmlns="http://www.w3.org/2000/svg">
<path d="M51.6754 7.13338C51.3278 7.05249 50.9624 7.15752 50.7113 7.41103L46.4406 11.7155H44.3932L42.1394 9.38037V7.30439L46.3489 3.03213C46.598 2.77942 46.6994 2.41605 46.6169 2.07039C46.5348 1.72514 46.2805 1.44668 45.9441 1.3332C44.8866 0.976673 43.78 0.795996 42.6545 0.795996C39.2993 0.795996 36.2511 2.36052 34.2914 5.08838C32.4573 7.64201 31.8919 10.7715 32.7019 13.7665L25.1139 21.3546L12.4721 8.68382V6.19699C12.4721 5.83524 12.2822 5.49964 11.972 5.31373L4.68814 0.942872C4.28252 0.69942 3.76383 0.763402 3.42984 1.0978L0.516471 4.01076C0.18248 4.34515 0.118499 4.86385 0.361548 5.26946L4.7316 12.5533C4.91751 12.8635 5.25271 13.0531 5.61446 13.0535L8.10048 13.0543L20.7435 25.725L13.1844 33.2841C10.1893 32.4744 7.05827 33.0406 4.50344 34.876C1.77719 36.8344 0.213867 39.8818 0.213867 43.237C0.213867 44.3621 0.394544 45.4691 0.75107 46.5262C0.864949 46.8646 1.14623 47.1201 1.4939 47.2006C1.84197 47.2815 2.20695 47.1765 2.45845 46.923L6.7287 42.6189H8.78738L11.133 44.9645V47.0232L6.8289 51.2934C6.57539 51.5449 6.47036 51.9099 6.55125 52.258C6.63173 52.6056 6.88725 52.8869 7.22567 53.0008C8.28277 53.3573 9.38977 53.538 10.5149 53.538C13.8701 53.538 16.917 51.9743 18.8759 49.248C20.7113 46.6932 21.2774 43.5625 20.4678 40.5675L26.5388 34.4965L27.9295 36.0071L27.2913 36.6449C26.8889 37.0473 26.8889 37.6996 27.2913 38.102C27.6937 38.504 28.3456 38.504 28.7484 38.102L29.3262 37.5241L42.3744 51.6974C42.3841 51.7079 42.3941 51.718 42.4042 51.728C44.8186 54.1424 48.7303 54.1432 51.1459 51.7276C53.5546 49.3176 53.5546 45.3963 51.1459 42.9863C51.1354 42.9758 51.1246 42.9658 51.1137 42.9557L36.9183 29.9325L37.4897 29.3611C37.8921 28.9591 37.8921 28.3068 37.4897 27.9044C37.0873 27.502 36.4354 27.502 36.0326 27.9044L35.3988 28.5386L33.8854 27.1495L39.9858 21.0491C40.8529 21.2809 41.7479 21.3984 42.6545 21.3984C48.3347 21.3984 52.9555 16.7773 52.9555 11.0974C52.9555 9.9719 52.7748 8.8653 52.4183 7.8078C52.3044 7.46938 52.0231 7.21385 51.6754 7.13338ZM9.25698 11.2966C9.06382 11.103 8.80186 11.0045 8.52823 11.0045L6.19834 11.0036L2.54215 4.89926L4.31793 3.12347L10.4119 6.78047V9.11036C10.4119 9.38319 10.5201 9.64475 10.7129 9.8379L23.6572 22.8116L22.2001 24.2683L9.25698 11.2966ZM35.46 31.3908L49.7037 44.4579C51.2948 46.0659 51.29 48.6694 49.6888 50.2713C48.084 51.8761 45.4862 51.8809 43.8749 50.2854L30.7841 36.0658L35.46 31.3908ZM33.9405 29.9965L29.3874 34.5488L27.9967 33.0382L32.4271 28.6074L33.9405 29.9965ZM42.6545 19.3381C41.7535 19.3381 40.8674 19.1937 40.0216 18.9088C39.651 18.7844 39.2413 18.8802 38.9645 19.1566C33.8001 24.321 22.6721 35.4486 18.5745 39.5466C18.2977 39.8234 18.2015 40.2331 18.3266 40.6041C19.1829 43.1469 18.7733 45.859 17.2023 48.0461C15.6358 50.2267 13.1981 51.4777 10.5149 51.4777C10.2135 51.4777 9.91369 51.4612 9.61672 51.4294L12.8886 48.1829C13.0834 47.9897 13.1932 47.7266 13.1932 47.4517V44.5376C13.1932 44.2643 13.0846 44.0024 12.8914 43.8092L9.94226 40.86C9.74911 40.6669 9.48715 40.5582 9.21392 40.5582H6.29975C6.02491 40.5582 5.76174 40.6681 5.56819 40.8628L2.32203 44.1348C2.28984 43.8378 2.27375 43.538 2.27375 43.2366C2.27375 40.553 3.5244 38.1157 5.7054 36.5491C7.89204 34.9782 10.6046 34.5681 13.1478 35.4248C13.5184 35.55 13.928 35.4538 14.2049 35.177C14.2616 35.1206 34.5803 14.8015 34.5948 14.787C34.8717 14.5101 34.9674 14.1009 34.8427 13.7299C33.986 11.1871 34.3948 8.47578 35.9646 6.29035C37.5323 4.10774 39.9705 2.85628 42.6541 2.85628C42.9647 2.85628 43.2734 2.87358 43.5792 2.90738L40.3753 6.15917C40.1854 6.35192 40.0791 6.61146 40.0791 6.88188V9.79605C40.0791 10.0632 40.1825 10.3196 40.368 10.5115L43.2142 13.4607C43.4082 13.6619 43.6758 13.7754 43.9554 13.7754H46.8696C47.144 13.7754 47.4072 13.6659 47.6008 13.4708L50.8469 10.1993C50.8791 10.4962 50.8952 10.796 50.8952 11.0974C50.8952 15.6413 47.1984 19.3381 42.6545 19.3381Z" fill="white"/>
</svg>
