<?xml version="1.0" encoding="UTF-8" standalone="no"?>
<svg
   xmlns:dc="http://purl.org/dc/elements/1.1/"
   xmlns:cc="http://creativecommons.org/ns#"
   xmlns:rdf="http://www.w3.org/1999/02/22-rdf-syntax-ns#"
   xmlns:svg="http://www.w3.org/2000/svg"
   xmlns="http://www.w3.org/2000/svg"
   xmlns:sodipodi="http://sodipodi.sourceforge.net/DTD/sodipodi-0.dtd"
   xmlns:inkscape="http://www.inkscape.org/namespaces/inkscape"
   inkscape:version="1.0 (4035a4f, 2020-05-01)"
   height="180"
   width="200"
   sodipodi:docname="Peileppe_parsley-noframe.svg"
   version="1.0"
   viewBox="0 0 200 180"
   id="svg2">
  <defs
     id="defs112" />
  <sodipodi:namedview
     inkscape:current-layer="svg2"
     inkscape:window-maximized="0"
     inkscape:window-y="23"
     inkscape:window-x="0"
     inkscape:cy="163.49206"
     inkscape:cx="100"
     inkscape:zoom="2.35"
     showgrid="false"
     id="namedview110"
     inkscape:window-height="1133"
     inkscape:window-width="2045"
     inkscape:pageshadow="2"
     inkscape:pageopacity="0"
     guidetolerance="10"
     gridtolerance="10"
     objecttolerance="10"
     borderopacity="1"
     bordercolor="#666666"
     pagecolor="#ffffff" />
  <path
     d="m 106.1334,7.6295529 c 0.21,-0.013 0.88,0.232 1.94,0.775 1.03,0.523 2.08,1.417 2.34,1.9860001 l 0.47,1.029 1.24,-1.24 c 1.17,-1.1770001 4.31,-2.4200001 5.01,-1.9870001 0.18,0.112 0.45,0.882 0.61,1.705 0.15,0.8220001 0.69,2.2860001 1.18,3.2540001 1.2,2.349 1.14,4.545 -0.22,7.622 -0.62,1.402 -1.13,2.641 -1.13,2.762 0,0.121 1.03,-0.495 2.3,-1.367 2.63,-1.813 2.68,-1.828 4.48,-0.902 1.79,0.93 1.68,1.883 -0.55,4.283 -1.39,1.489 -1.86,2.348 -1.78,3.24 0.08,0.893 -0.39,1.763 -1.79,3.283 -1.79,1.947 -1.84,2.046 -0.65,1.592 0.7,-0.265 2.41,-0.602 3.79,-0.747 1.39,-0.144 2.74,-0.29 2.99,-0.324 0.25,-0.033 0.42,0.614 0.38,1.437 -0.06,1.235 0.06,1.433 0.68,1.17 0.41,-0.176 1.94,-0.413 3.41,-0.536 4.67,-0.389 7.53,2.168 5.2,4.65 -0.57,0.601 -1.4,1.206 -1.86,1.352 -0.46,0.146 -0.72,0.46 -0.58,0.69 0.14,0.23 0.04,0.423 -0.23,0.423 -0.81,0 -0.51,-1.285 0.37,-1.564 1.32,-0.418 2.91,-2.364 2.61,-3.17 -0.35,-0.906 -2.99,-2.028 -4.77,-2.028 -0.74,0 -2.29,0.314 -3.43,0.704 -1.15,0.39 -2.18,0.632 -2.27,0.535 -0.1,-0.096 0.01,-0.83 0.24,-1.62 0.4,-1.409 0.38,-1.423 -1.1,-1.423 -2.41,0 -7.01,1.611 -7.79,2.733 -0.72,1.021 -0.95,3.471 -0.41,4.34 0.16,0.262 0,1.421 -0.34,2.564 l -0.62,2.071 3,-1.649 c 1.65,-0.907 3.21,-1.8 3.45,-1.986 1.82,-1.362 9.16,-4.53 10.94,-4.72 2.07,-0.221 2.04,-0.201 -0.79,0.634 -1.61,0.475 -3.98,1.383 -5.24,2.015 -2.24,1.116 -5.58,3.877 -5.58,4.607 0,0.199 -0.35,0.737 -0.76,1.197 -0.61,0.665 -0.21,0.579 1.91,-0.408 2.1,-0.975 3.36,-1.242 5.83,-1.254 1.74,-0.009 3.62,-0.277 4.17,-0.592 0.67,-0.373 1.02,-0.412 1.02,-0.098 0,0.264 -0.32,0.613 -0.71,0.76 -0.62,0.239 -0.61,0.345 0.03,1.057 0.67,0.735 0.63,0.863 -0.48,1.733 -0.65,0.517 -1.94,1.065 -2.84,1.211 -0.91,0.147 -2.11,0.459 -2.68,0.691 -0.57,0.232 -2.23,0.422 -3.69,0.422 -2.25,0 -3.36,0.329 -7.35,2.24 -5.59,2.673 -8.12,5.103 -10.46,9.989 -1.75,3.666 -2.07,5.055 -3.36,15.046 -1.02,7.8 -1.14,10.906 -0.5,11.919 0.46,0.73 0.85,0.513 3.52,-1.958 0.81,-0.743 1.47,-1.171 1.47,-0.944 0,0.227 1.27,-0.805 2.82,-2.296 4.38,-4.221 9.81,-8.906 12.28,-10.609 2.44,-1.679 4.99,-4.059 4.85,-4.522 -0.05,-0.159 0.72,-0.841 1.7,-1.522 0.99,-0.681 1.79,-1.407 1.79,-1.606 0,-0.199 1.52,-1.405 3.38,-2.691 1.86,-1.285 3.38,-2.472 3.38,-2.634 0,-0.162 -0.29,-0.722 -0.66,-1.24 -0.36,-0.519 -0.51,-1.091 -0.34,-1.268 0.18,-0.177 0.03,-0.252 -0.32,-0.169 -0.38,0.089 -0.84,-0.393 -1.11,-1.198 -0.26,-0.743 -0.5,-1.425 -0.55,-1.507 -0.33,-0.526 -2.58,1.694 -3.28,3.24 -0.48,1.035 -3.27,4.378 -6.29,7.509 -5.23,5.425 -5.44,5.579 -5.46,4.213 -0.02,-0.781 0.48,-2.302 1.09,-3.381 2,-3.487 1.43,-5.227 -0.88,-2.705 -1.62,1.759 -1.95,1.737 -2.29,-0.085 -0.21,-1.204 -2.02,-4.306 -2.52,-4.339 -0.15,-0.011 -0.39,0.392 -0.52,0.887 -0.36,1.388 -0.97,1.079 -1.86,-0.943 -0.45,-1.014 -0.97,-1.674 -1.17,-1.466 -0.2,0.208 -0.67,2.054 -1.05,4.114 -0.64,3.428 -0.63,3.886 0.04,5.297 0.6,1.271 0.64,1.84 0.21,3.227 -0.4,1.298 -0.38,1.758 0.04,2.028 0.34,0.213 0.35,0.348 0.06,0.353 -0.28,0.003 -0.42,0.642 -0.34,1.479 0.56,5.6 0.6,7.1 0.17,7.1 -0.26,0 -0.48,0.355 -0.49,0.789 -0.01,0.434 -0.65,1.499 -1.41,2.367 -0.77,0.868 -1.22,1.172 -1,0.676 0.21,-0.496 0.41,-2.423 0.42,-4.282 0.02,-2.06 0.45,-4.946 1.1,-7.369 0.95,-3.546 1,-4.208 0.51,-6.142 -0.54,-2.099 -0.27,-5.248 0.78,-9.031 0.47,-1.691 1.98,-1.498 2.57,0.338 0.53,1.651 1.11,1.489 1.11,-0.324 0,-0.654 0.61,-2.175 1.37,-3.367 1.33,-2.103 1.4,-2.139 2.25,-1.366 0.49,0.437 0.9,1.126 0.92,1.521 0.03,0.61 0.07,0.616 0.28,0.042 0.37,-1.022 2.93,-3.606 3.58,-3.606 0.69,0 1.23,2.58 0.98,4.719 -0.17,1.507 -0.13,1.563 1.19,1.466 1.1,-0.083 1.39,0.084 1.51,0.873 0.15,1.088 -1.5,4.663 -2.16,4.663 -0.52,0 -3,3.547 -3.62,5.185 l -0.45,1.211 1.44,-1.211 c 2.48,-2.09 8.21,-8.776 9.39,-10.961 1.14,-2.11 1.45,-2.34 5.76,-4.297 2.26,-1.025 2.41,-1.039 2.82,-0.268 0.65,1.219 0.53,1.885 -0.69,4.185 -0.61,1.152 -0.91,2.099 -0.69,2.099 0.23,0 0.53,-0.211 0.69,-0.465 0.16,-0.255 0.62,-0.407 1.03,-0.338 0.41,0.068 0.75,-0.076 0.76,-0.324 0.08,-2.031 3.45,-3.429 8.34,-3.452 2.2,-0.01 4.32,0.171 4.72,0.395 0.46,0.254 -0.79,0.333 -3.35,0.211 -3.36,-0.161 -4.25,-0.074 -4.92,0.535 -0.45,0.409 -1.13,0.634 -1.49,0.493 -0.37,-0.14 -1.15,0.178 -1.75,0.705 l -1.08,0.958 1.11,-0.719 c 0.61,-0.392 1.25,-0.704 1.42,-0.704 0.55,0 0.1,1.516 -0.51,1.719 -0.38,0.127 -0.45,-0.004 -0.22,-0.381 0.24,-0.391 0.17,-0.469 -0.2,-0.239 -0.3,0.187 -0.43,0.455 -0.29,0.591 0.13,0.137 -0.11,0.525 -0.54,0.86 -0.72,0.564 -0.71,0.582 0.13,0.338 0.89,-0.26 0.88,-0.253 0.01,0.451 -0.59,0.485 -0.66,0.718 -0.24,0.718 0.42,0 0.34,0.222 -0.25,0.677 -0.86,0.667 -0.86,0.667 0.03,0.408 0.81,-0.239 0.82,-0.206 0.14,0.338 -0.41,0.33 -1.12,0.856 -1.58,1.17 -0.53,0.367 -0.34,0.346 0.54,-0.057 2.5,-1.159 3.38,-1.311 3.38,-0.577 0,0.371 -0.45,0.816 -0.99,0.986 -0.76,0.24 -0.83,0.387 -0.34,0.662 1.04,0.578 6.66,-0.192 7.5,-1.029 0.69,-0.697 0.69,-0.764 -0.03,-1.042 -0.65,-0.249 -0.52,-0.478 0.79,-1.367 0.86,-0.585 1.71,-1.524 1.89,-2.085 0.36,-1.156 2.45,-3.809 2.45,-3.113 0,0.682 -1.88,3.625 -3.24,5.086 -0.66,0.708 -1.02,1.395 -0.79,1.535 1.39,0.859 -1.42,2.277 -5.72,2.888 -1.76,0.251 -3.89,0.755 -4.74,1.113 -1.47,0.626 -1.39,0.643 1.86,0.409 3.22,-0.232 3.43,-0.189 4.47,0.93 l 1.1,1.183 -1.1,1.169 c -1.58,1.693 -2.08,1.878 -6.54,2.438 -2.21,0.278 -4.93,0.869 -6.04,1.324 -1.12,0.456 -3.65,1.284 -5.62,1.832 -2.41,0.668 -4.73,1.744 -7.09,3.282 -1.93,1.26 -3.43,2.377 -3.32,2.48 0.1,0.102 1.58,-0.225 3.27,-0.733 6.35,-1.912 7.98,-2.333 9.11,-2.296 0.68,0.022 0.15,0.295 -1.31,0.648 -4.54,1.101 -11.93,3.062 -13.2,3.508 -2.48,0.868 -0.81,0.803 2.77,-0.113 2.02,-0.513 4.2,-0.839 4.87,-0.718 0.66,0.121 1.47,0.009 1.78,-0.254 0.32,-0.263 2.67,-0.55 5.22,-0.634 3.22,-0.105 4.03,-0.047 2.62,0.197 -1.67,0.289 -1.79,0.367 -0.65,0.423 1.93,0.094 5.65,1.415 5.35,1.902 -0.13,0.222 0.07,0.288 0.45,0.141 0.5,-0.19 0.71,-0.001 0.71,0.662 0,0.821 -0.16,0.892 -1.17,0.507 -0.64,-0.242 -1.59,-0.685 -2.13,-0.972 -1.75,-0.938 -9.18,-1.629 -13.11,-1.226 -3.21,0.328 -10.84,2.239 -11.47,2.874 -0.13,0.125 0.52,0.24 1.43,0.24 2.07,0 3.64,0.97 4.37,2.733 0.31,0.741 0.94,1.565 1.41,1.817 0.89,0.475 7.4,0.063 6.9,-0.436 -0.14,-0.147 -1.31,-0.697 -2.6,-1.226 -1.29,-0.529 -2.29,-1.196 -2.23,-1.479 0.06,-0.284 -0.09,-0.508 -0.34,-0.508 -0.55,0 -0.58,-0.907 -0.05,-1.732 0.31,-0.499 0.64,-0.479 1.9,0.155 0.84,0.423 2.1,1.305 2.8,1.958 0.88,0.823 1.17,0.954 0.96,0.408 -0.52,-1.344 0.69,-0.884 1.51,0.578 0.75,1.334 0.84,1.352 3.82,1.226 1.89,-0.081 2.98,0.041 2.88,0.324 -0.08,0.249 -0.84,0.477 -1.69,0.493 -3.95,0.073 -4.44,0.168 -4.17,0.887 0.16,0.408 -0.32,1.537 -1.15,2.691 l -1.44,1.987 1.58,-0.662 c 2.11,-0.884 6.07,-0.871 6.41,0.014 0.3,0.787 -1.74,4.276996 -3.75,6.406996 -1.74,1.850001 -1.99,2.490001 -1.2,3.070001 0.51,0.38 0.49,0.73 -0.19,2.06 l -0.82,1.61 1.93,-0.45 c 1.07,-0.25 2.08,-0.29 2.27,-0.1 0.6,0.6 -2.73,2.92 -6.37,4.42 -3.06,1.27 -3.66,1.69 -4.23,3.03 -0.36,0.86 -1.24,2.28 -1.95,3.16 -1.51,1.82 -1.58,2.47 -0.58,4.97 0.69,1.74 1.62,2.32 2.21,1.37 0.15,-0.25 0.48,-0.45 0.75,-0.45 0.29,0 0.25,0.3 -0.12,0.78 -0.51,0.69 -0.5,0.71 0.06,0.2 0.36,-0.32 0.67,-0.73 0.68,-0.9 0.01,-0.17 0.61,-0.94 1.35,-1.7 0.73,-0.77 2.29,-3.35 3.45,-5.71 2.3,-4.7 3.09,-5.47 7.27,-7.03 3.59,-1.34 3.92,-1.28 3.92,0.6 0,1.36 0.14,1.58 1.04,1.58 0.58,0 1.05,-0.25 1.06,-0.56 0,-0.31 0.68,-2.39 1.5,-4.62 0.83,-2.23 1.58,-4.97 1.68,-6.090001 0.1,-1.11 0.68,-3.52 1.3,-5.350996 0.65,-1.958 1.11,-4.367 1.11,-5.861 0,-2.17 0.32,-4.191 1.58,-10.313 0.44,-2.168 2.94,-0.409 3.89,2.733 l 0.53,1.747 0.73,-3.085 c 1,-4.199 2.06,-6.15 3.14,-5.805 0.59,0.186 0.92,0.008 1.12,-0.605 0.61,-1.924 5.53,-5.291 6.42,-4.396 0.16,0.154 -0.13,0.282 -0.63,0.282 -1.24,0 -4.25,2.441 -5.17,4.198 -0.5,0.951 -1.08,1.437 -1.75,1.437 -0.84,0 -1.15,0.501 -2,3.156 -1.11,3.458 -1.82,7.219 -1.14,6.044 0.22,-0.389 0.51,-1.26 0.63,-1.944 0.42,-2.309 1.25,-4.343 1.67,-4.086 0.22,0.14 0.89,-0.268 1.47,-0.902 0.59,-0.633 1.22,-1.141 1.4,-1.141 0.18,0 0.85,-0.406 1.48,-0.901 1.46,-1.147 2.6,-1.207 2.13,-0.113 -0.47,1.072 -0.58,4.621 -0.14,4.621 0.19,0 0.47,0.684 0.63,1.521 0.29,1.544 -0.73,4.34 -1.58,4.34 -0.22,0 -0.53,0.406 -0.69,0.901 -0.16,0.496 -0.75,1.015 -1.31,1.156 -1.12,0.282 -3.94,3.315 -5.14,5.536 -0.88,1.636 -3.8,5.430996 -4.19,5.450996 -0.47,0.03 1.87,-9.959996 2.98,-12.705996 0.18,-0.456 0.1,-0.789 -0.17,-0.789 -0.27,0 -0.59,-0.761 -0.75,-1.691 -0.4,-2.405 -1.06,-3.99 -2.06,-4.888 -0.47,-0.429 -0.86,-0.662 -0.86,-0.522 0,0.141 -0.3,1.847 -0.67,3.79 -0.37,1.943 -0.68,4.73 -0.68,6.199 0,1.674 -0.42,3.881 -1.12,5.917 -0.62,1.79 -1.31,4.549996 -1.54,6.129996 -0.23,1.580001 -0.82,3.970001 -1.34,5.320001 -0.51,1.35 -0.87,2.53 -0.77,2.62 0.09,0.1 0.3,-0.23 0.46,-0.73 0.17,-0.52 0.55,-0.81 0.9,-0.67 0.36,0.13 0.75,-0.18 0.92,-0.72 0.16,-0.52 0.47,-0.83 0.69,-0.69 0.21,0.13 0.6,-0.13 0.86,-0.57 0.25,-0.44 0.47,-0.62 0.48,-0.42 0.01,0.2 0.64,-0.31 1.41,-1.13 1.33,-1.42 1.38,-1.43 1.12,-0.36 -0.14,0.62 -0.14,0.86 0,0.55 0.15,-0.31 0.44,-0.45 0.67,-0.31 0.22,0.13 0.28,-0.07 0.14,-0.45 -0.3,-0.77 -0.05,-0.84 1.53,-0.41 0.59,0.16 0.96,0.53 0.83,0.86 -0.12,0.31 1.97,-0.79 4.64,-2.440001 6.36,-3.92 16.53,-8.956996 17.05,-8.439996 0.2,0.202 -3.11,1.829 -6.16,3.03 -3.4,1.339996 -22.01,12.809997 -21.54,13.279997 0.09,0.1 1.46,-0.46 3.05,-1.24 3.42,-1.67 10.35,-4.45 10.35,-4.15 0,0.11 -0.97,0.63 -2.15,1.14 -1.17,0.51 -3.42,1.51 -4.97,2.23 -1.55,0.71 -2.94,1.31 -3.08,1.31 -0.5,0 -5.61,3.28 -5.41,3.48 0.1,0.1 0.67,-0.12 1.25,-0.5 1.34,-0.87 7.15,-2.08 10,-2.08 1.77,0 2.14,-0.15 1.93,-0.69 -0.17,-0.45 0.35,-1.08 1.54,-1.86 0.98,-0.65 1.79,-1.33 1.79,-1.51 0,-0.18 0.45,-0.53 1.01,-0.8 0.92,-0.45 0.92,-0.5 0.13,-0.52 -1.23,-0.05 2.03,-2.340001 4.75,-3.340001 1.63,-0.61 2.51,-0.68 4.31,-0.34 2.55,0.48 4.82,0.24 6.48,-0.69 l 1.12,-0.64 -1.35,0.27 c -0.74,0.14 -1.86,0.35 -2.48,0.47 -0.87,0.16 -0.97,0.1 -0.45,-0.26 0.9,-0.6 -0.04,-0.59 -1.66,0.02 -0.95,0.36 -1.14,0.34 -0.76,-0.04 0.92,-0.93 4.21,-1.42 5.86,-0.88 1.78,0.59 1.62,1.08 -0.66,2.06 -1.26,0.54 -2.55,0.65 -5.36,0.46 l -3.7,-0.24 -1.4,1.780001 c -0.77,0.97 -2.29,2.16 -3.36,2.63 -1.08,0.48 -2.73,1.4 -3.68,2.05 -1.34,0.91 -1.53,1.17 -0.83,1.19 2.77,0.1 8.53,-0.12 10.21,-0.39 2.22,-0.35 13.86,-0.27 14.23,0.1 0.14,0.13 -0.03,0.57 -0.36,0.97 -0.53,0.63 -0.49,0.83 0.24,1.37 0.46,0.34 0.75,0.72 0.61,0.86 -0.13,0.13 -0.72,-0.15 -1.31,-0.62 -0.91,-0.74 -0.96,-0.97 -0.45,-1.6 0.54,-0.64 0.41,-0.71 -1.15,-0.71 -1.26,0 -1.91,0.25 -2.31,0.9 -0.31,0.49 -0.96,0.9 -1.44,0.9 -0.48,0 -1.01,0.2 -1.17,0.46 -0.33,0.54 -2.32,0.37 -7.54,-0.66 -2.85,-0.56 -4.79,-0.62 -10.29,-0.29 -7.04,0.41 -9.47,0.93 -4.43,0.94 2.92,0.01 8.34,1.17 11.24,2.41 0.87,0.37 2.19,1.31 2.94,2.1 1.19,1.26 3.33,2.7 4.02,2.7 0.5,0 0.23,-1.89 -0.46,-3.22 -0.39,-0.76 -0.62,-1.47 -0.51,-1.58 0.11,-0.11 1.38,0.31 2.81,0.94 2.89,1.29 5.9,1.5 7.22,0.5 0.48,-0.37 1.36,-0.67 1.93,-0.68 0.58,-0.01 1.44,-0.24 1.92,-0.49 0.57,-0.31 0.87,-0.31 0.87,-0.02 0,0.25 -0.86,0.68 -1.91,0.96 -1.06,0.28 -2.31,0.72 -2.78,0.97 -1.23,0.66 -4.71,0.52 -6.92,-0.26 l -1.9,-0.68 0.28,2 c 0.26,1.89 0.21,2 -0.8,2 -1.29,0 -2.97,-1.04 -5.03,-3.16 -3.29,-3.36 -14.1,-4.81 -20.16,-2.69 -3.04,1.07 -6.17,3.07 -8.11,5.22 -1.32,1.45 -0.77,1.19 2.93,-1.37 2.55,-1.77 5.42,-2.94 7.2,-2.94 0.64,0 0.74,0.26 0.52,1.35 -0.24,1.17 -0.14,1.36 0.73,1.39 3.1,0.13 3.64,0.24 3.82,0.75 0.1,0.31 -0.28,0.77 -0.86,1.03 -0.92,0.4 -0.86,0.42 0.48,0.21 1.28,-0.2 1.86,0.03 3.53,1.41 1.1,0.9 2.17,2.07 2.37,2.59 1.44,3.76 2.09,5.13 2.87,6.02 0.5,0.55 0.74,1.16 0.54,1.35 -0.2,0.19 -0.46,0.08 -0.58,-0.24 -0.25,-0.7 -6.41,-3.87 -6.79,-3.5 -0.38,0.38 0.25,0.88 3.27,2.7 1.47,0.88 2.33,1.62 1.92,1.62 -0.42,0 -1.73,-0.6 -2.91,-1.31 -4.44,-2.71 -9.15,-3.6 -17,-3.2 l -4.5,0.22 1.27,0.82 c 1.45,0.94 3.59,5.24 3.17,6.34 -0.33,0.88 -2.87,0.97 -5.84,0.23 -1.69,-0.43 -2.21,-0.85 -3.36,-2.71 -0.74,-1.21 -1.7,-2.22 -2.14,-2.25 -3.62,-0.25 -3.63,-0.25 -3.11,0.88 0.4,0.88 0.32,1.18 -0.38,1.69 -0.47,0.35 -1.13,0.64 -1.47,0.64 -0.49,0 -0.48,0.19 0.09,1 0.85,1.21 0.88,1.74 0.14,2.73 -0.48,0.64 -0.95,0.7 -2.95,0.38 -1.45,-0.23 -2.48,-0.22 -2.65,0.04 -0.14,0.24 -0.74,0.34 -1.33,0.23 -0.67,-0.13 -1.07,0.01 -1.07,0.35 0,0.86 -1.22,1.68 -2.13,1.44 -0.72,-0.19 -0.71,-0.26 0.15,-0.54 1.21,-0.39 1.7,-2.36 0.67,-2.7 -0.4,-0.13 -1.19,-0.61 -1.77,-1.06 -0.99,-0.76 -1.02,-0.91 -0.5,-3.03 0.3,-1.22 0.74,-2.48 0.98,-2.79 0.25,-0.31 0.34,-0.56 0.2,-0.56 -0.14,0 -0.08,-0.6 0.13,-1.32 0.34,-1.19 0.24,-1.37 -0.95,-1.86 -0.74,-0.31 -2.22,-0.45 -3.39,-0.31 -1.28,0.14 -1.85,0.08 -1.47,-0.16 1.14,-0.72 4.63,-0.45 6.16,0.48 1.44,0.88 1.46,0.88 1.46,0.03 0,-0.48 -0.93,-1.75 -2.07,-2.82 -2.01,-1.89 -2.95,-2.56 -7.93,-5.69 l -2.39,-1.51 -0.91,1.19 c -0.82,1.1 -0.88,1.8 -0.77,9.62 0.15,10.01 0.9,21.35 1.44,21.89 0.61,0.62 1.11,0.1 4.6,-4.79 3.18,-4.44 3.28,-4.68 2.88,-6.3 -0.37,-1.46 -0.55,-1.64 -1.47,-1.41 -1.06,0.27 -2.39,-0.45 -2.39,-1.29 0,-0.27 0.26,-0.24 0.63,0.07 0.35,0.29 1.19,0.47 1.86,0.39 1.07,-0.12 1.3,0.11 1.85,1.68 0.34,0.99 0.91,2.02 1.27,2.28 0.52,0.39 0.06,1.33 -2.54,5.19 -1.75,2.58 -3.28,5.01 -3.41,5.38 -0.14,0.37 -0.73,1.32 -1.32,2.13 -1.06,1.42 -1.08,1.66 -1.15,11.49 -0.03,5.95 -0.19,8.95 -0.36,7.34 l -0.3,-2.7 -0.12,3.83 c -0.23,6.7 -0.74,1.49 -0.86,-8.79 l -0.12,-9.47 1.51,-1.8 c 2.42,-2.87 3.59,-4.71 3.38,-5.31 -0.1,-0.31 -0.84,0.51 -1.65,1.81 -0.8,1.31 -1.84,2.58 -2.29,2.82 -0.69,0.37 -0.87,0.23 -1.09,-0.8 -0.53,-2.53 -1.03,-9.54 -1.12,-15.88 -0.06,-3.59 -0.219996,-6.64 -0.339996,-6.76 -0.13,-0.13 -0.16,4.52 -0.07,10.32 0.11,8.34 0.02,10.6 -0.44,10.75 -0.43,0.15 -0.45,0.36 -0.08,0.79 0.27,0.33 0.32,0.69 0.12,0.81 -0.2,0.11 -1.605,-1.18 -3.125,-2.85 -1.646,-1.81 -2.963,-2.91 -3.269,-2.72 -0.352,0.22 -0.231,0.58 0.395,1.14 0.501,0.46 0.915,0.65 0.915,0.44 0,-0.21 0.812,0.41 1.804,1.38 2.152,2.1 2.437,3.22 0.338,1.32 l -1.465,-1.32 1.521,1.66 c 0.843,0.92 1.756,1.63 2.029,1.58 0.273,-0.05 0.457,0.17 0.397,0.48 -0.065,0.31 0.16,0.56 0.5,0.56 0.66,0 0.799996,1.19 1.439996,11.6 0.24,3.88 0.18,4.71 -0.44,5.32 -0.659996,0.67 -0.709996,0.37 -0.709996,-3.65 0,-2.4 -0.26,-6.23 -0.55,-8.49 l -0.539,-4.1 -4.113,-4.52 c -2.266,-2.49 -4.785,-5.43 -5.593,-6.54 l -1.466,-2.02 0.085,2.71 c 0.131,3.72 0.15,3.65 -1.31,4.69 l -1.296,0.93 -1.184,-0.93 -1.169,-0.93 v 2.26 c 0,2.42 -0.541,3.17 -1.62,2.28 -0.553,-0.46 -0.891,-0.34 -1.916,0.65 -0.687,0.65 -1.686,1.19 -2.212,1.19 -1.399,0 -3.72,-3.02 -3.72,-4.83 0,-1.39 -0.071,-1.45 -1.352,-1.2 -1.272,0.26 -1.353,0.2 -1.353,-1.12 0,-1.82 -0.885,-1.83 -3.733,-0.05 -1.611,1.02 -2.462,1.98 -3.381,3.85 -1.009,2.06 -1.73,2.82 -4.086,4.31 -1.575,1 -3.144,1.7 -3.494,1.57 -0.9,-0.35 -0.797,-2.49 0.226,-4.5 l 0.873,-1.7 -0.986,0.71 c -0.541,0.4 -1.854,1.29 -2.93,1.96 -3.158,1.98 -3.258,2.08 -3.438,3.48 -0.191,1.49 -2.355,5.64 -2.944,5.64 -0.206,0 -0.784,-0.55 -1.268,-1.21 l -0.874,-1.22 -2.169,1.44 c -1.191,0.79 -2.406,1.44 -2.705,1.44 -1.191,0 -1.645,-1.32 -1.395,-4.02 0.246,-2.65 0.228,-2.68 -1.113,-3.15 -1.234,-0.43 -1.301,-0.56 -0.803,-1.5 1.478,-2.79 4.283,-5.2 7.903,-6.77 3.899,-1.7 4.568,-2.29 2.198,-1.93 -1.812,0.27 -4.739,-0.76 -5.043,-1.79 -0.231,-0.78 4.92,-3.91 5.931,-3.61 1.012,0.31 7.986,0.29 8.298,-0.03 0.11,-0.11 -1.607,-0.22 -3.818,-0.24 -5.501,-0.04 -3.602,-0.77 2.296,-0.88 2.48,-0.05 5.117,-0.22 5.861,-0.4 l 1.352,-0.32 -1.803,-0.52 c -0.992,-0.29 -3.02,-0.55 -4.508,-0.55 -2.993,-0.01 -3.995,-0.4 -3.607,-1.41 0.166,-0.43 -0.153,-0.86 -0.887,-1.2 -0.63,-0.29 -1.141,-0.86 -1.141,-1.27 0,-1.04 3.013,-3.77 4.17,-3.77 0.746,0 0.843,-0.13 0.422,-0.55 -0.297,-0.3 -0.535,-0.99 -0.535,-1.55 0,-1.51 2.244,-1.78 5.734,-0.69 2.677,0.83 2.786,0.84 2.367,0.05 -0.242,-0.45 -0.437,-1.44 -0.437,-2.19 0,-1.2 -0.293,-1.52 -2.24,-2.51 -1.232,-0.63 -2.941,-1.13 -3.79,-1.13 -1.375,0 -1.631,0.21 -2.423,1.92 -0.489,1.05 -1.248,2.99 -1.676,4.29 -1.259,3.85 -4.708,7.13 -6.101,5.82 -0.449,-0.42 -0.619,-0.38 -0.803,0.14 -0.402,1.16 -4.542,5.05 -5.156,4.85 -0.321,-0.1 -0.641,-0.98 -0.705,-1.96 -0.063,-0.97 -0.234,-2.47 -0.38,-3.34 l -0.268,-1.57 -0.817,1.57 c -0.45,0.87 -1.423,2.15 -2.169,2.86 -1.332,1.27 -1.373,1.28 -1.93,0.38 -0.561,-0.89 -0.597,-0.88 -2.889,0.41 -1.276,0.72 -2.566,1.31 -2.86,1.31 -0.293,0 -0.858,-0.7 -1.267,-1.56 -0.689,-1.45 -0.692,-1.7 -0.015,-3.42 0.658,-1.68 0.658,-1.98 0.043,-2.92 -0.953,-1.45 -0.121,-2.66 2.507,-3.64 2.771,-1.03 3.073,-1.39 1.423,-1.76 -1.627,-0.35 -1.757,-1.01 -0.493,-2.62 0.502,-0.63 0.857,-1.42 0.789,-1.74 -0.076,-0.37 0.402,-0.65 1.24,-0.72 0.744,-0.07 3.21,-0.44 5.48,-0.85 4.01,-0.71 4.224,-0.71 7.622,0.21 3.378,0.92 4.032,0.51 1,-0.63 -0.813,-0.31 -3,-1.2 -4.86,-2 -2.796,-1.21 -4.006,-1.47 -6.988,-1.52 -3.126,-0.06 -3.907,0.09 -5.861,1.14 -1.534,0.82 -3.298,1.32 -5.522,1.53 -3.409,0.34 -3.771,0.15 -2.607,-1.39 0.973,-1.29 0.836,-1.59 -0.493,-1.09 -1.478,0.57 -3.687,0.18 -5.114,-0.9 l -1.085,-0.81 1.55,-1.46 c 2.332,-2.18 4.084,-3.15 5.833,-3.21 l 1.578,-0.05 -1.353,-0.34 c -0.744,-0.19 -3.28,-0.38 -5.635,-0.41 -3.15,-0.04 -4.9389997,-0.29 -6.7626001,-0.99 -3.5454,-1.340001 -3.8458,-1.680001 -2.4514,-2.770001 l 1.1552,-0.92 -1.2961,-1.41 c -2.1264,-2.304996 -3.916,-5.219996 -3.4657,-5.659996 0.2262,-0.221 1.0312,-0.537 1.7751,-0.691 l 1.3525,-0.281 -1.5216,0.704 -1.5074,0.69 2.226,2.818 c 1.2195,1.55 2.681,3.069996 3.2544,3.349996 1.0329,0.52 1.0241,0.53 -0.6481,1.38 l -1.6906,0.88 2.2823,0.97 c 1.7880004,0.770001 3.1810001,0.980001 6.4810001,0.990001 2.309,0 5.367,0.28 6.804,0.62 4.186,0.98 4.153,1.48 -0.141,1.93 -2.413,0.25 -3.13,0.53 -4.48,1.8 l -1.592,1.51 1.635,-0.67 c 0.898,-0.36 1.752,-0.54 1.902,-0.39 0.149,0.15 1.442,0.03 2.874,-0.27 2.457,-0.51 4.562,-0.65 7.466,-0.53 1.968,0.08 1.027,0.84 -1.479,1.18 -2.351,0.32 -2.892,0.86 -1.352,1.35 1.016,0.32 1.158,1.13 0.352,1.93 -0.849,0.85 0.184,0.64 1.676,-0.35 1.101,-0.73 2.119,-0.9 5.467,-0.9 4.194,0 5.682,0.42 10.989,3.11 0.867,0.44 2.135,0.93 2.817,1.1 0.859,0.21 1.24,0.6 1.24,1.25 0,0.67 -0.205,0.87 -0.69,0.68 -2.587,-0.99 -6.798,-1.32 -10.313,-0.82 -2.038,0.3 -4.349,0.54 -5.142,0.54 -1.052,0 -1.437,0.21 -1.437,0.76 0,0.42 -0.44,1.22 -0.972,1.79 l -0.972,1.03 1.225,0.46 c 0.672,0.26 1.417,0.47 1.649,0.47 0.231,0 0.422,0.28 0.422,0.62 0,0.34 -1.204,1.07 -2.719,1.63 -3.147,1.18 -3.452,1.51 -2.691,2.93 0.428,0.8 0.444,1.4 0.057,2.51 -0.561,1.61 -0.679,4.15 -0.212,4.62 0.165,0.17 0.876,-0.7 1.578,-1.93 0.703,-1.23 1.979,-2.72 2.846,-3.31 0.867,-0.59 1.464,-1.18 1.324,-1.32 -0.139,-0.14 0.785,-0.81 2.043,-1.5 1.258,-0.68 2.179,-1.34 2.057,-1.46 -0.122,-0.12 0.352,-0.65 1.057,-1.17 0.704,-0.52 1.313,-1.15 1.352,-1.4 0.04,-0.24 0.734,-0.71 1.536,-1.03 l 1.465,-0.56 -1.352,0.27 c -1.105,0.21 -1.259,0.15 -0.789,-0.33 0.546,-0.55 2.969,-1.2 8.002,-2.15 2.643,-0.5 6.965,-1.94 6.974,-2.33 0.003,-0.14 -1.457,-0.83 -3.255,-1.52 -2.806,-1.07 -12.535,-5.54 -22.274,-10.24 -1.524,-0.73 -3.267,-1.400001 -3.874,-1.460001 -0.607,-0.07 -1.366,-0.28 -1.69,-0.48 -0.418,-0.26 -0.487,-0.2 -0.226,0.22 0.272,0.44 0.156,0.52 -0.423,0.3 -0.432,-0.17 -0.983,-0.3 -1.225,-0.3 -0.243,0 -0.329,-0.18 -0.197,-0.39 0.131,-0.21 -0.248,-0.29 -0.846,-0.17 -0.836,0.16 -1.58,-0.28 -3.226,-1.9 -2.096,-2.069996 -2.181,-2.109996 -4.311,-1.819996 -1.812,0.25 -2.17,0.19 -2.17,-0.41 0,-0.395 -0.3179997,-0.718 -0.7039997,-0.718 -0.387,0 -0.576,0.203 -0.423,0.448 0.154,0.25 0.065,0.45 -0.183,0.45 -0.2478004,0 -0.5654004,-0.18 -0.7043004,-0.4 -0.1389,-0.229 -0.6962,-0.311 -1.2539,-0.174 -0.5576,0.134 -0.8724,0.104 -0.6903,-0.098 0.1821,-0.198 -0.0211,-0.63 -0.4508,-0.944 -1.3118,-0.96 -0.2366,-1.257 1.8033,-0.508 1.0590004,0.39 2.8430001,0.841 3.9590001,1.015 2.446,0.38 10.761,3.308996 13.877,4.888996 l 2.254,1.14 0.578,-1.45 c 0.322,-0.8 0.808,-1.59 1.07,-1.78 0.33,-0.23 0.316,-0.44 -0.042,-0.67 -1.003,-0.659996 -6.408,-8.446996 -7.115,-10.257996 -0.346,-0.888 -0.353,-0.888 -0.718,0.056 -0.207,0.536 -0.169,1.73 0.084,2.705 1.227,4.728 1.061,5.06 -1.31,2.762 -0.825,-0.801 -2.552,-1.803 -3.846,-2.226 -1.988,-0.651 -2.143,-0.766 -1,-0.789 1.393,-0.029 3.741,1.165 5.523,2.803 1.2,1.104 1.273,0.791 0.281,-1.127 -0.785,-1.518 -0.69,-5.438 0.155,-6.283 0.317,-0.317 1.49,0.149 3.72,1.479 2.691,1.605 3.606,2.477 5.255,5.001 1.317,2.019 2.288,3.058 2.859,3.058 0.476,0 1.187,0.456 1.578,1.014 3.759,5.354996 5.748,7.744997 7.594,9.144997 1.195,0.91 2.28,1.52 2.423,1.38 0.143,-0.14 -0.103,-1.21 -0.549,-2.38 -0.576,-1.51 -0.835,-3.630001 -0.916,-7.329997 -0.093,-4.224 -0.327,-5.773 -1.212,-8.127 -0.6,-1.598 -1.316,-2.979 -1.592,-3.071 -0.662,-0.221 -1.173,2.653 -0.873,4.888 0.131,0.977 0.169,1.776 0.084,1.776 -0.084,0 -0.674,-0.209 -1.31,-0.451 -1.543,-0.587 -1.52,0.115 0.127,3.747 0.798,1.758 1.936,3.367996 3.015,4.257996 0.954,0.78 1.622,1.54 1.479,1.69 -0.143,0.14 -1.284,-0.73 -2.522,-1.93 -1.72,-1.68 -2.412,-2.779996 -2.972,-4.707996 -1.04,-3.577 -0.983,-4.121 0.394,-3.776 1.104,0.277 1.126,0.222 1.141,-2.324 0.009,-1.431 0.274,-3.063 0.592,-3.635 l 0.578,-1.043 1.986,2.057 c 2.084,2.151 2.691,2.473 2.691,1.437 0,-0.341 0.276,-0.856 0.62,-1.141 0.494,-0.41 0.872,-0.233 1.803,0.874 0.648,0.77 1.184,1.807 1.184,2.296 0,0.489 0.279,1.43 0.62,2.099 0.34,0.67 0.755,2.595 0.929,4.269 0.375,3.584996 0.988,4.114996 0.775,0.675 -0.08,-1.301 0.092,-2.974 0.381,-3.718 l 0.521,-1.353 1.719,1.973 c 1.861,2.145 2.518,4.167996 3.916,11.997997 0.677,3.79 1.097,4.94 2.621,7.22 0.997,1.49 2.02,2.7 2.268,2.7 0.92,0 0.681,-2.02 -0.437,-3.79 -1.488,-2.35 -1.489,-3.54 -0.014,-3.91 0.625,-0.16 1.641,-0.19 2.254,-0.07 0.632,0.12 1.333,-0.07 1.62,-0.41 0.759,-0.92 1.171,-0.78 3.48,1.15 2.401,2.01 6.847,4.7 6.847,4.16 0,-0.93 -3.031,-4.76 -4.564,-5.78 -1.848,-1.22 -2.42,-2.5 -2.804,-6.240001 -0.128,-1.25 -0.3,-2.55 -0.38,-2.9 -0.318,-1.389996 1.475,-0.849996 4.311,1.3 1.641,1.24 2.986,2.12 2.986,1.97 0,-0.15 -0.559,-1 -1.239,-1.89 -2.479,-3.243996 -4.171,-5.901996 -4.171,-6.536996 0,-0.505 -0.979,-0.306 -4.395,0.888 -2.418,0.844 -4.552,1.533 -4.734,1.535 -0.544,0.008 0.163,-5.541 0.845,-6.635 0.348,-0.557 1.626,-1.748 2.832,-2.649 l 2.184,-1.634 -1.071,-1.592 c -0.594,-0.875 -0.983,-1.694 -0.859,-1.817 0.271,-0.272 5.967,-1.4 7.185,-1.423 1.824,-0.035 0.291,0.436 -3.029,0.929 -1.907,0.284 -3.466,0.675 -3.466,0.874 0,0.199 0.507,0.968 1.127,1.705 0.62,0.736 1.127,1.461 1.127,1.606 0,0.145 -0.779,0.655 -1.733,1.141 -1.836,0.937 -4.587,3.758 -4.564,4.677 0.008,0.31 0.195,0.23 0.437,-0.183 0.234,-0.402 0.964,-1.092 1.62,-1.521 0.656,-0.43 1.061,-0.569 0.901,-0.31 -0.168,0.272 0.09,0.447 0.606,0.408 0.491,-0.037 0.788,-0.156 0.676,-0.268 -0.389,-0.389 0.816,-1.408 1.663,-1.408 0.47,0 2.729,-0.951 5.015,-2.1 2.829,-1.42 5.235,-2.26 7.538,-2.648 3.38,-0.57 3.379,-0.574 1.042,-0.62 -2.599,-0.051 -3.789,-0.919 -1.395,-1.014 l 1.494,-0.057 -1.578,-0.324 c -1.213,-0.255 -1.328,-0.349 -0.479,-0.394 1.783,-0.096 0.488,-0.89 -1.775,-1.085 -1.941,-0.168 -1.928,-0.178 0.493,-0.254 2.593,-0.08 6.69,0.519 8.298,1.212 0.496,0.214 1.966,0.808 3.282,1.324 l 2.395,0.944 -0.817,-1.282 c -1.729,-2.72 -10.385,-12.336 -18.709,-20.766 -9.491,-9.612 -11.503,-11.466 -12.525,-11.496 -1.221,-0.037 -2.254,0.704 -2.254,1.606 0,0.487 -0.19,0.887 -0.422,0.887 -0.68,0 -0.34,-5.625 0.394,-6.508 0.623,-0.75 1.777,-0.779 3.635,-0.071 0.438,0.167 0.94,-0.208 1.437,-1.085 0.422,-0.744 1.06,-1.352 1.423,-1.352 0.838,0 2.398,2.418 4.128,6.452 0.744,1.735 1.557,3.239 1.817,3.325 0.276,0.092 0.683,-1.287 0.972,-3.297 0.339,-2.354 0.778,-3.722 1.395,-4.339 1.099,-1.099 1.902,-0.709 1.902,0.93 0,1.441 1.443,4.343 2.987,5.988 0.603,0.643 1.295,1.875 1.535,2.747 0.372,1.347 0.604,1.556 1.522,1.381 0.931,-0.178 1.029,-0.374 0.732,-1.409 -0.189,-0.661 -0.244,-1.859 -0.126,-2.663 0.206,-1.405 0.109,-1.503 -2.353,-2.592 -2.771,-1.226 -3.161,-2.226 -1.24,-3.184 l 1.029,-0.507 -1.142,-0.761 c -0.629,-0.412 -1.132,-1.094 -1.113,-1.522 0.023,-0.49 0.122,-0.573 0.268,-0.211 0.127,0.316 0.954,1.066 1.832,1.662 l 1.592,1.085 -1.635,0.691 c -0.9,0.376 -1.634,0.783 -1.634,0.915 0,0.41 4.372,2.49 4.649,2.212 0.144,-0.144 1.083,0.064 2.085,0.465 1.002,0.401 1.832,0.646 1.832,0.535 0,-0.111 0.791,0.081 1.761,0.423 0.969,0.342 1.861,0.519 1.986,0.395 0.125,-0.125 0.699,0.082 1.282,0.464 0.584,0.383 1.935,1.005 3.001,1.381 1.066,0.376 2.523,1.091 3.226,1.592 0.704,0.501 1.577,0.916 1.945,0.916 0.373,0 0.759,0.547 0.889,1.24 0.53,2.902 1.469996,5.973 1.829996,5.973 0.21,0 0.26,-1.268 0.08,-2.818 -0.32,-2.949 -0.72,-3.795 -4.883996,-10.481 -1.389,-2.232 -3.444,-5.619 -4.565,-7.524 -1.122,-1.904 -3.025,-4.541 -4.241,-5.86 -1.216,-1.319 -2.623,-2.901 -3.113,-3.508 -0.846,-1.046 -0.99,-1.071 -2.776,-0.536 -1.524,0.457 -1.835,0.731 -1.62,1.409 0.147,0.462 0.061,0.968 -0.197,1.127 -0.265,0.164 -0.465,-0.103 -0.465,-0.606 0,-0.49 -0.12,-1.264 -0.268,-1.718 -0.223,-0.687 -0.193,-0.704 0.212,-0.141 0.421,0.585 0.487,0.57 0.521,-0.113 0.071,-1.424 0.044,-4.839 -0.042,-5.184 -0.047,-0.186 -0.108,-0.598 -0.141,-0.916 -0.034,-0.318 -0.354,-0.774 -0.719,-1 -0.364,-0.227 -0.542,-0.543 -0.38,-0.705 0.161,-0.161 1.27,0.219 2.465,0.845 1.195,0.627 3.157,1.485 4.354,1.902 1.558,0.544 2.548,1.274 3.494,2.579 l 1.324,1.817 v -1.987 c 0.011,-3.089 0.568,-3.588 2.226,-2 0.755,0.724 1.381,1.596 1.381,1.93 0,0.334 0.47,1.564 1.056,2.733 1.151,2.298 1.814,4.845 2.55,9.792 0.258,1.735 0.795,4.271 1.198,5.635 0.65,2.193 0.78,2.349 1.06,1.352 0.17,-0.619 0.23,-3.46 0.12,-6.297 -0.16,-4.498 -0.38,-5.654 -1.688,-9.017 -1.794,-4.628 -2.05,-5.748 -1.592,-7.227 0.317,-1.019 0.354,-0.975 0.395,0.479 0.06,2.157 1.254,6.072 2.115,6.932 0.38,0.381 0.58,0.891 0.42,1.141 -0.15,0.25 -0.06,0.465 0.2,0.465 0.26,0 0.48,0.304 0.48,0.676 0,0.372 0.159996,0.676 0.379996,0.676 0.52,0 0.95,7.233 0.48,8.143 -0.26,0.505 -0.17,0.719 0.33,0.719 0.6,0 0.67,-0.452 0.47,-2.748 -0.21,-2.353 -0.17,-2.509 0.22,-1.155 0.33,1.13 0.28,2.731 -0.15,5.636 -0.33,2.231 -0.67,3.499 -0.75,2.817 -0.17,-1.469 -0.79,-1.63 -1.139996,-0.296 -0.13,0.522 -0.45,0.812 -0.72,0.648 -0.883,-0.548 -0.501,0.903 1.089996,4.058 1.36,2.7 1.58,2.944 1.58,1.775 0,-0.746 0.22,-2.064 0.48,-2.93 0.49,-1.669 1.75,-7.261 1.98,-8.777 0.08,-0.496 0.49,-1.904 0.92,-3.128 0.69,-1.988 0.7,-2.284 0.08,-2.733 -0.67,-0.49 -2.57,-5.476 -2.53,-6.636 0.01,-0.318 0.44,0.64 0.95,2.128 0.52,1.487 1.21,2.983 1.54,3.338 0.52,0.552 0.75,0.356 1.52,-1.352 0.5,-1.099 0.91,-2.282 0.92,-2.635 0,-0.352 0.28,-0.961 0.6,-1.352 0.33,-0.391 1.15,-2.429 1.83,-4.536 1.29,-3.98 3.26,-8.566 3.67,-8.566 0.13,0 -0.1,0.761 -0.5,1.69 -0.39,0.93 -0.9,2.198 -1.12,2.818 -0.4,1.068 -0.39,1.083 0.25,0.254 0.37,-0.482 0.69,-1.053 0.69,-1.268 0,-0.216 0.24,-0.248 0.52,-0.071 0.33,0.205 0.4,0.122 0.19,-0.225 -0.19,-0.3 0.12,-1.691 0.69,-3.086 0.56,-1.394 1.1,-2.294 1.19,-2 0.1,0.294 0.4,0.403 0.67,0.239 0.28,-0.174 0.35,-0.087 0.16,0.212 -0.17,0.281 -0.1,0.906 0.16,1.395 0.36,0.668 0.29,1.287 -0.28,2.493 -0.42,0.881 -0.88,1.606 -1.02,1.606 -0.14,0.001 -0.95,0.596 -1.8,1.325 -0.85,0.728 -1.7,1.226 -1.89,1.113 -0.18,-0.114 -0.47,0.255 -0.63,0.817 -0.17,0.561 -1.6,5.066 -3.2,10.002 -1.6,4.937 -2.84,9.167 -2.76,9.411 0.08,0.245 0.41,-0.402 0.72,-1.437 0.31,-1.035 0.71,-1.78 0.9,-1.662 0.19,0.118 0.7,-0.179 1.11,-0.662 0.42,-0.483 0.66,-0.874 0.54,-0.874 -0.12,0 0.12,-0.404 0.53,-0.887 0.42,-0.483 0.9,-0.777 1.09,-0.662 0.18,0.115 0.47,-0.202 0.63,-0.705 0.16,-0.503 0.46,-0.808 0.68,-0.676 0.21,0.132 0.73,-0.364 1.17,-1.099 0.43,-0.735 0.95,-1.244 1.14,-1.127 0.19,0.117 0.56,-0.187 0.83,-0.69 0.27,-0.503 0.71,-0.916 0.97,-0.916 0.27,0 0.88,-0.507 1.37,-1.127 0.49,-0.62 1.18,-1.127 1.53,-1.127 0.36,0 0.65,-0.201 0.65,-0.437 0,-0.236 0.69,-0.758 1.52,-1.155 1.6,-0.758 4.34,-3.801 4.34,-4.818 0,-0.327 -0.41,-0.842 -0.91,-1.156 -1.05,-0.656 -1.68,-0.413 -5.06,1.987 -2.59,1.835 -2.72,1.392 -0.83,-2.917 1.16,-2.645 1.27,-3.262 0.91,-5.142 -0.22,-1.174 -0.7,-2.731 -1.08,-3.465 -0.38,-0.735 -0.69,-1.747 -0.69,-2.2410001 0,-0.493 -0.15,-0.977 -0.34,-1.084 -0.67,-0.385 -4.13,1.4430001 -4.87,2.5780001 -1,1.527 -1.84,1.467 -2.16,-0.155 -0.19,-0.928 -0.8,-1.6030001 -2.08,-2.3250001 -1.33,-0.744 -1.81,-1.181 -1.54,-1.197 z m -0.03,0.887 c 0.08,0.036 -0.01,0.352 -0.25,1.001 -0.63,1.6600001 -0.74,6.1820001 -0.3,12.6510001 0.29,4.176 0.24,4.802 -0.25,3.987 -0.49,-0.802 -0.68,-0.868 -1.14,-0.366 -0.31,0.333 -0.44,0.975 -0.28,1.423 0.24,0.696 0.18,0.687 -0.44,-0.085 -0.51,-0.631 -0.72,-0.715 -0.73,-0.268 -0.01,0.352 -0.17,0.496 -0.34,0.324 -0.17,-0.172 -0.28,-1.164 -0.26,-2.211 0.03,-1.048 -0.05,-1.497 -0.18,-1.001 -0.12,0.496 -0.42,1.105 -0.66,1.353 -0.28,0.292 -0.34,0.162 -0.14,-0.352 0.23,-0.606 0.13,-0.722 -0.42,-0.508 -0.53,0.202 -0.67,0.08 -0.48,-0.408 0.14,-0.375 0.05,-0.809 -0.21,-0.972 -0.279996,-0.168 -0.479996,0.048 -0.479996,0.493 0,0.712 -0.08,0.703 -0.65,-0.085 -0.353,-0.479 -0.484,-0.973 -0.298,-1.099 0.188,-0.125 0.458,-0.672 0.588,-1.211 0.18,-0.712 0.08,-0.921 -0.38,-0.747 -0.34,0.132 -0.641,-0.03 -0.658,-0.366 -0.018,-0.337 -0.196,-0.2 -0.409,0.296 -0.331,0.771 -0.396,0.787 -0.423,0.112 -0.051,-1.266 -0.858,-0.907 -1.014,0.451 -0.087,0.755 -0.334,0.024 -0.62,-1.859 -0.545,-3.596 -0.297,-3.887 2.564,-3.029 2.289996,0.686 5.249996,3.355 6.309996,5.677 0.96,2.1 1.03,1.361 0.33,-2.93 -0.56,-3.347 0.01,-9.1510001 0.97,-10.1020001 0.09,-0.092 0.16,-0.152 0.21,-0.169 0.02,-0.006 0.03,-0.005 0.04,0 z m 9.48,6.4670001 c -0.04,-0.04 -0.2,0.286 -0.53,1.028 -0.38,0.835 -0.58,1.639 -0.44,1.775 0.14,0.137 0.25,0.027 0.25,-0.239 0,-0.266 0.41,-0.383 0.91,-0.254 0.96,0.253 1.24,-0.495 0.38,-1.028 -0.33,-0.199 -0.4,-0.125 -0.2,0.197 0.18,0.286 0.08,0.521 -0.21,0.521 -0.34,0 -0.43,-0.449 -0.27,-1.239 0.1,-0.472 0.14,-0.73 0.11,-0.761 z m -19.382996,3.043 c -0.161,-0.031 -0.267,0.068 -0.267,0.254 0,0.248 0.203,0.579 0.45,0.732 0.248,0.153 0.451,0.065 0.451,-0.183 0,-0.248 -0.203,-0.565 -0.451,-0.718 -0.062,-0.039 -0.129,-0.075 -0.183,-0.085 z m 3.623,3.099 c -0.03,-0.011 -0.08,-0.009 -0.11,0.029 -0.15,0.149 -0.16,0.548 -0.03,0.873 0.14,0.36 0.24,0.243 0.26,-0.282 0.02,-0.356 -0.03,-0.586 -0.12,-0.62 z m -21.487,1.268 c 0.247,0 0.372,0.457 0.268,1.015 -0.104,0.558 -0.207,1.673 -0.225,2.479 -0.058,2.502 -0.479,1.607 -0.479,-1.014 0,-1.364 0.19,-2.48 0.436,-2.48 z m 24.626996,2.001 c -0.01,-0.005 -0.02,-0.004 -0.03,0 -0.03,0.01 -0.07,0.063 -0.1,0.141 -0.12,0.31 -0.12,0.817 0,1.127 0.13,0.31 0.24,0.056 0.24,-0.564 0,-0.406 -0.04,-0.666 -0.11,-0.704 z m -18.032996,4.015 c -0.162,-0.027 -0.268,0.071 -0.268,0.268 0,0.262 0.203,0.479 0.451,0.479 0.248,0 0.451,-0.088 0.451,-0.197 0,-0.11 -0.203,-0.326 -0.451,-0.479 -0.062,-0.039 -0.129,-0.062 -0.183,-0.071 z m 1.986,0.352 c -0.204,0 -0.408,0.022 -0.563,0.085 -0.31,0.125 -0.057,0.239 0.563,0.239 0.62,0 0.874,-0.114 0.564,-0.239 -0.155,-0.063 -0.36,-0.085 -0.564,-0.085 z m 3.395,0.846 c -0.109,0 -0.311,0.202 -0.465,0.45 -0.153,0.248 -0.065,0.451 0.198,0.451 0.262,0 0.479,-0.203 0.479,-0.451 0,-0.248 -0.102,-0.45 -0.212,-0.45 z m -13.679,2.55 c 0.156,0.039 0.572,0.484 1.211,1.366 0.717,0.99 2.289,2.364 3.494,3.057 2.49,1.434 3.776,2.46 3.776,3.015 0,0.699 -1.672,0.392 -2.832,-0.521 -0.63,-0.496 -1.718,-0.929 -2.423,-0.958 -0.705,-0.029 -1.891,-0.221 -2.635,-0.423 -1.032,-0.28 -0.687,-0.344 1.465,-0.281 1.551,0.045 2.819,0.041 2.818,0 0,-0.042 -0.741,-0.519 -1.634,-1.071 -0.893,-0.552 -2.01,-1.639 -2.48,-2.409 -0.738,-1.212 -0.962,-1.826 -0.76,-1.775 z m 23.640996,2.944 c -0.03,-0.011 -0.08,-0.009 -0.11,0.028 -0.15,0.15 -0.16,0.548 -0.03,0.874 0.14,0.359 0.24,0.243 0.27,-0.282 0.01,-0.356 -0.04,-0.586 -0.13,-0.62 z m 16.23,0.479 c -0.07,-0.01 -0.26,0.081 -0.55,0.24 -2.06,1.116 -4.43,4.485 -5.38,7.65 -0.35,1.148 -0.57,2.156 -0.48,2.24 0.08,0.083 0.78,-0.374 1.56,-1.029 0.78,-0.657 1.72,-1.086 2.09,-0.944 0.78,0.301 0.88,-0.212 0.18,-0.915 -0.35,-0.352 -0.29,-0.881 0.23,-1.874 0.39,-0.76 0.71,-1.766 0.71,-2.24 0,-0.475 0.44,-1.429 0.98,-2.114 0.55,-0.702 0.77,-0.996 0.66,-1.014 z m 7.52,9.355 c -0.51,-0.004 -1.99,0.693 -4.31,2.043 -1.92,1.119 -3.49,2.24 -3.49,2.479 0,0.623 0.42,0.5 2.66,-0.732 1.33,-0.734 2.71,-1.085 4.17,-1.085 1.57,0 2.18,-0.184 2.18,-0.634 0,-0.346 -0.31,-0.753 -0.7,-0.902 -0.39,-0.149 -0.59,-0.469 -0.44,-0.718 0.19,-0.298 0.16,-0.449 -0.07,-0.451 z m -14.68,1.113 c -0.2,0.01 -0.41,0.21 -0.53,0.521 -0.39,0.996 -0.06,1.231 0.6,0.437 0.32,-0.386 0.35,-0.745 0.1,-0.902 -0.03,-0.018 -0.05,-0.035 -0.08,-0.042 -0.03,-0.006 -0.06,-0.016 -0.09,-0.014 z m -27.850996,1.366 0.141,2.254 c 0.081,1.24 0.244,2.559 0.352,2.931 0.134,0.462 -0.088,0.639 -0.704,0.563 -0.496,-0.061 -1.186,0.067 -1.522,0.282 -0.757,0.487 -0.064,1.956 1.719,3.663 0.647,0.62 1.689,1.794 2.325,2.621 l 1.155,1.507 -0.071,-1.733 c -0.04,-0.951 0.187,-2.124 0.493,-2.62 0.482,-0.78 0.258,-1.483 -1.662,-5.185 z m -25.824,0.874 c 0.026,0.006 0.055,0.012 0.071,0.028 0.123,0.124 -0.171,0.51 -0.649,0.859 -0.477,0.349 -0.96,0.533 -1.084,0.409 -0.124,-0.124 0.156,-0.51 0.634,-0.859 0.417,-0.306 0.844,-0.48 1.028,-0.437 z m 30.107,0.324 c -0.231,0.014 -0.19,0.208 0,0.662 0.193,0.463 0.442,1.302 0.563,1.86 0.311,1.431 0.896,1.249 1.254,-0.381 0.347,-1.576 0.369,-1.539 -1.084,-1.986 -0.351,-0.108 -0.595,-0.163 -0.733,-0.155 z m 5.833,1.479 c -0.046,-0.011 -0.077,-0.007 -0.085,0 -0.063,0.059 0.211,0.745 0.606,1.536 0.394,0.791 0.887,2.393 1.085,3.564 0.197,1.171 0.379,1.856 0.408,1.508 0.029,-0.348 0.855,-1.382 1.846,-2.297 l 1.803,-1.662 -2.818,-1.381 c -1.355,-0.664 -2.53,-1.188 -2.845,-1.268 z m -34.306,1.761 c 0.181,-0.004 0.549,0.026 1.071,0.085 2.672,0.299 8.707,4.396 8.707,5.917 0,0.324 0.899,1.503 2,2.62 1.102,1.117 1.828,2.043 1.62,2.043 -0.473,0 -7.227,-3.2 -7.227,-3.423 0,-0.091 0.529,0.033 1.183,0.281 0.655,0.249 1.279,0.37 1.381,0.268 0.102,-0.102 -0.471,-0.413 -1.268,-0.69 -0.797,-0.278 -1.546,-0.413 -1.662,-0.296 -0.117,0.116 -0.644,-0.018 -1.17,-0.31 -0.969,-0.54 -1.234,-0.632 -2.127,-0.733 -0.274,-0.031 -0.366,-0.385 -0.211,-0.789 0.235,-0.612 0.054,-0.695 -1.099,-0.465 -0.761,0.153 -1.286,0.099 -1.155,-0.112 0.13,-0.211 1.479,-0.619 2.986,-0.916 2.741,-0.539 2.73,-0.547 1.691,-1.338 -1.013,-0.771 -2.808,-1.565 -4.635,-2.043 -0.248,-0.065 -0.265,-0.095 -0.085,-0.099 z m 13.891,3.452 c -0.124,0 0.263,0.507 0.846,1.127 0.582,0.62 1.158,1.127 1.282,1.127 0.124,0 -0.249,-0.507 -0.831,-1.127 -0.583,-0.62 -1.173,-1.127 -1.297,-1.127 z m -14.666,1.465 c 0.118,0.014 0.184,0.195 0.184,0.549 0,1.4 1.036,3.847 1.634,3.847 0.972,0 1.046,0.69 0.253,2.352 -0.465,0.976 -0.927,1.456 -1.183,1.212 -0.259,-0.247 -0.036,-0.826 0.592,-1.493 1.005,-1.071 1.014,-1.099 0.127,-1.381 -1.101,-0.35 -2.589,-4.23 -1.888,-4.931 0.114,-0.114 0.211,-0.163 0.281,-0.155 z m 24.218,0.437 c -0.321,-0.005 0.092,0.921 1.451,3.353 0.88,1.573 1.692,2.86 1.804,2.86 1.134,0 -1.301,-5.074 -2.916,-6.072 -0.151,-0.093 -0.265,-0.14 -0.339,-0.141 z m 65.227996,0.817 c 0.37,-0.006 -0.34,0.488 -1.58,1.085 -1.24,0.597 -2.4,1.093 -2.56,1.113 -0.55,0.066 -0.07,-1.493 0.52,-1.691 0.35,-0.116 0.45,0.009 0.27,0.31 -0.42,0.682 0.18,0.63 1.55,-0.155 0.62,-0.354 1.43,-0.657 1.8,-0.662 z m -6.76,0.887 c -0.02,-0.023 -0.21,0.115 -0.56,0.395 -0.44,0.34 -0.79,0.695 -0.79,0.789 0,0.371 0.37,0.131 0.95,-0.62 0.29,-0.358 0.42,-0.54 0.4,-0.564 z m -39.409996,0 c -0.09,0 -0.29,0.305 -0.43,0.677 -0.15,0.372 -0.06,0.676 0.18,0.676 0.24,0 0.44,-0.304 0.44,-0.676 0,-0.372 -0.09,-0.677 -0.19,-0.677 z m -6.744,2.79 c -0.031,-0.011 -0.076,-0.009 -0.113,0.028 -0.15,0.15 -0.158,0.548 -0.028,0.874 0.144,0.359 0.246,0.243 0.267,-0.282 0.015,-0.357 -0.034,-0.586 -0.126,-0.62 z m 51.323996,0.408 c 0.23,0 0.2,0.143 -0.21,0.409 -0.37,0.24 -0.98,0.422 -1.35,0.409 -0.45,-0.017 -0.37,-0.153 0.22,-0.409 0.62,-0.266 1.11,-0.409 1.34,-0.409 z m -5.49,2.212 c -0.3,-0.003 -0.65,0.203 -0.81,0.451 -0.34,0.56 -0.19,0.56 0.68,0 0.4,-0.262 0.45,-0.446 0.13,-0.451 z m -73.996996,0.705 c 0.371,-0.019 1.229,0.12 2.86,0.408 0.496,0.088 1.256,0.177 1.705,0.198 0.448,0.02 0.706,0.22 0.563,0.45 -0.143,0.231 -0.023,0.568 0.268,0.747 0.311,0.192 0.412,0.138 0.239,-0.141 -0.474,-0.767 0.875,-1.004 1.846,-0.324 0.492,0.345 1.019,0.502 1.169,0.352 0.15,-0.149 0.935,0.222 1.747,0.832 0.813,0.609 2.624,1.768 4.029,2.564 2.188,1.238 7.594,6.009 7.594,6.706 0,0.321 -1.147,-0.599 -4.198,-3.367 -1.438,-1.305 -3.061,-2.447 -3.607,-2.55 -0.545,-0.104 -2.516,-0.405 -4.381,-0.663 -1.951,-0.269 -5.33,-1.246 -7.946,-2.296 -2.502,-1.004 -4.763,-1.817 -5.03,-1.817 -0.267,0 -0.639,-0.235 -0.817,-0.522 -0.328,-0.531 0.452,-0.433 2.268,0.31 0.639,0.262 0.769,0.213 0.508,-0.211 -0.286,-0.462 -0.145,-0.46 0.718,0 0.942,0.502 0.994,0.48 0.493,-0.127 -0.294,-0.357 -0.399,-0.53 -0.028,-0.549 z m 28.43,1.211 c -0.55,0.01 -0.438,0.443 0.479,1.24 0.673,0.585 1.226,1.321 1.226,1.649 0,0.327 0.203,0.605 0.451,0.605 0.248,0 0.451,-0.216 0.451,-0.479 0,-0.262 0.174,-0.375 0.394,-0.239 0.22,0.136 0.651,-0.053 0.958,-0.423 0.471,-0.567 0.227,-0.82 -1.55,-1.606 -1.153,-0.51 -1.98,-0.754 -2.409,-0.747 z m 7.736996,0.071 c -0.08,0.01 -0.22,0.242 -0.44,0.62 -0.25,0.422 -0.33,1.383 -0.18,2.127 0.26,1.255 0.3,1.206 0.52,-0.676 0.17,-1.491 0.22,-2.088 0.1,-2.071 z m -1.849996,2.127 c -0.16,0.006 -0.677,0.272 -1.252,0.648 -1.038,0.681 -1.155,0.993 -0.915,2.409 0.203,1.206 -0.023,2.304 -0.874,4.227 -0.632,1.429 -1.139,2.954 -1.127,3.381 0.012,0.427 0.707,2.094 1.536,3.705 l 1.507,2.931 0.31,-2.931 c 0.375,-3.489 1.005,-14.144 0.855,-14.356 0,-0.01 -0.02,-0.015 -0.04,-0.014 z m 64.709996,0.169 -0.08,3.156 c -0.09,3.107 -0.06,3.165 1.05,3.156 0.95,-0.008 1.17,0.234 1.28,1.451 0.11,1.085 -0.39,2.337 -1.97,4.959 -1.16,1.929 -2.57,4.112 -3.13,4.861 -1.06,1.426 -4,8.326 -3.67,8.646 0.1,0.11 1.17,-0.948 2.38,-2.335 1.2,-1.387 4.66,-5.064 7.68,-8.171 5.23,-5.395 5.59,-5.668 8.11,-6.269 3.11,-0.742 5.4,-0.843 5.78,-0.24 0.14,0.237 -0.55,2.069 -1.55,4.057 -2.07,4.103 -2.12,4.297 -1.03,3.847 3.22,-1.333 8.54,-2.919 9.72,-2.903 1.68,0.024 5.51,0.985 6.03,1.508 0.44,0.442 -2.94,-0.143 -4,-0.69 -1.25,-0.644 -2.31,-0.461 -7.58,1.253 -3.8,1.237 -5.16,1.507 -5.55,1.113 -0.39,-0.393 -0.37,-0.763 0.11,-1.521 1.01,-1.587 1.94,-3.526 1.76,-3.677 -0.09,-0.076 -2.86,1.559 -6.15,3.635 -3.3,2.075 -6.06,3.775 -6.16,3.775 -0.1,0 0,-0.62 0.21,-1.366 0.38,-1.323 0.31,-1.295 -2.3,0.972 -1.47,1.279 -2.66,2.494 -2.66,2.691 0,0.196 -1.15,1.584 -2.53,3.085 -3.42,3.685996 -4.43,3.025996 -2.2,-1.409 0.62,-1.234 1.12,-2.515 1.12,-2.832 0,-0.317 1.38,-2.678 3.08,-5.255 3.89,-5.922 4.23,-6.542 4.05,-7.734 -0.1,-0.749 -0.45,-0.975 -1.49,-0.986 -1.1,-0.012 -1.32,-0.182 -1.2,-0.916 0.09,-0.496 0.32,-2.017 0.52,-3.381 z m -63.81,4.227 c -0.03,-0.032 -0.09,0.044 -0.149996,0.239 -0.22,0.724 -0.43,2.347 -0.47,3.607 -0.04,1.26 -0.27,4.387 -0.52,6.945 -0.357,3.665 -0.338,4.766 0.12,5.185 0.43,0.404 0.5,0.402 0.28,0 -0.17,-0.291 -0.1,-2.422 0.14,-4.734 0.589996,-5.589 0.859996,-11.021 0.599996,-11.242 z m -6.969996,1.014 c -0.376,-0.041 -0.363,0.232 -0.338,0.958 0.019,0.558 0.302,1.725 0.62,2.592 l 0.578,1.578 0.732,-1.747 c 0.971,-2.292 0.939,-2.483 -0.423,-3.001 -0.58,-0.22 -0.943,-0.355 -1.169,-0.38 z m 39.759996,3.001 c 1.74,-0.012 4.89,0.343 5.24,0.69 0.13,0.128 -0.12,0.776 -0.57,1.451 -0.44,0.676 -0.88,0.995 -0.98,0.705 -0.1,-0.29 0.04,-0.789 0.31,-1.113 0.76,-0.916 0.13,-1.184 -2.82,-1.184 -1.59,0 -2.55,-0.176 -2.3,-0.408 0.11,-0.097 0.54,-0.137 1.12,-0.141 z m 44.93,1.62 c -0.2,-0.029 -0.4,0.063 -0.51,0.24 -0.15,0.234 -0.07,0.545 0.17,0.69 0.23,0.145 0.54,0.066 0.69,-0.169 0.14,-0.235 0.06,-0.545 -0.17,-0.69 -0.06,-0.037 -0.12,-0.061 -0.18,-0.071 z m -1.75,0.535 c -0.16,-0.045 -0.21,0.075 -0.21,0.353 0,0.326 0.27,0.591 0.6,0.591 0.33,0 0.61,-0.046 0.61,-0.098 0,-0.053 -0.28,-0.318 -0.61,-0.592 -0.17,-0.14 -0.3,-0.227 -0.39,-0.254 z m -88.983996,0.705 c -3.453,-0.029 -7.684,0.631 -10.975,1.86 l -2.451,0.915 2.606,1.325 2.621,1.31 1.183,-1.409 c 1.338,-1.585 4.597,-2.941 5.1,-2.127 0.22,0.356 0.647,0.342 1.522,-0.057 0.669,-0.305 1.306,-0.482 1.409,-0.38 0.236,0.236 -2.1,3.106 -2.973,3.649 -0.362,0.225 -1.511,1.183 -2.55,2.141 -1.519,1.401 -1.937,1.613 -2.156,1.043 -0.185,-0.484 -0.099,-0.609 0.282,-0.381 0.439,0.264 0.442,0.194 0,-0.352 -0.461,-0.569 -0.405,-0.847 0.324,-1.507 0.489,-0.443 0.781,-0.983 0.648,-1.198 -0.132,-0.214 0.485,-0.818 1.367,-1.338 1.987,-1.173 2.021,-1.359 0.141,-0.831 -1.834,0.515 -3.305,2.169 -4.001,4.494 -0.342,1.142 -0.387,2.125 -0.127,2.705 0.404,0.9 0.419,0.892 2,-0.183 1.058,-0.72 1.992,-1.007 2.762,-0.86 1.005,0.192 1.53,-0.222 3.775,-3.001 2.758,-3.412 3.568,-4.055 5.241,-4.113 0.851,-0.03 0.724,-0.192 -0.746,-0.888 -1.131,-0.535 -2.93,-0.8 -5.002,-0.817 z m 51.083996,0.408 c 1.34,-0.026 3.55,2.055 4.4,4.128 l 0.67,1.663 -2.14,0.662 c -1.17,0.36 -2.72,0.664 -3.44,0.69 -1.6,0.058 -4.77,-0.849 -4.77,-1.366 0,-0.549 1.08,-0.468 1.67,0.126 0.68,0.675 3.51,0.675 5.88,0 l 1.91,-0.549 -0.91,-1.775 c -0.56,-1.087 -1.56,-2.119 -2.59,-2.663 -1.39,-0.73 -1.51,-0.899 -0.68,-0.916 z m -46.701996,2.691 c -0.427,0 -1.554,1.018 -2.508,2.269 -0.954,1.25 -2.399,2.822 -3.198,3.493 -1.295,1.088 -1.479,1.546 -1.691,4.157 l -0.225,2.928996 0.803,-1.844996 c 0.551,-1.266 1.409,-2.202 2.761,-3 1.081,-0.639 2.096,-1.084 2.254,-0.987 0.159,0.098 0.422,1.109 0.592,2.24 0.267,1.781 0.445,2.032 1.296,1.916 0.804,-0.111 1.003,0.116 1.113,1.256 0.101,1.029996 -0.101,1.489996 -0.775,1.799996 -0.862,0.4 -0.86,0.47 -0.126,1.37 0.749,0.92 0.796,0.92 1.563,0.11 0.52,-0.55 1.413,-0.83 2.635,-0.83 2.083,0 2.067,0.15 0.648,-4.282996 -0.397,-1.24 -1.168,-3.652 -1.705,-5.354 -1.084,-3.436 -2.264,-5.241 -3.437,-5.241 z m -18.104,0.127 c -0.268,-0.172 -4.576,2.195 -5.325,2.945 -0.434,0.434 -1.519,1.353 -2.423,2.042 -0.905,0.69 -2.183,1.953 -2.832,2.804 -0.649,0.851 -1.117,1.521 -1.043,1.493 0.075,-0.027 1.561,-0.633 3.297,-1.338 1.736,-0.705 4.069,-1.535 5.184,-1.86 1.702,-0.495 2.009,-0.759 1.916,-1.62 -0.06,-0.565 0.193,-1.761 0.564,-2.648 0.371,-0.888 0.676,-1.692 0.676,-1.79 0,-0.011 -0.005,-0.022 -0.014,-0.028 z m 114.119996,1.226 c 1.21,0 1.34,0.099 0.86,0.676 -0.31,0.372 -0.84,0.676 -1.18,0.676 -0.35,0 -0.62,0.217 -0.62,0.479 0,0.263 -0.21,0.351 -0.45,0.198 -0.25,-0.154 -0.46,-0.066 -0.46,0.197 0,0.262 -0.31,0.479 -0.67,0.479 -0.37,0 -1.53,0.384 -2.59,0.859 -1.06,0.476 -2.93,1.281 -4.17,1.789 -3.51,1.438 -4.32,1.182 -2.3,-0.732 1.36,-1.288 9.71,-4.621 11.58,-4.621 z m 8.4,0.451 c 0.7,0 1.6,1.257 1.35,1.902 -0.12,0.313 -1.16,0.844 -2.31,1.183 -1.78,0.523 -2.01,0.726 -1.54,1.296 1.2,1.437 -2.89,2.633 -5.04,1.479 -0.91,-0.488 -7.37,0.907 -9.45,2.043 -1.06,0.577 -0.87,0.618 2.46,0.662 1.99,0.027 4.26,0.149 5.07,0.254 1.63,0.212 5.18,2.354996 4.84,2.914996 -0.12,0.2 -1.22,0.48 -2.43,0.65 -1.21,0.17 -2.98,0.59 -3.94,0.94 -1.95,0.72 -3.87,0.53 -5.48,-0.53 l -1.09,-0.71 1.06,-0.73 c 0.58,-0.4 1.27,-0.959996 1.52,-1.249996 0.25,-0.3 0.76,-0.66 1.13,-0.806 0.37,-0.147 -0.34,-0.252 -1.58,-0.225 -3.13,0.067 -3.38,0.028 -3.38,-0.677 0,-0.769 1.48,-1.407 6.39,-2.719 2.66,-0.71 4.16,-0.895 4.91,-0.62 0.59,0.218 1.77,0.328 2.65,0.254 1.36,-0.115 1.58,-0.274 1.46,-1.141 -0.09,-0.648 0.09,-1.015 0.51,-1.015 0.36,0 1.4,-0.318 2.32,-0.704 1.63,-0.679 1.66,-0.73 0.89,-1.578 -0.44,-0.482 -0.58,-0.873 -0.32,-0.873 z m -83.28,0.183 c -0.14,-0.009 -0.27,-0.008 -0.41,0 -0.37,0.02 -0.74,0.099 -1.11,0.239 -0.62,0.237 -3.17,1.976 -5.66,3.86 -5.08,3.831 -5.509996,4.684 -2.94,5.902 0.89,0.42 1.94,1.289996 2.34,1.929996 0.41,0.65 0.8,1.27 0.88,1.37 0.07,0.1 0.52,-0.17 1,-0.61 1.08,-0.98 1.6,-0.68 2.74,1.57 0.62,1.210001 0.91,2.630001 0.91,4.630001 0,2.02 0.19,3.08 0.66,3.47 0.59,0.49 0.65,0.26 0.44,-1.65 -0.41,-3.55 -1.08,-5.980001 -2.26,-8.310001 -1.3,-2.579996 -1.43,-5.431996 -0.37,-8.089996 0.97,-2.413 1.71,-2.219 3.96,1.071 1,1.452 1.84,2.467 1.89,2.254 0.05,-0.214 0.42,-1.472 0.83,-2.804 0.73,-2.372 0.73,-2.453 -0.22,-3.466 -0.79,-0.842 -1.72,-1.305 -2.68,-1.366 z m -17.187996,1.437 c -0.185,0.015 -0.171,0.272 -0.056,0.873 0.212,1.107 0.59,1.369 1.155,0.803 0.513,-0.513 0.334,-1 -0.535,-1.465 -0.272,-0.146 -0.453,-0.22 -0.564,-0.211 z m -31.487,0.239 c -0.028,0.002 -0.052,0.009 -0.056,0.028 -0.019,0.077 -0.1,0.496 -0.184,0.93 -0.182,0.956 -0.057,0.974 0.634,0.141 0.361,-0.435 0.38,-0.716 0.057,-0.916 -0.195,-0.12 -0.367,-0.188 -0.451,-0.183 z m -50.845,0.888 c 0.763,0.039 0.819,0.112 0.225,0.268 -0.433,0.113 -0.789,0.39 -0.789,0.619 0,0.23 -0.101,0.423 -0.225,0.423 -0.124,0 -0.225,-0.304 -0.225,-0.676 0,-0.416 0.39,-0.666 1.014,-0.634 z m -2.141,0.93 c 0.724,0.01 0.68,0.09 -0.226,0.38 -1.5409997,0.494 -2.7265001,0.494 -1.5779997,0 0.496,-0.213 1.3079997,-0.388 1.8039997,-0.38 z m -4.6778001,0.422 c 0.3269,-0.001 0.6636,0.031 0.944,0.085 0.5608,0.108 0.2169,0.206 -0.7749,0.211 -0.9918,0.005 -1.4595,-0.084 -1.0284,-0.197 0.2155,-0.056 0.5325,-0.097 0.8593,-0.099 z m 97.5389961,0.085 c -0.6,-0.028 -3.33,1.814 -3.58,2.465 -0.13,0.31 -0.15,0.564 -0.07,0.564 0.42,0 3.93,-2.812 3.74,-3.001 -0.02,-0.019 -0.06,-0.026 -0.09,-0.028 z m -6.780996,0.225 c -0.037,-0.008 -0.056,0.027 -0.071,0.099 -0.075,0.372 0.259,1.691 0.747,2.93 0.487,1.24 0.89,1.926 0.901,1.536 0.03,-0.992 -1.226,-4.487 -1.577,-4.565 z m 12.330996,1.156 c -0.05,-0.059 -0.17,0.213 -0.4,0.746 -0.62,1.466 -0.24,3.783 1.13,6.802996 0.6,1.34 1.24,3.200001 1.41,4.130001 0.49,2.7 0.94,1.96 0.81,-1.35 -0.06,-1.680001 -0.01,-2.690001 0.12,-2.260001 0.13,0.44 0.4,0.79 0.59,0.79 0.53,0 1.39,3.260001 1.39,5.270001 0,1.95 -1.12,4.65 -1.93,4.65 -0.27,0 -1.11,-0.56 -1.86,-1.24 l -1.35,-1.24 1.26,1.72 c 0.69,0.95 1.17,1.81 1.07,1.92 -0.11,0.1 -1.09,-0.32 -2.19,-0.93 -1.09,-0.62 -2.69,-1.48 -3.56,-1.92 -0.87,-0.44 -1.65,-0.94 -1.74,-1.13 -0.08,-0.18 -0.4,-0.34 -0.7,-0.34 -0.48,0 -2.09,-3.61 -2.08,-4.67 0,-0.36 1.98,-0.25 3.62,0.19 0.51,0.14 0.62,-0.13 0.52,-1.12 -0.3,-2.780001 -2.2,-4.939997 -4.62,-5.289997 -1.069996,-0.15 -1.089996,-0.07 -1.119996,3.009996 -0.01,1.73 -0.27,3.580001 -0.56,4.110001 -0.43,0.78 -0.4,1.02 0.14,1.22 0.43,0.17 0.68,0.89 0.68,2.03 0,1.98 0.779996,2.89 2.479996,2.89 1.2,0 1.52,0.66 0.5,1.04 -0.33,0.13 -1.34,-0.19 -2.24,-0.71 l -1.619996,-0.98 -1.377,1.3 c -0.755,0.7 -1.461,1.78 -1.578,2.38 -0.234,1.21 -1.841,3.05 -2.282,2.61 -0.269,-0.27 -0.06,-0.74 1.761,-3.96 0.556,-0.99 0.875,-2.58 0.958,-4.82 0.139,-3.77 -0.035,-3.75 -1.536,0.1 -0.58,1.49 -1.632,3.74 -2.339,5 -0.706,1.26 -1.188,2.4 -1.056,2.54 0.4,0.4 0.716,2.68 0.338,2.45 -0.476,-0.3 -0.438,3.37 0.042,4.12 0.25,0.4 -0.118,1.3 -1.07,2.63 -0.798,1.11 -1.356,2.11 -1.24,2.22 0.115,0.12 1.368,-1.5 2.789,-3.59 1.421,-2.09 3.066,-4.26 3.663,-4.82 1.194,-1.12 1.405,-2.02 0.536,-2.37 -0.364,-0.14 -0.003,-0.74 1.014,-1.69 0.868,-0.8 1.277,-1.35 0.902,-1.21 -0.372,0.14 -1.082,0.43 -1.578,0.62 -0.802,0.32 -0.832,0.27 -0.282,-0.41 0.444,-0.54 1.302,-0.76 3.075,-0.76 2.079996,0 2.499996,0.14 2.699996,0.9 0.2,0.77 4.86,4.06 5.74,4.06 0.15,0 0.47,-0.5 0.7,-1.1 0.27,-0.71 0.69,-1.03 1.23,-0.93 3.23,0.65 3.34,0.72 4.09,2.5 l 0.78,1.79 0.08,-4.1 c 0.09,-3.86 0.98,-9.66 1.99,-12.9 0.29,-0.930001 0.3,-2.030001 0.01,-3.150001 -0.23,-0.95 -0.58,-2.729996 -0.76,-3.973996 -0.18,-1.24 -0.38,-2.051 -0.45,-1.803 -0.07,0.248 -0.25,1.028 -0.41,1.732 -0.19,0.866 -0.49,1.195 -0.93,1.029 -0.35,-0.136 -0.82,0.081 -1.04,0.476 -0.36,0.65 -0.62,0.61 -2.38,-0.363 -1.8,-0.992 -1.97,-1.235 -1.87,-2.663 0.05,-0.742 0.07,-1.125 0.03,-1.183 z m -20.009996,0.295 c -0.115,0 -0.995,0.491 -1.958,1.099 -1.351,0.853 -1.924,1.624 -2.508,3.385 -0.836,2.509996 -0.768,3.699996 0.127,2.259996 0.317,-0.5 0.75,-0.81 0.972,-0.67 0.223,0.14 0.534,0.04 0.691,-0.21 0.156,-0.26 1.185,-0.42 2.282,-0.38 1.747,0.06 1.926,0.15 1.437,0.77 -0.498,0.64 -0.427,0.63 0.578,-0.01 0.619,-0.4 1.183,-1.07 1.267,-1.499996 0.121,-0.61 -0.117,-0.73 -1.127,-0.62 -1.231,0.15 -1.276,0.08 -1.408,-1.982 -0.076,-1.178 -0.237,-2.142 -0.353,-2.142 z m 9.97,2.015 c -0.02,-0.002 -0.05,0.036 -0.08,0.113 -0.12,0.305 -0.14,0.914 -0.03,1.352 0.12,0.434 0.22,0.194 0.23,-0.549 0,-0.558 -0.04,-0.909 -0.12,-0.916 z m 28.389996,1.113 -1.12,0.526 c -0.62,0.28 -1.54,0.87 -2.03,1.319996 -0.56,0.5 -1.48,0.77 -2.41,0.7 -1.87,-0.13 -2.17,0.41 -2.5,4.370001 -0.13,1.68 -0.37,3.26 -0.52,3.5 -0.38,0.62 0.38,0.49 0.93,-0.16 0.26,-0.3 0.72,-1.4 1.03,-2.45 0.41,-1.38 0.8,-1.920001 1.42,-1.920001 0.63,0 0.82,-0.26 0.68,-0.96 -0.18,-0.96 1.07,-2.49 3.4,-4.139996 z m 57.93,0.536 c -0.2,0 -0.4,0.02 -0.56,0.08 -0.31,0.13 -0.06,0.24 0.56,0.24 0.62,0 0.88,-0.11 0.57,-0.24 -0.16,-0.06 -0.36,-0.08 -0.57,-0.08 z m -87.216996,1.509996 c -0.026,-0.01 -0.053,0.03 -0.084,0.11 -0.124,0.3 -0.143,0.91 -0.028,1.35 0.114,0.44 0.216,0.2 0.225,-0.55 0.007,-0.56 -0.035,-0.91 -0.113,-0.91 z m 9.256996,2.04 c -1.35,0 -1.71,3.420001 -0.4,3.760001 0.48,0.13 0.82,0.64 0.84,1.27 0.01,0.58 0.29,1.66 0.63,2.41 0.61,1.32 0.63,1.29 0.66,-1.48 0.04,-2.84 -0.87,-5.960001 -1.73,-5.960001 z m -16.948996,0.44 c -0.418,-0.12 -0.65,1.33 -0.634,4.270001 0.013,2.34 -0.112,5.18 -0.282,6.31 -0.338,2.25 0.013,2.82 0.465,0.76 0.156,-0.71 0.58,-1.67 0.944,-2.14 2.092,-2.71 4.255,-5.8 4.255,-6.09 0,-0.18 0.481,-0.91 1.071,-1.610001 l 1.07,-1.26 -1.986,0.15 c -1.376,0.11 -2.12,0.42 -2.437,1.02 -0.627,1.170001 -1.264,1.070001 -1.776,-0.27 -0.269,-0.71 -0.5,-1.09 -0.69,-1.14 z m -3.987,0.55 c -0.031,-0.02 -0.075,-0.01 -0.113,0.02 -0.149,0.15 -0.158,0.55 -0.028,0.88 0.144,0.36 0.246,0.24 0.268,-0.28 0.015,-0.36 -0.035,-0.59 -0.127,-0.62 z m 1.564,1.660001 c -0.082,-0.01 -0.187,0.04 -0.31,0.17 -0.144,0.14 -0.186,0.73 -0.099,1.31 l 0.155,1.05 0.31,-1.11 c 0.234,-0.83 0.189,-1.4 -0.056,-1.42 z m 1.028,0.65 c -0.017,-0.01 -0.036,0 -0.056,0.01 -0.448,0.28 -1.117,4.38 -1.705,10.55 -0.147,1.55 -0.176,2.82 -0.07,2.82 0.106,0 0.515,-1.27 0.901,-2.82 0.889,-3.56 1.481,-10.5 0.93,-10.56 z m 75.073996,0.42 c -0.01,-0.03 -0.26,0.09 -0.74,0.32 -0.56,0.27 -1.02,0.59 -1.02,0.71 0,0.34 0.22,0.24 1.14,-0.5 0.42,-0.33 0.64,-0.5 0.62,-0.53 z m -130.859996,0.35 c -0.725,0.01 -0.529,0.24 0.803,0.9 2.225,1.11 2.586,1.11 1.226,-0.03 -0.585,-0.48 -1.498,-0.88 -2.029,-0.87 z m 70.313996,0.13 c -0.12,-0.03 -0.29,0.17 -0.42,0.51 -0.31,0.79 -0.05,0.93 0.39,0.21 0.17,-0.27 0.21,-0.58 0.09,-0.69 -0.02,-0.02 -0.04,-0.03 -0.06,-0.03 z m -58.915996,0.08 0.324,1.13 c 0.602,2.11 0.44,2.86 -0.676,3.13 l -1.071,0.26 1.071,0.54 c 0.588,0.3 2.262,1.06 3.719,1.69 1.457,0.63 2.73,1.14 2.832,1.14 0.565,0 -0.9,-1.78 -1.663,-2.03 -0.499,-0.16 -1.216,-0.89 -1.592,-1.62 -0.375,-0.72 -0.901,-1.31 -1.169,-1.31 -0.276,0 -0.351,-0.33 -0.183,-0.77 0.163,-0.43 0.144,-0.62 -0.042,-0.44 -0.187,0.19 -0.611,-0.12 -0.944,-0.69 z m 60.225996,0.23 c -0.37,0 -0.67,0.07 -0.67,0.17 0,0.09 0.3,0.29 0.67,0.43 0.37,0.15 0.68,0.07 0.68,-0.17 0,-0.24 -0.31,-0.43 -0.68,-0.43 z m -2.28,1.52 c -0.05,-0.01 -0.08,0.01 -0.11,0.04 -0.14,0.14 0,0.5 0.31,0.8 0.44,0.45 0.49,0.39 0.25,-0.25 -0.13,-0.33 -0.31,-0.56 -0.45,-0.59 z m -60.974996,1.63 c -0.657,0.01 -0.667,0.08 -0.085,0.45 0.883,0.58 1.48,0.58 1.127,0 -0.153,-0.24 -0.623,-0.45 -1.042,-0.45 z m 32.713,0.02 c -0.133,-0.01 -0.248,-0.01 -0.338,0 -0.121,0 -0.202,0.02 -0.226,0.04 -0.094,0.09 0.637,1.37 1.621,2.83 2.089,3.11 1.824,3.93 -0.832,2.58 -1.048,-0.53 -2.202,-0.8 -2.789,-0.65 -0.868,0.23 -3.482,-0.65 -6.453,-2.17 -0.43,-0.22 -1.063,-0.39 -1.408,-0.39 -0.345,0 -0.875,-0.31 -1.184,-0.68 -1.571,-1.89 -1.835,0.19 -0.282,2.23 0.832,1.09 1.04,1.83 0.916,3.29 -0.184,2.17 0.019,2.35 3.874,3.41 4.599,1.27 12.58,5.05 14.371,6.79 1.912,1.87 4.03,6.4 3.324,7.1 -0.288,0.29 -1.979,-0.51 -4.874,-2.32 -2.439,-1.52 -4.174,-2.46 -3.86,-2.08 0.314,0.37 1.619,1.34 2.902,2.14 4.527,2.8 5.72,3.69 5.72,4.25 0,0.31 0.312,0.68 0.704,0.83 1.718,0.66 1.981,0.38 1.268,-1.41 -0.372,-0.93 -0.968,-2.3 -1.324,-3.04 -0.356,-0.74 -0.852,-2.57 -1.099,-4.06 -0.421,-2.53 -0.622,-2.87 -3.269,-5.28 -3.174,-2.89 -7.318,-5.31 -9.087,-5.31 -0.647,0 -1.169,-0.21 -1.169,-0.45 0,-0.54 2.464,-0.1 4.072,0.7 0.632,0.32 1.545,0.54 2.028,0.5 0.484,-0.05 0.843,0.15 0.789,0.43 -0.056,0.3 0.25,0.43 0.747,0.3 0.59,-0.16 1.499,0.41 2.93,1.84 1.91,1.91 2.893,2.64 2.311,1.69 -0.131,-0.21 -0.546,-2.18 -0.93,-4.38 -0.66,-3.78 -0.817,-4.12 -2.804,-6.14 -1.655,-1.68 -2.52,-2.19 -4.071,-2.42 -0.609,-0.09 -1.179,-0.16 -1.578,-0.17 z m 44.091996,0.21 c -0.06,-0.02 -0.12,0.03 -0.16,0.15 -0.11,0.33 0.02,0.81 0.28,1.07 0.33,0.34 0.39,0.16 0.19,-0.59 -0.1,-0.38 -0.2,-0.6 -0.31,-0.63 z m 54.26,0.73 c -0.16,0 -0.33,0.02 -0.49,0.09 -0.36,0.14 -0.26,0.24 0.26,0.26 0.48,0.02 0.75,-0.09 0.6,-0.24 -0.08,-0.07 -0.21,-0.1 -0.37,-0.11 z m -149.659996,0.45 c -0.242,-0.06 -0.958,0.11 -1.986,0.55 -0.735,0.32 -1.141,0.69 -0.902,0.83 0.239,0.15 1.147,-0.1 2.015,-0.56 0.887,-0.47 1.116,-0.76 0.873,-0.82 z m 63.806,0.1 c -0.043,0.01 -0.119,0.27 -0.211,0.75 -0.215,1.11 -0.538,4.82 -0.718,8.23 -0.181,3.4 -0.222,6.19 -0.099,6.19 0.123,0 0.615,-1.61 1.099,-3.59 0.733,-2.99 0.775,-3.64 0.253,-3.84 -0.497,-0.2 -0.572,-1.14 -0.38,-4.64 0.109,-1.97 0.136,-2.97 0.071,-3.08 -0.005,-0.01 -0.008,-0.02 -0.015,-0.02 z m 32.785996,2.23 c -0.39,-0.04 -0.54,0.12 -0.54,0.53 0,0.41 -0.2,0.62 -0.45,0.47 -0.69,-0.43 -0.55,-0.02 0.38,1.05 1.03,1.19 1.08,1.19 2.1,0.06 0.9,-0.99 0.64,-1.5 -1.01,-2 -0.19,-0.06 -0.35,-0.1 -0.48,-0.11 z m 17.41,0.88 c -0.07,0.02 -0.27,0.12 -0.59,0.27 -1.91,0.92 -4.21,1.88 -4.55,1.88 -0.2,0 -1.22,0.41 -2.28,0.93 -1.53,0.74 -2.16,1.41 -3.02,3.26 -1.31,2.83 -5.03,7.96 -5.82,8.01 -1.5,0.09 2.88,1.25 4.85,1.28 1.24,0.02 3.03,0.25 3.99,0.52 1.98,0.55 5.94,3.26 6.62,4.52 0.48,0.9 1.99,1.16 2.45,0.42 0.57,-0.92 -2.02,-4.96 -3.95,-6.17 -1.05,-0.65 -2.04,-1.39 -2.19,-1.63 -0.18,-0.27 -2.02,-0.06 -4.88,0.55 -2.52,0.54 -4.93,0.9 -5.35,0.8 -0.42,-0.1 0.06,-0.33 1.06,-0.52 0.99,-0.18 4.03,-0.8 6.76,-1.38 4.5,-0.95 16.42,-1.92 13.75,-1.11 -0.62,0.18 -2.45,0.36 -4.06,0.39 -1.61,0.03 -3.74,0.19 -4.73,0.37 l -1.81,0.31 1.95,0.28 c 1.86,0.26 7.82,-0.41 11.9,-1.35 2.56,-0.59 7.88,-0.59 8.24,0 0.16,0.26 0.06,0.75 -0.22,1.1 -0.41,0.49 -0.33,0.72 0.38,1.1 1.57,0.84 1.94,0.58 1.2,-0.86 -0.39,-0.75 -0.55,-1.37 -0.36,-1.38 0.69,-0.04 -5,-2.23 -5.79,-2.23 -0.43,0 -0.94,-0.23 -1.11,-0.51 -0.2,-0.33 0.03,-0.41 0.66,-0.22 3.51,1 3.58,0.95 0.83,-0.58 -1.68,-0.94 -4.08,-1.21 -6.11,-0.66 -0.68,0.18 -0.86,0.41 -0.52,0.62 0.91,0.56 -1.43,0.74 -3.61,0.28 l -2.03,-0.44 1.81,-0.43 c 0.99,-0.25 1.92,-0.66 2.08,-0.91 0.34,-0.52 3.64,-1.72 3.93,-1.43 0.11,0.1 -0.29,0.39 -0.88,0.62 -0.96,0.37 -0.89,0.41 0.57,0.35 1.44,-0.06 1.58,-0.16 1.06,-0.75 -0.35,-0.39 -0.51,-1.19 -0.37,-1.91 0.14,-0.69 0.09,-1.24 -0.1,-1.24 -1.1,0 -4.25,1.19 -5.46,2.08 -7.3,5.35 -9.81,6.24 -5.31,1.9 1.38,-1.33 2.72,-2.79 2.98,-3.27 0.45,-0.8 0.37,-0.81 -1.05,0.08 -0.84,0.51 -1.61,0.94 -1.74,0.94 -0.12,0 -0.81,0.21 -1.5,0.48 -0.7,0.26 -1.53,0.49 -1.85,0.49 -0.32,0 -1.12,0.42 -1.77,0.93 -0.66,0.51 -1.19,0.72 -1.19,0.45 0,-0.26 1.25,-1.44 2.78,-2.62 1.52,-1.18 3.2,-2.51 3.72,-2.96 0.44,-0.38 0.65,-0.58 0.66,-0.63 0,-0.01 0,-0.02 -0.03,-0.02 z m -7.21,0.88 c -0.02,-0.01 -0.05,0 -0.07,0 -0.1,0.01 -0.22,0.1 -0.38,0.27 -0.3,0.29 -0.44,0.63 -0.31,0.76 0.13,0.12 0.37,0.09 0.53,-0.07 0.17,-0.17 0.31,-0.51 0.31,-0.76 0,-0.11 -0.03,-0.18 -0.08,-0.2 z m -76.628996,2.63 c -0.41,-0.01 -4.443,1.87 -8.96,4.16 -7.89,4 -9.502,4.86 -11.482,6.11 -0.864,0.55 -0.871,0.57 0.113,0.3 0.998,-0.27 0.996,-0.23 -0.31,1.83 -1.174,1.85 -1.263,2.2 -0.69,2.78 0.36,0.36 0.662,0.87 0.662,1.14 0,0.72 1.653,-0.92 2.677,-2.65 0.695,-1.18 0.747,-1.51 0.253,-1.51 -2.082,0 -0.25,-2.67 2.93,-4.28 2.936,-1.49 6.873,-2.96 7.157,-2.68 0.128,0.13 -0.197,0.34 -0.732,0.48 -0.536,0.14 -1.34,0.8 -1.775,1.45 -0.803,1.21 -0.84,1.33 -1.141,3.06 -0.094,0.53 -0.461,1.33 -0.818,1.76 -0.356,0.43 -0.658,1.11 -0.662,1.51 -0.004,0.4 -0.277,0.67 -0.606,0.6 -0.328,-0.07 -0.459,0.09 -0.295,0.36 0.163,0.26 -0.03,0.97 -0.423,1.57 -0.393,0.6 -0.705,1.3 -0.705,1.55 0,0.26 0.155,0.48 0.353,0.48 0.664,0 3.634,-3.38 4.128,-4.69 0.458,-1.22 0.548,-1.25 1.31,-0.56 0.447,0.4 1.01,0.74 1.254,0.74 1.175,0 4.677,-5.23 4.677,-6.98 0,-1.01 2.231,-5.3 3.099,-5.96 0.666,-0.51 0.67,-0.55 -0.014,-0.57 z m 65.438996,1.79 c -0.02,-0.02 -0.2,0.12 -0.56,0.4 -0.44,0.34 -0.79,0.69 -0.79,0.79 0,0.37 0.37,0.13 0.96,-0.62 0.28,-0.36 0.42,-0.54 0.39,-0.57 z m 32.87,0.06 c -0.16,-0.01 -0.33,0.02 -0.49,0.08 -0.36,0.15 -0.26,0.25 0.26,0.27 0.48,0.02 0.75,-0.09 0.6,-0.24 -0.08,-0.07 -0.21,-0.11 -0.37,-0.11 z m -54.535996,0.67 c -0.106,0.01 -0.238,0.06 -0.395,0.15 -1.037,0.55 -7.615,10.01 -8.269,11.89 -0.425,1.21 0.013,3.45 1.38,7.03 0.164,0.43 0.061,0.52 -0.324,0.28 -0.452,-0.28 -0.46,-0.15 -0.056,0.6 0.586,1.1 1.021,1.29 0.634,0.29 -0.52,-1.36 0.259,-0.62 2.24,2.14 2.386,3.32 5.412,6.35 5.875,5.89 0.179,-0.18 0.199,-2.78 0.042,-5.77 -0.478,-9.07 -0.524,-10.17 -0.592,-16.61 -0.05,-4.86 -0.076,-5.9 -0.535,-5.89 z m -32.093,0 c -0.244,0.01 0.015,0.21 0.563,0.62 l 1.127,0.85 -2.592,-0.25 -2.592,-0.27 v 2.03 c 0,1.26 0.257,2.26 0.676,2.6 0.372,0.31 0.676,0.74 0.676,0.96 0,0.63 -1.114,0.45 -3.226,-0.51 -1.081,-0.49 -2.821,-0.89 -3.874,-0.9 -1.578,-0.01 -1.916,0.15 -1.916,0.85 0,0.46 0.304,1.1 0.676,1.41 1.111,0.92 0.769,1.35 -1.057,1.35 -1.22,0 -2.011,0.3 -2.705,1.04 -1.275,1.36 -1.235,2.02 0.155,2.65 0.785,0.36 1.062,0.75 0.888,1.3 -0.222,0.7 0.218,0.83 3.846,1.11 2.982,0.23 4.366,0.55 5.086,1.15 0.851,0.72 0.905,0.9 0.324,1.3 -0.372,0.26 -1.184,0.59 -1.803,0.73 -0.62,0.15 -1.736,0.53 -2.48,0.85 -0.744,0.32 -2.164,0.85 -3.156,1.18 -0.992,0.33 -2.13,0.85 -2.522,1.17 -0.846,0.7 -1.48,0.77 -1.084,0.13 0.17,-0.28 -0.149,-0.25 -0.818,0.05 -1.031,0.47 -1.911,0.19 -3.888,-1.26 -0.106,-0.08 0.199,-0.45 0.676,-0.83 0.497,-0.4 0.101,-0.31 -0.929,0.21 -1.914,0.96 -3.382,2.01 -3.382,2.39 0,0.59 2.822,1.32 4.579,1.19 1.478,-0.12 1.958,-0.01 1.958,0.49 0,0.68 -0.19,0.79 -5.255,3.14 -2.021,0.94 -3.505,2.03 -4.592,3.35 -2.028,2.48 -2.154,3.07 -0.747,3.44 0.898,0.24 1.089,0.54 0.986,1.51 -0.182,1.7 0.191,1.5 0.831,-0.44 0.449,-1.36 0.624,-1.51 0.972,-0.89 0.525,0.94 1.332,0.52 0.944,-0.49 -0.211,-0.55 -0.106,-0.67 0.437,-0.46 0.522,0.2 0.663,0.09 0.479,-0.38 -0.142,-0.37 -0.076,-0.63 0.141,-0.57 0.216,0.06 0.842,-0.13 1.395,-0.43 0.886,-0.5 0.97,-0.47 0.704,0.22 -0.175,0.46 0.621,0.02 1.916,-1.06 4.111,-3.41 9.256,-6.54 14.187,-8.63 6.276,-2.67 7.808,-3.25 11.665,-4.41 l 4.241,-1.27 -3.339,-0.58 c -1.833,-0.31 -3.6,-0.48 -3.931,-0.36 -0.33,0.11 -2.536,-0.29 -4.903,-0.91 -2.366,-0.61 -4.489,-1 -4.705,-0.87 -0.216,0.13 -0.38,0 -0.38,-0.29 0,-0.68 3.274,-0.3 8.114,0.93 0.868,0.21 2.796,0.53 4.283,0.7 1.488,0.17 4.087,0.58 5.777,0.93 1.689,0.34 3.921,0.62 4.959,0.62 1.715,-0.01 1.788,-0.06 0.915,-0.56 -0.527,-0.31 -1.44,-0.85 -2.028,-1.2 -1.012,-0.6 -1.02,-0.58 -0.381,0.2 0.372,0.45 0.45,0.73 0.183,0.63 -0.267,-0.1 -1.599,-1.5 -2.958,-3.11 -2.026,-2.41 -2.825,-3.03 -4.466,-3.44 -3.655,-0.92 -9.901,-4.13 -9.89,-5.09 0.002,-0.15 0.688,-0.75 1.535,-1.32 1.672,-1.14 2.772,-0.93 3.959,0.76 0.323,0.46 2.114,1.82 3.973,3.01 1.86,1.2 5.043,3.25 7.087,4.57 3.175,2.05 4.629,2.78 4.621,2.29 -0.001,-0.06 -0.473,-1.06 -1.057,-2.21 -1.185,-2.33 -4.198,-5.79 -5.044,-5.79 -0.588,0 -5.023,-1.88 -7.086,-3 -0.687,-0.37 -2.619,-1.04 -4.283,-1.51 -1.481,-0.41 -2.222,-0.62 -2.465,-0.62 z m 27.148,0.88 c 0.165,0.02 0.296,0.47 0.296,1.11 0,1.42 -0.375,1.41 -0.592,-0.01 -0.073,-0.48 0.026,-0.96 0.225,-1.09 0.025,-0.01 0.047,-0.02 0.071,-0.01 z m 7.511,2.53 c -0.03,-0.01 -0.08,-0.01 -0.11,0.03 -0.15,0.15 -0.16,0.55 -0.03,0.88 0.14,0.36 0.24,0.24 0.26,-0.29 0.02,-0.35 -0.03,-0.58 -0.12,-0.62 z m 53.599996,2.23 c -0.17,0 -0.35,0.01 -0.53,0.03 -1.19,0.15 -1.15,0.18 0.41,0.39 0.97,0.14 1.51,0.07 1.28,-0.15 -0.16,-0.17 -0.63,-0.27 -1.16,-0.27 z m -3.39,0 c -0.29,0 -0.57,0.03 -0.79,0.08 -0.43,0.12 -0.08,0.2 0.79,0.2 0.87,0 1.22,-0.08 0.79,-0.2 -0.22,-0.05 -0.51,-0.08 -0.79,-0.08 z m -2.3,0.45 c -0.15,-0.01 -0.33,0.02 -0.49,0.09 -0.36,0.14 -0.26,0.24 0.27,0.26 0.47,0.02 0.74,-0.09 0.59,-0.24 -0.08,-0.07 -0.21,-0.1 -0.37,-0.11 z m -42.5,0.51 c 0.05,0.03 0.01,0.2 -0.11,0.52 -0.48,1.23 1.5,3.01 2.94,2.66 l 1.17,-0.28 -1.35,1.37 c -1.65,1.66 -1.71,1.68 -1.38,0.64 0.16,-0.51 -0.1,-1.15 -0.69,-1.69 -1.51,-1.36 -1.85,-2.27 -1.08,-2.91 0.29,-0.24 0.44,-0.34 0.5,-0.31 z m 12.59,0.22 c -0.35,-0.07 -0.31,0.52 0.03,1.81 0.29,1.07 0.41,1.11 1.59,0.63 0.66,-0.26 0.58,-0.48 -0.56,-1.62 -0.5,-0.5 -0.85,-0.77 -1.06,-0.82 z m -1.46,0.02 c -0.06,-0.01 -0.1,0.1 -0.1,0.32 -0.01,0.5 0.28,1.41 0.63,2.03 0.81,1.41 0.81,0.73 0,-1.35 -0.25,-0.65 -0.43,-0.99 -0.53,-1 z m 5.35,3.25 c -1.15,0 -1.58,0.23 -1.76,0.9 -0.33,1.25 -1.01,1.14 -0.73,-0.11 0.17,-0.81 0.14,-0.88 -0.24,-0.34 -0.26,0.37 -0.64,0.58 -0.83,0.45 -0.2,-0.12 -0.43,0.26 -0.51,0.86 -0.08,0.6 -0.44,1.37 -0.79,1.72 -0.35,0.35 -0.67,1.13 -0.7,1.73 -0.04,0.61 -0.09,1.34 -0.12,1.62 -0.02,0.29 0.16,0.59 0.41,0.67 0.52,0.15 1.64,-0.98 1.5,-1.51 -0.38,-1.4 2.47,-3.81 3.64,-3.09 0.79,0.49 2.75,-0.26 2.75,-1.05 0,-1.19 -0.94,-1.85 -2.62,-1.85 z m -3.41,1.44 c 0.09,0.03 0.14,0.26 0.13,0.62 -0.02,0.52 -0.13,0.64 -0.27,0.28 -0.13,-0.32 -0.12,-0.72 0.03,-0.87 0.04,-0.04 0.08,-0.04 0.11,-0.03 z m -59.830996,0.87 c 0.156,0.01 0.291,0.04 0.366,0.11 0.15,0.15 -0.117,0.26 -0.592,0.24 -0.525,-0.02 -0.627,-0.12 -0.267,-0.26 0.162,-0.07 0.336,-0.09 0.493,-0.09 z m 73.750996,1.76 c -0.25,0 -0.15,0.2 0.23,0.44 0.37,0.24 0.88,0.44 1.12,0.44 0.25,0 0.15,-0.2 -0.22,-0.44 -0.37,-0.24 -0.88,-0.44 -1.13,-0.44 z m -13,0.16 c -0.12,0 -0.15,0.18 -0.03,0.48 0.3,0.78 0.63,0.93 0.63,0.28 0,-0.23 -0.2,-0.55 -0.45,-0.71 -0.06,-0.03 -0.11,-0.05 -0.15,-0.05 z m -36.786996,2.55 c -2.304,-0.03 -4.799,0.13 -6.255,0.46 -5.185,1.18 -6.517,1.6 -12.257,3.92 -5.991,2.42 -10.109,4.56 -12.933,6.69 -0.79,0.6 -1.569,1.09 -1.733,1.09 -0.165,0 -1.217,0.8 -2.339,1.79 -1.122,0.98 -2.219,1.68 -2.437,1.55 -0.218,-0.14 -0.395,-0.01 -0.395,0.26 0,0.28 -0.235,0.36 -0.521,0.19 -0.313,-0.2 -0.409,-0.13 -0.225,0.17 0.411,0.66 -2.151,4.77 -3.551,5.69 -0.613,0.4 -1.113,1.03 -1.113,1.39 0,0.95 0.385,0.83 3.058,-0.98 1.372,-0.94 2.869,-2.45 3.536,-3.58 0.636,-1.09 1.339,-1.86 1.564,-1.72 0.224,0.14 0.408,-0.07 0.408,-0.45 0,-0.68 0.499,-0.9 1.719,-0.73 0.644,0.08 3.996,-1.77 6.171,-3.41 1.896,-1.43 2.948,-0.8 1.676,1.01 -0.869,1.24 -1.699,4.68 -1.127,4.68 0.151,0 1.459,-0.76 2.902,-1.69 2.044,-1.32 2.857,-2.21 3.706,-3.99 1.276,-2.69 3.057,-4.31 5.903,-5.4 1.127,-0.43 2.933,-1.66 4.015,-2.74 1.124,-1.13 2.38,-1.96 2.944,-1.96 0.544,0 0.872,0.2 0.719,0.45 -0.153,0.25 -0.638,0.45 -1.071,0.45 -1.165,0 -3.532,2.69 -3.902,4.45 l -0.324,1.54 1.577,-0.26 1.564,-0.25 -0.211,1.93 c -0.249,2.21 0.462,3.06 1.282,1.51 0.299,-0.57 0.936,-1.44 1.409,-1.93 0.473,-0.5 1.43,-2.22 2.141,-3.83 1.535,-3.48 2.945,-4.23 3.015,-1.61 0.023,0.87 -0.129,1.48 -0.338,1.35 -0.209,-0.13 -0.13,0.44 0.169,1.26 l 0.535,1.48 0.155,-1.29 c 0.138,-1.18 0.192,-1.22 0.747,-0.46 0.548,0.75 0.582,0.72 0.381,-0.34 -0.317,-1.65 0.934,-4.41 1.93,-4.27 0.437,0.07 0.941,0.5 1.127,0.97 0.324,0.83 0.336,0.84 0.366,-0.04 0.017,-0.5 0.34,-1.34 0.704,-1.86 0.631,-0.9 0.584,-0.96 -1.014,-1.22 -0.98,-0.17 -2.295,-0.25 -3.677,-0.27 z m 16.437,0.82 c 0,-0.01 -0.01,-0.01 -0.02,0 -0.03,0.01 -0.05,0.07 -0.07,0.18 -0.118,0.43 -0.118,1.14 0,1.58 0.11,0.43 0.19,0.08 0.19,-0.79 0,-0.57 -0.04,-0.92 -0.1,-0.97 z m -13.746,0.52 c 0.262,0 0.364,0.2 0.211,0.45 -0.153,0.25 -0.369,0.45 -0.479,0.45 -0.109,0 -0.197,-0.2 -0.197,-0.45 0,-0.25 0.202,-0.45 0.465,-0.45 z m 6.058,5.07 c -0.139,-0.06 -0.106,0.1 0.042,0.49 0.156,0.41 0.469,0.75 0.69,0.75 0.58,0 0.501,-0.27 -0.281,-0.92 -0.216,-0.18 -0.368,-0.29 -0.451,-0.32 z m -26.529,1.17 c 0.104,0.01 0.17,0.04 0.17,0.08 0,0.53 -1.162,1.34 -1.649,1.2 l 0.071,-0.08 -0.085,0.07 c -0.021,-0.01 -0.038,-0.02 -0.056,-0.03 -0.513,-0.32 -2.46,1.71 -2.043,2.12 0.411,0.42 -2.129,3.05 -2.635,2.74 -0.216,-0.14 -0.359,-0.08 -0.324,0.12 0.036,0.21 0.03,0.54 0,0.72 -0.029,0.19 -0.347,0.34 -0.704,0.34 -0.565,0 -0.562,-0.16 0,-1.24 0.356,-0.68 0.665,-1.44 0.676,-1.69 0.057,-1.22 2.788,-3.6 4.706,-4.08 0.838,-0.22 1.564,-0.31 1.873,-0.27 z m -1.493,1.27 c 0.006,0 0.008,0.01 0.014,0.01 l -0.789,0.93 c -0.807,0.95 -1.169,1.22 -1.169,0.86 0,-0.09 0.456,-0.54 1.014,-1.02 z m 17.78,-0.33 h -0.029 c -0.111,0.06 -0.14,0.67 -0.197,2 -0.099,2.32 0.265,3.34 0.944,2.67 0.455,-0.46 0.299,-2.49 -0.296,-3.88 -0.198,-0.46 -0.335,-0.75 -0.422,-0.79 z m -2.311,0.9 c -0.287,-0.01 -0.677,0.16 -1.183,0.52 -0.54,0.39 -0.467,0.44 0.366,0.26 0.942,-0.21 1.014,-0.11 0.761,1.04 -0.316,1.44 0.164,1.97 1.141,1.28 0.542,-0.38 0.528,-0.41 -0.099,-0.21 -0.637,0.2 -0.719,0 -0.507,-1.31 0.167,-1.03 -0.001,-1.56 -0.479,-1.58 z m 1.93,0.03 c -0.034,0 -0.163,0.2 -0.408,0.58 -0.285,0.44 -0.418,1.05 -0.296,1.35 0.16,0.4 0.228,0.4 0.253,0.02 0.02,-0.29 0.154,-0.9 0.296,-1.36 0.124,-0.39 0.189,-0.59 0.155,-0.59 z m -2.536,4.51 c -0.295,0 -0.649,0.2 -0.803,0.45 -0.346,0.56 -0.19,0.56 0.677,0 0.406,-0.26 0.449,-0.45 0.126,-0.45 z m -31.769,4.06 c -0.236,0 -0.309,0.18 -0.169,0.41 0.14,0.22 0.023,0.48 -0.254,0.57 -0.339,0.12 -0.3,0.34 0.113,0.68 0.486,0.4 0.625,0.29 0.676,-0.58 0.036,-0.6 -0.13,-1.08 -0.366,-1.08 z m 2.156,1.04 c -0.123,-0.03 -0.295,0.17 -0.423,0.51 -0.305,0.79 -0.05,0.93 0.394,0.21 0.164,-0.27 0.203,-0.57 0.085,-0.69 -0.015,-0.02 -0.039,-0.03 -0.056,-0.03 z m -3.114,0.92 c -0.134,-0.02 -0.274,0.07 -0.451,0.25 -0.353,0.35 -0.338,0.65 0.071,1.06 0.455,0.45 0.503,0.38 0.239,-0.31 -0.247,-0.65 -0.181,-0.77 0.268,-0.5 0.412,0.26 0.492,0.21 0.253,-0.18 -0.124,-0.2 -0.246,-0.31 -0.38,-0.32 z m 54.883996,14.41 c 0.06,0 0.1,0.69 0.1,1.89 0,1.73 -0.08,2.49 -0.18,1.69 -0.1,-0.8 -0.1,-2.22 0,-3.16 0.03,-0.29 0.06,-0.42 0.08,-0.42 z"
     id="path1875" />
  <metadata
     id="metadata107">
    <rdf:RDF>
      <cc:Work>
        <dc:format>image/svg+xml</dc:format>
        <dc:type
           rdf:resource="http://purl.org/dc/dcmitype/StillImage" />
        <cc:license
           rdf:resource="http://creativecommons.org/publicdomain/zero/1.0/" />
        <dc:publisher>
          <cc:Agent
             rdf:about="http://openclipart.org/">
            <dc:title>Openclipart</dc:title>
          </cc:Agent>
        </dc:publisher>
        <dc:title></dc:title>
        <dc:date>2007-10-04T14:29:35</dc:date>
        <dc:description>parsley in svg format\nfrom my previous request (http://openclipart.org/media/files/Peileppe/4718)\ni just cropped the original picture a bit and did an horizontal flip as well</dc:description>
        <dc:source>http://openclipart.org/detail/6629/parsley-by-peileppe</dc:source>
        <dc:creator>
          <cc:Agent>
            <dc:title>Peileppe</dc:title>
          </cc:Agent>
        </dc:creator>
        <dc:subject>
          <rdf:Bag>
            <rdf:li>clip art</rdf:li>
            <rdf:li>clipart</rdf:li>
            <rdf:li>food</rdf:li>
            <rdf:li>image</rdf:li>
            <rdf:li>media</rdf:li>
            <rdf:li>nature</rdf:li>
            <rdf:li>plant</rdf:li>
            <rdf:li>png</rdf:li>
            <rdf:li>public domain</rdf:li>
            <rdf:li>svg</rdf:li>
          </rdf:Bag>
        </dc:subject>
      </cc:Work>
      <cc:License
         rdf:about="http://creativecommons.org/publicdomain/zero/1.0/">
        <cc:permits
           rdf:resource="http://creativecommons.org/ns#Reproduction" />
        <cc:permits
           rdf:resource="http://creativecommons.org/ns#Distribution" />
        <cc:permits
           rdf:resource="http://creativecommons.org/ns#DerivativeWorks" />
      </cc:License>
    </rdf:RDF>
  </metadata>
</svg>
