<svg xmlns="http://www.w3.org/2000/svg" xmlns:xlink="http://www.w3.org/1999/xlink" width="100" height="100" viewBox="0 0 100 100"><circle stroke="none" fill="#015480" r="48%" cx="50%" cy="50%"></circle><g transform="translate(50 50) scale(0.69 0.69) rotate(0) translate(-50 -50)" style="fill:#ffffff"><svg fill="#ffffff" xmlns="http://www.w3.org/2000/svg" data-name="Layer 67" viewBox="0 0 100 100" x="0px" y="0px"><path d="M49.25,37a38,38,0,0,1-7.46-7.18.76.76,0,0,1,.13-1.05.74.74,0,0,1,1,.13,40.8,40.8,0,0,0,6.28,6.27v-14a.75.75,0,0,1,1.5,0V31.31c2-.73,7-2.62,8.35-4.16a.75.75,0,0,1,1.12,1c-1.47,1.67-5.69,3.36-9.19,4.65l-.28.11V44.54c1.74-3,5.28-3.69,10.48-9.54a18.65,18.65,0,0,0,4.48-15l-7.85,2.11c3.69-4.18.78-10.45.78-10.45-1.75.48-5.12,3.34-5.12,3.34C54,10,50,5,50,5s-4,5-3.52,10c0,0-3.37-2.86-5.12-3.34,0,0-2.91,6.27.78,10.45L34.29,20a18.65,18.65,0,0,0,4.48,15c5.2,5.85,8.74,6.5,10.48,9.53Z"></path><path d="M14,50.39S9.85,51.78,8.53,53c0,0,3.26,4.87,8.07,4.87a6.85,6.85,0,0,0,1.26-.11L12,63.4a18.5,18.5,0,0,0,15.14,4c7.58-1.39,10-4,13.42-4l.18,0-6.46-3.93a37.76,37.76,0,0,1-10,2.64h-.09a.75.75,0,0,1-.74-.66.76.76,0,0,1,.66-.84,39.15,39.15,0,0,0,8.62-2.1l-12-7.28a.75.75,0,0,1-.25-1,.76.76,0,0,1,1-.25l8.68,5.28c.41-2.06,1.4-7.33.79-9.29a.75.75,0,0,1,1.44-.44c.65,2.12-.09,6.61-.8,10.27l-.06.29,9.94,6.05c-1.7-3.07-.41-6.43-2.71-13.91A18.63,18.63,0,0,0,28.31,36.56L26,44.36c-1.65-5.33-8.52-6.1-8.52-6.1-.5,1.75.19,6.11.19,6.11-2.6-1.94-6.18-2.29-8.38-2.29a17.52,17.52,0,0,0-2,.1S9.52,48.2,14,50.39Z"></path><path d="M43.31,64.07a.74.74,0,0,1-.64.36.76.76,0,0,1-.38-.11h0a10.22,10.22,0,0,1,1,.7,17.34,17.34,0,0,1,6,9.15v6.94a6.49,6.49,0,0,0,0,1.08V95a.75.75,0,0,0,1.5,0V81.15c.35-3.73,4.22-7.5,6.06-9.1.53-.45.88-.73.94-.78l0,0a.75.75,0,0,1-1-.25.74.74,0,0,1,.22-1h0c-.06.06-.45.36-1,.84a25.19,25.19,0,0,0-5.11,5.89V45a.75.75,0,0,0-1.5,0V70a18.22,18.22,0,0,0-5.1-6.2A9.32,9.32,0,0,0,43.06,63,.74.74,0,0,1,43.31,64.07Z"></path><path d="M68.38,62.73c-.71-3.67-1.45-8.15-.8-10.28A.75.75,0,0,1,69,52.9c-.61,2,.38,7.22.79,9.29l8.68-5.28a.74.74,0,0,1,1,.25.75.75,0,0,1-.25,1l-12,7.28a40.46,40.46,0,0,0,8.62,2.1.75.75,0,0,1-.08,1.49h-.09a37.52,37.52,0,0,1-10-2.65l-6.46,3.93h.18c3.41,0,5.84,2.63,13.42,4a18.5,18.5,0,0,0,15.14-4l-5.88-5.61a6.88,6.88,0,0,0,1.26.12c4.81,0,8.07-4.88,8.07-4.88C90.15,58.76,86,57.36,86,57.36c4.52-2.19,6.71-8.2,6.71-8.2a17.52,17.52,0,0,0-2-.1c-2.2,0-5.78.34-8.38,2.29,0,0,.69-4.37.19-6.11,0,0-6.86.77-8.52,6.09l-2.28-7.8A18.63,18.63,0,0,0,61.21,55.15c-2.3,7.48-1,10.84-2.71,13.91l9.94-6Z"></path></svg></g></svg>