<svg xmlns="http://www.w3.org/2000/svg" xmlns:xlink="http://www.w3.org/1999/xlink" width="100" height="100" viewBox="0 0 100 100"><circle stroke="none" fill="#015480" r="48%" cx="50%" cy="50%"></circle><g transform="translate(50 50) scale(0.69 0.69) rotate(0) translate(-50 -50)" style="fill:#ffffff"><svg fill="#ffffff" xmlns="http://www.w3.org/2000/svg" data-name="Layer 1" viewBox="0 0 96 90.87" x="0px" y="0px"><title>04</title><path d="M48,71.72l-.52-1.19s-6.57-16-24-16.44C12.54,53.83,6.22,56.41,3,58.36a2.19,2.19,0,0,0,.07,3.75C9.49,65.8,25.61,74.43,36.65,74.43A73,73,0,0,0,47.3,74c-4.32-3-13.46-8.18-30-13.06C17.29,60.92,35.11,63.51,48,71.72Z" transform="translate(-2 -4.56)"></path><path d="M48.7,72.2l-1.24,1.89c8.61,7.07,8.23,20.35,8.23,20.35,2.22,2.36,3.41-.23,3.41-.23C57.57,78.31,48.7,72.2,48.7,72.2Z" transform="translate(-2 -4.56)"></path><path d="M67.59,57.5S57.41,69.17,56.07,77.69a18,18,0,0,1,2.45,4.6s4.25-16.91,11.25-22.87C69.78,59.41,70.6,58,67.59,57.5Z" transform="translate(-2 -4.56)"></path><path d="M95.22,23.16c-6.53-1.84-21.31,6-25.38,16.81S67.59,57.5,67.59,57.5c7.75-7.16,21.29-23.17,21.29-23.17C82.56,45.51,69.78,59.41,69.78,59.41,98.13,59.32,101.75,25,95.22,23.16Z" transform="translate(-2 -4.56)"></path><path d="M48.34,64.76c1.28-3.44-4.51-13-4.51-13,8.54,8.68,8.54,13.83,8.54,13.83,1.72-6.2-1-15-1-15C47.8,38.72,34.77,35.49,34.77,35.49s-2.13,5.63,3.64,13.22A110.58,110.58,0,0,1,48.34,64.76Z" transform="translate(-2 -4.56)"></path><path d="M59.41,13.52C59.54,25.63,58,47.68,58,47.68,76.78,32,65.11,6.5,60.72,4.74s-11,10.35-12.22,21.15,7,22,7,22C56,41.23,59.41,13.52,59.41,13.52Z" transform="translate(-2 -4.56)"></path><path d="M55.12,72.8h0S55.1,72.84,55.12,72.8Z" transform="translate(-2 -4.56)"></path><path d="M54.76,57.51c.44,7.4-.55,10.9-.55,10.9a28.28,28.28,0,0,1,.9,4.39c.13-.29,1.37-2.94,1.37-2.94C56.66,59,58,47.68,58,47.68l-2.47.17C55.42,49.23,54.76,57.51,54.76,57.51Z" transform="translate(-2 -4.56)"></path></svg></g></svg>