<svg width="72" height="67" viewBox="0 0 72 67" fill="none" xmlns="http://www.w3.org/2000/svg">
<path d="M70.1709 0.782227H41.7173C41.5736 0.782222 41.4313 0.810526 41.2985 0.865522C41.1657 0.920518 41.0451 1.00113 40.9435 1.10275C40.8418 1.20437 40.7612 1.32502 40.7062 1.45779C40.6512 1.59057 40.6229 1.73288 40.6229 1.8766V2.97096H25.3018C25.1581 2.97096 25.0158 2.99926 24.883 3.05426C24.7502 3.10925 24.6296 3.18987 24.5279 3.29149C24.4263 3.39311 24.3457 3.51375 24.2907 3.64653C24.2357 3.77931 24.2074 3.92162 24.2074 4.06533H11.3333L7.18695 1.99215C7.02011 1.90872 6.8347 1.86932 6.64835 1.8777C6.46199 1.88608 6.28087 1.94196 6.12219 2.04003C5.96351 2.1381 5.83253 2.27511 5.74169 2.43804C5.65085 2.60097 5.60317 2.78442 5.60318 2.97096V18.2921C5.60317 18.4787 5.65085 18.6621 5.74169 18.825C5.83252 18.988 5.9635 19.125 6.12219 19.2231C6.28087 19.3211 6.46199 19.377 6.64835 19.3854C6.8347 19.3938 7.02011 19.3544 7.18695 19.2709L11.3333 17.1978H13.2638V25.9527C13.2637 26.1688 13.3277 26.38 13.4476 26.5597L17.4932 32.6283L10.3593 48.9344H1.98109C1.83737 48.9344 1.69506 48.9627 1.56229 49.0177C1.42951 49.0727 1.30887 49.1533 1.20724 49.255C1.10562 49.3566 1.02501 49.4772 0.970014 49.61C0.915018 49.7428 0.886715 49.8851 0.886719 50.0288L8.45045 58.4443L20.5249 65.4333C20.5249 65.577 20.5532 65.7193 20.6082 65.8521C20.6632 65.9848 20.7438 66.1055 20.8454 66.2071C20.947 66.3087 21.0677 66.3893 21.2005 66.4443C21.3332 66.4993 21.4755 66.5276 21.6193 66.5276L42.2303 66.4443C45.1843 66.4426 48.0646 65.5222 50.4722 63.8106C52.8798 62.0989 54.6954 59.6809 55.6674 56.8914L61.353 40.5456L65.7276 28.5154C65.7711 28.3955 65.7934 28.269 65.7934 28.1414V20.4809H70.1709C70.3146 20.4809 70.4569 20.4526 70.5897 20.3976C70.7225 20.3426 70.8431 20.262 70.9447 20.1603C71.0464 20.0587 71.127 19.9381 71.182 19.8053C71.237 19.6725 71.2653 19.5302 71.2653 19.3865V1.8766C71.2653 1.73288 71.237 1.59057 71.182 1.45779C71.127 1.32502 71.0464 1.20437 70.9447 1.10275C70.8431 1.00113 70.7225 0.920518 70.5897 0.865522C70.4569 0.810526 70.3146 0.782222 70.1709 0.782227ZM40.7385 27.5365L44.9001 35.8597L40.6808 46.8299C40.4403 47.4477 40.0194 47.9788 39.4728 48.3542C38.9263 48.7295 38.2795 48.9317 37.6165 48.9344H29.1321L33.9726 37.3173L33.9715 37.3169C33.9736 37.312 33.9765 37.3078 33.9785 37.3028L38.3559 26.3591C38.4076 26.2299 38.4342 26.0919 38.4342 25.9527V18.2921H40.6229V27.0471C40.6229 27.217 40.6625 27.3845 40.7385 27.5365ZM40.6229 5.1597V16.1034H26.3962V5.1597H40.6229ZM7.79191 4.7417L9.98065 5.83603V15.4271L7.79191 16.5214V4.7417ZM12.1694 15.009V6.25407H24.2074V15.009H20.2015L20.0516 13.66C19.9555 12.795 19.5318 11.9997 18.8675 11.4374C18.2032 10.8751 17.3488 10.5886 16.4798 10.6367C15.6109 10.6849 14.7933 11.064 14.1952 11.6962C13.5971 12.3283 13.2638 13.1656 13.2638 14.0359V15.009H12.1694ZM15.4525 14.0359C15.4525 13.7251 15.5715 13.4262 15.7851 13.2004C15.9986 12.9747 16.2906 12.8393 16.6008 12.8221C16.9111 12.805 17.2162 12.9073 17.4534 13.108C17.6906 13.3088 17.8419 13.5928 17.8762 13.9016L18.7423 21.6961C18.7599 21.8548 18.8121 22.0077 18.8951 22.1442C18.9781 22.2806 19.09 22.3972 19.2229 22.4858C20.0837 23.0583 20.7895 23.8349 21.2773 24.7464C21.7651 25.6579 22.0198 26.6759 22.0187 27.7097V28.1414H24.2074V27.7097C24.2089 26.4041 23.9077 25.1159 23.3276 23.9462C22.7474 22.7765 21.904 21.7572 20.8636 20.9683L20.4447 17.1978H23.1131V20.4809H25.3018V18.2921H27.4905V20.4809H29.6793V18.2921H31.868V20.4809H34.0567V18.2921H36.2455V25.742L32.3207 35.5539L19.4299 31.5876L15.4525 25.6213V14.0359ZM19.3468 33.852L31.4886 37.5879L26.7609 48.9344H12.7483L19.3468 33.852ZM53.6001 56.1723C52.7776 58.5327 51.2414 60.5787 49.2042 62.027C47.167 63.4753 44.7298 64.2542 42.2303 64.2556H18.4903L10.888 58.4443L3.07546 51.1232H37.6165C38.7215 51.1187 39.7995 50.7817 40.7104 50.1561C41.6213 49.5306 42.3228 48.6453 42.7236 47.6156L46.7495 37.1484L58.9151 40.8917L53.6001 56.1723ZM63.6047 27.9486L59.6488 38.8275L46.8642 34.8937L42.8117 26.7887V20.4809H46.0948V25.9527H48.2835V11.7259C48.2835 11.4357 48.3988 11.1573 48.6041 10.9521C48.8093 10.7468 49.0877 10.6315 49.3779 10.6315C49.6681 10.6315 49.9465 10.7468 50.1517 10.9521C50.357 11.1573 50.4723 11.4357 50.4723 11.7259V19.3865H52.661V9.53717C52.661 9.24693 52.7763 8.96857 52.9815 8.76334C53.1868 8.5581 53.4651 8.44281 53.7554 8.44281C54.0456 8.44281 54.324 8.5581 54.5292 8.76334C54.7344 8.96857 54.8497 9.24693 54.8497 9.53717V19.3865H57.0385V11.7259C57.0385 11.4357 57.1538 11.1573 57.359 10.9521C57.5642 10.7468 57.8426 10.6315 58.1328 10.6315C58.4231 10.6315 58.7014 10.7468 58.9067 10.9521C59.1119 11.1573 59.2272 11.4357 59.2272 11.7259V19.3865H61.4159V16.1034C61.4159 15.8131 61.5312 15.5348 61.7365 15.3295C61.9417 15.1243 62.2201 15.009 62.5103 15.009C62.8006 15.009 63.0789 15.1243 63.2842 15.3295C63.4894 15.5348 63.6047 15.8131 63.6047 16.1034V27.9486ZM69.0765 18.2921H65.7934V16.1034C65.7936 15.5781 65.6677 15.0604 65.4263 14.5939C65.1849 14.1274 64.835 13.7256 64.4061 13.4224C63.9772 13.1191 63.4818 12.9233 62.9614 12.8513C62.4411 12.7793 61.9111 12.8332 61.4159 13.0085V11.7259C61.4163 11.1901 61.2854 10.6624 61.0347 10.1889C60.7841 9.71538 60.4213 9.31044 59.978 9.00946C59.5348 8.70848 59.0246 8.52063 58.492 8.4623C57.9594 8.40398 57.4206 8.47697 56.9228 8.67488C56.7336 7.97971 56.3211 7.36606 55.7487 6.92857C55.1763 6.49109 54.4758 6.25407 53.7554 6.25407C53.0349 6.25407 52.3345 6.49109 51.7621 6.92857C51.1897 7.36606 50.7771 7.97971 50.588 8.67488C50.0901 8.47697 49.5513 8.40398 49.0187 8.4623C48.4861 8.52063 47.9759 8.70848 47.5327 9.00946C47.0894 9.31044 46.7267 9.71538 46.476 10.1889C46.2253 10.6624 46.0945 11.1901 46.0948 11.7259V18.2921H42.8117V2.97096H69.0765V18.2921Z" fill="white"/>
</svg>
