<svg width="45" height="55" viewBox="0 0 45 55" fill="none" xmlns="http://www.w3.org/2000/svg">
<path d="M31.9871 31.7627C30.7424 31.3478 29.7051 31.1404 28.2529 31.1404C22.0292 31.1404 16.8427 36.1194 16.8427 42.5505C16.8427 48.9817 21.8217 53.9607 28.2529 53.9607C34.6841 53.9607 39.6631 48.9817 39.6631 42.5505C39.6631 39.2312 38.2109 36.3268 36.1363 34.2522L41.7377 23.6719" stroke="white" stroke-width="2" stroke-miterlimit="10"/>
<path d="M29.2899 31.1411L35.7211 19.5234" stroke="white" stroke-width="2" stroke-miterlimit="10"/>
<path d="M32.4012 25.332L34.8907 26.9917" stroke="white" stroke-width="2" stroke-miterlimit="10"/>
<path d="M33.2313 18.0703L44.4341 24.2941" stroke="white" stroke-width="2" stroke-miterlimit="10"/>
<path d="M17.8798 45.25C17.8798 45.25 19.332 43.7978 23.2737 43.5903C27.2154 43.3829 30.9497 45.25 30.9497 45.25C30.9497 45.25 34.8914 46.7022 38.6256 45.6649" stroke="white" stroke-width="2" stroke-miterlimit="10"/>
<path d="M14.9753 26.9921L11.0336 28.4443C11.0336 28.4443 7.09191 29.8965 6.67699 26.1622C6.26207 22.428 5.84716 11.2253 5.84716 11.2253L4.60241 7.28356L2.73529 5.6239L6.46953 4.1717L7.1968 3.90338L10.7236 2.45117L10.3522 5.29012L12.0118 9.02436C12.0118 9.02436 19.0654 17.7376 21.14 20.8495C23.2146 23.9613 19.2729 25.4136 19.2729 25.4136L15.3312 26.8658L14.9753 26.9921Z" stroke="white" stroke-width="2" stroke-miterlimit="10"/>
<path d="M6.43048 12.6508L12.2393 10.5762" stroke="white" stroke-width="2" stroke-miterlimit="10"/>
</svg>
