<svg width="40" height="39" viewBox="0 0 40 39" fill="none" xmlns="http://www.w3.org/2000/svg">
<path fill-rule="evenodd" clip-rule="evenodd" d="M8.50383 32.6669C9.32618 32.5129 10.1228 33.0263 10.277 33.8478C10.4826 34.6436 9.91724 35.465 9.09489 35.6191C8.29824 35.7731 7.52729 35.2597 7.3217 34.4382C7.16751 33.6167 7.68148 32.8209 8.50383 32.6669Z" fill="white"/>
<path fill-rule="evenodd" clip-rule="evenodd" d="M13.6178 34.5669C12.5642 34.6182 11.6904 35.4654 11.6904 36.5692C11.6904 37.6988 12.5899 38.6486 13.6949 38.6486C14.8256 38.6486 15.7765 37.7501 15.7765 36.5949C15.8279 35.7221 15.2625 34.9776 14.4916 34.6696L14.7742 32.8982C15.9821 32.6929 16.9329 31.6404 16.9843 30.3568C16.9843 28.8935 15.8536 27.7383 14.3888 27.687C13.1295 27.687 12.1016 28.5085 11.7932 29.6893L7.55298 29.3299C7.42449 28.6625 7.01332 28.0721 6.34516 27.7897C5.31722 27.4303 4.21219 27.9437 3.82672 28.9192C3.46694 29.9461 3.98091 31.0499 4.95745 31.3836C5.98538 31.7687 7.09041 31.2553 7.47589 30.2541V30.2028L11.7161 30.5108C11.8446 31.6917 12.7441 32.6672 13.8748 32.8726L13.6178 34.5669Z" fill="white"/>
<path fill-rule="evenodd" clip-rule="evenodd" d="M3.98088 22.0395C2.87585 21.6031 1.61663 22.1165 1.17975 23.246C0.742881 24.3499 1.25685 25.6078 2.36188 26.0442C3.49261 26.4806 4.72613 25.9158 5.1887 24.8376C5.65128 23.7338 5.08591 22.4759 3.98088 22.0395Z" fill="white"/>
<path fill-rule="evenodd" clip-rule="evenodd" d="M4.70043 13.5677C2.82445 13.1827 0.999864 14.3892 0.640086 16.2375C0.25461 18.0859 1.46243 19.8829 3.31272 20.2936C4.28926 20.499 5.2658 20.2166 6.03675 19.6775L8.76078 22.4757C8.63229 22.6297 8.55519 22.7837 8.4781 22.9377C7.96413 24.1443 8.60659 25.5562 9.81441 26.044C11.0222 26.5574 12.41 25.9156 12.8725 24.709C13.3865 23.5025 12.7954 22.1163 11.5876 21.6542C10.791 21.3461 10.02 21.4488 9.37754 21.8595L6.65351 19.0614C7.01329 18.6763 7.24457 18.1886 7.37307 17.6495C7.73284 15.7498 6.55072 13.9528 4.70043 13.5677ZM3.6725 15.2364C4.57194 15.031 5.47138 15.6214 5.62557 16.5713C5.83116 17.4698 5.2401 18.3683 4.34065 18.5223C3.44121 18.7277 2.54177 18.1372 2.33618 17.2387C2.15629 16.3402 2.72166 15.4417 3.6725 15.2364Z" fill="white"/>
<path fill-rule="evenodd" clip-rule="evenodd" d="M6.11387 7.45758C5.08593 7.25221 4.10939 7.91966 3.87811 8.92084C3.67252 9.94769 4.34068 10.9745 5.36861 11.1542C5.98538 11.2826 6.57644 11.0772 7.01331 10.6922L8.73511 11.796C8.68371 11.9244 8.65801 12.0271 8.60661 12.1811C8.37533 13.439 9.14628 14.6455 10.4055 14.9022L10.4826 14.9536L10.534 16.4425C10.02 16.6479 9.63455 17.0329 9.50606 17.572C9.35187 18.3935 9.86584 19.1893 10.6882 19.3434C11.5105 19.4974 12.3072 18.984 12.4614 18.1625C12.6156 17.418 12.153 16.6222 11.4077 16.4425L11.3563 14.9022C12.2558 14.6969 12.9753 14.0294 13.1552 13.1052C13.1552 12.9769 13.2066 12.8229 13.2066 12.6688L14.4915 12.4635C14.6971 12.8485 15.0312 13.1309 15.5195 13.2593C16.3418 13.4133 17.1385 12.8742 17.2927 12.0784C17.4469 11.2569 16.9329 10.4611 16.1106 10.3071C15.3139 10.1017 14.4916 10.6665 14.3374 11.4366C14.3374 11.488 14.3374 11.5136 14.3374 11.565L13.0524 11.796C12.4357 10.2301 10.3798 9.845 9.19768 11.0516L7.50158 9.94769C7.50158 9.87068 7.55298 9.79366 7.55298 9.71665C7.75857 8.6898 7.1418 7.66295 6.11387 7.45758Z" fill="white"/>
<path fill-rule="evenodd" clip-rule="evenodd" d="M13.5921 1.93845C11.9217 1.57906 10.277 2.63158 9.96863 4.32587C9.60885 5.96883 10.6882 7.61179 12.3586 7.97118C14.0033 8.27924 15.648 7.22672 16.0077 5.53242C16.3418 3.88946 15.2625 2.24651 13.5921 1.93845Z" fill="white"/>
<path fill-rule="evenodd" clip-rule="evenodd" d="M21.1731 8.69005C21.8413 8.81841 22.4323 9.30616 22.5865 10.025C22.8692 10.9748 22.2781 11.976 21.3273 12.2327C20.3507 12.5151 19.3742 11.9246 19.0915 10.9491C18.8602 10.0506 19.3742 9.10079 20.2736 8.79274L19.991 4.76236H19.9396C18.6803 4.60833 17.858 3.4788 18.0122 2.22091C18.2178 1.01436 19.3485 0.14154 20.5563 0.34691C21.8156 0.500937 22.6379 1.63047 22.4837 2.88836C22.3295 3.78685 21.6871 4.50565 20.839 4.73669L21.1731 8.69005Z" fill="white"/>
<path fill-rule="evenodd" clip-rule="evenodd" d="M25.7989 6.79042C26.6212 6.63639 27.4179 7.14982 27.5721 7.9713C27.7263 8.79278 27.2123 9.58859 26.3899 9.74261C25.5933 9.89664 24.7709 9.38322 24.6167 8.56174C24.4626 7.74026 24.9765 6.97012 25.7989 6.79042Z" fill="white"/>
<path fill-rule="evenodd" clip-rule="evenodd" d="M27.0581 11.4622C27.7262 11.3082 28.4458 11.5392 28.9083 12.0013L30.6301 10.8204C30.553 10.615 30.476 10.4353 30.4246 10.2043C30.219 9.33148 30.476 8.48433 30.9642 7.81688L28.9597 5.68617C28.8056 5.76319 28.6 5.8402 28.4201 5.89154C27.3921 6.09691 26.4156 5.45513 26.21 4.42828C25.9787 3.40143 26.6469 2.37458 27.6748 2.19489C28.7028 1.98952 29.6793 2.65697 29.8849 3.65815C30.0134 4.17157 29.8849 4.68499 29.6536 5.07006L31.6067 7.22644C31.9151 6.9954 32.3262 6.84138 32.7117 6.76436C34.2793 6.45631 35.8212 7.48316 36.1296 9.0491C36.4894 10.615 35.4614 12.181 33.8424 12.5147C32.8145 12.7201 31.7866 12.3607 31.1184 11.6162L29.3966 12.7971C29.448 12.8741 29.4737 13.0025 29.4737 13.1052C29.705 14.2347 29.0111 15.3385 27.8547 15.5696C26.724 15.8006 25.619 15.0562 25.3877 13.9523C25.1821 12.7971 25.9273 11.7189 27.0581 11.4622ZM32.0179 9.94759V9.97326V10.0246V10.0759L32.0693 10.1273V10.1786V10.23H32.1206V10.2813H32.172V10.3327L32.2234 10.384V10.4353H32.2748V10.4867V10.538H32.3262V10.4867H32.3776V10.538H32.429V10.5894H32.4804V10.6407H32.5318V10.6921H32.5832V10.7434H32.6346C32.943 10.9744 33.3028 11.0515 33.6883 10.9744C34.4335 10.8461 34.8704 10.153 34.7419 9.4085C34.5877 8.6897 33.8681 8.22762 33.1743 8.38165C33.0458 8.38165 32.9687 8.43299 32.8916 8.45866H32.8402L32.7888 8.51001H32.7374V8.56135H32.686H32.6346V8.61269H32.5832L32.5318 8.66403H32.4804V8.71537H32.429V8.76672H32.3776V8.6897H32.3262V8.74104H32.2748V8.79239H32.2234V8.84373L32.172 8.89507V8.94642H32.1206V8.99776H32.0693V9.0491V9.10044H32.0179C31.8894 9.38283 31.8637 9.69088 31.8894 9.99894L32.0179 9.94759Z" fill="white"/>
<path fill-rule="evenodd" clip-rule="evenodd" d="M28.857 16.6225C29.6793 16.4684 30.476 16.9818 30.6302 17.8033C30.8358 18.6248 30.2704 19.4206 29.448 19.5746C28.6514 19.78 27.8804 19.2152 27.6748 18.3938C27.5207 17.598 28.0346 16.8022 28.857 16.6225Z" fill="white"/>
<path fill-rule="evenodd" clip-rule="evenodd" d="M37.4402 22.039C38.3139 22.193 39.0849 22.9118 39.2905 23.836C39.5218 25.0425 38.7508 26.2234 37.5173 26.4544C36.3095 26.7368 35.0759 25.941 34.8446 24.7344C34.6134 23.5279 35.3586 22.347 36.5407 22.0646L36.4122 18.8044C35.3072 18.6504 34.4078 17.8289 34.1765 16.725C33.8938 15.2618 34.7932 13.9012 36.2324 13.6188C37.6972 13.3108 39.0592 14.2349 39.3419 15.6725C39.6502 17.0844 38.7251 18.4707 37.286 18.7787L37.4402 22.039Z" fill="white"/>
<path fill-rule="evenodd" clip-rule="evenodd" d="M32.9944 28.9705C34.2536 28.7395 35.4614 29.5096 35.7184 30.7675C36.0011 32.0254 35.1787 33.2319 33.9195 33.5143C32.6603 33.7453 31.4525 32.9752 31.1955 31.7173C31.0413 31.0499 31.1955 30.4594 31.5553 29.946L29.705 28.0977C29.4223 28.2517 29.1139 28.4057 28.8055 28.4571C27.4692 28.7395 26.1843 27.918 25.9016 26.5831C25.6703 25.2482 26.4927 23.9646 27.829 23.7079C28.4201 23.5539 29.0368 23.6566 29.5508 23.9903L30.7329 22.5784C30.5787 22.3473 30.4245 22.1163 30.3731 21.7826C30.1418 20.7301 30.8357 19.6519 31.915 19.4722C32.9687 19.2411 34.048 19.9343 34.2793 21.0124C34.4849 22.065 33.8167 23.1431 32.7117 23.3742C32.2748 23.4512 31.8122 23.3742 31.4268 23.1688L30.2446 24.5551C30.4759 24.8631 30.6301 25.2225 30.7072 25.6076C30.8614 26.275 30.7072 26.9425 30.3474 27.4816L32.1977 29.3299C32.4033 29.1759 32.686 29.0732 32.9944 28.9705ZM33.0715 30.2284V30.2797H32.9944V30.3311H32.943H32.8916V30.3824H32.8402L32.7888 30.4338H32.7374V30.4851H32.686V30.5365H32.6346V30.5878H32.5832V30.6391H32.5318V30.6905H32.4804V30.7418H32.429V30.7932V30.8445H32.3776V30.8958H32.3262V30.9472V30.9985V31.0499H32.2748C32.1977 31.2552 32.1977 31.4349 32.2234 31.6403C32.3519 32.2307 32.8916 32.5901 33.4826 32.4618C34.0737 32.3334 34.4335 31.7943 34.305 31.2039C34.1765 30.6648 33.6368 30.2541 33.0458 30.3824C33.2 30.2284 33.1229 30.2284 33.0715 30.2284Z" fill="white"/>
<path fill-rule="evenodd" clip-rule="evenodd" d="M24.3597 28.662C25.5419 28.5336 26.5184 29.4064 26.6469 30.536C26.724 31.3574 26.2871 32.1532 25.619 32.5383L26.0815 34.1556H26.1329C27.3408 34.0272 28.4458 34.9514 28.5743 36.2093C28.7028 37.4158 27.7776 38.5197 26.5698 38.6481C25.3106 38.7764 24.2056 37.8522 24.1028 36.5944C24.0257 35.6959 24.4882 34.823 25.2849 34.438L24.7709 32.8207C23.6402 32.8977 22.6123 32.0762 22.4838 30.9467C22.381 29.8172 23.2033 28.7903 24.3597 28.662Z" fill="white"/>
</svg>
